<svg width="420" height="34" viewBox="0 0 420 34" fill="none" xmlns="http://www.w3.org/2000/svg">
<path d="M8.4395 33.5794H0L10.9618 0.452902H21.416L32.3779 33.5794H23.9384L16.3079 8.79924H16.0541L8.4395 33.5794ZM7.31318 20.5423H24.9536V26.6242H7.31318V20.5423Z" fill="#FCFCFC"/>
<path d="M55.531 0.452902H63.3676V21.8202C63.3676 24.2896 62.7913 26.4408 61.6385 28.274C60.4857 30.0964 58.8782 31.509 56.8159 32.5119C54.7536 33.504 52.3582 34 49.6297 34C46.8694 34 44.4581 33.504 42.3958 32.5119C40.3335 31.509 38.7313 30.0964 37.5891 28.274C36.4469 26.4408 35.8758 24.2896 35.8758 21.8202V0.452902H43.7284V21.1246C43.7284 22.2677 43.9716 23.2867 44.4581 24.1817C44.9551 25.0767 45.6479 25.7777 46.5362 26.2845C47.4246 26.7913 48.4557 27.0447 49.6297 27.0447C50.8036 27.0447 51.8294 26.7913 52.7072 26.2845C53.5956 25.7777 54.2883 25.0767 54.7854 24.1817C55.2824 23.2867 55.531 22.2677 55.531 21.1246V0.452902Z" fill="#FCFCFC"/>
<path d="M85.8505 10.3844C85.7447 9.19822 85.2741 8.27624 84.4386 7.61846C83.6137 6.94989 82.4345 6.6156 80.901 6.6156C79.8857 6.6156 79.0397 6.7504 78.3628 7.01998C77.686 7.28957 77.1783 7.66159 76.8399 8.13606C76.5015 8.59975 76.327 9.13352 76.3164 9.73739C76.2953 10.2334 76.3904 10.6702 76.602 11.0476C76.824 11.425 77.1413 11.7593 77.5538 12.0504C77.9768 12.3308 78.4845 12.5788 79.0767 12.7945C79.6689 13.0101 80.3352 13.1989 81.0755 13.3606L83.8675 14.0076C85.4751 14.3635 86.8922 14.8379 88.119 15.431C89.3564 16.0241 90.3928 16.7304 91.2283 17.55C92.0744 18.3695 92.7142 19.313 93.1478 20.3806C93.5814 21.4481 93.8035 22.6451 93.8141 23.9715C93.8035 26.0634 93.2853 27.8589 92.2594 29.3578C91.2336 30.8566 89.7583 32.0051 87.8335 32.803C85.9193 33.601 83.6084 34 80.901 34C78.183 34 75.8141 33.5848 73.7941 32.7545C71.7741 31.9242 70.2036 30.6625 69.0826 28.9696C67.9615 27.2766 67.3851 25.1361 67.3534 22.548H74.8728C74.9363 23.6156 75.2165 24.5052 75.7136 25.2169C76.2106 25.9286 76.8928 26.4678 77.76 26.8344C78.6378 27.2011 79.6531 27.3844 80.8058 27.3844C81.8634 27.3844 82.7624 27.2388 83.5027 26.9477C84.2536 26.6565 84.8299 26.2521 85.2318 25.7345C85.6337 25.2169 85.8399 24.6238 85.8505 23.9553C85.8399 23.3298 85.6496 22.7961 85.2794 22.3539C84.9093 21.901 84.3382 21.5128 83.5661 21.1893C82.8047 20.8551 81.8317 20.5477 80.6472 20.2674L77.2524 19.4586C74.4392 18.8008 72.2236 17.7387 70.6055 16.2721C68.9874 14.7948 68.1836 12.7999 68.1942 10.2873C68.1836 8.2385 68.723 6.44307 69.8123 4.90105C70.9016 3.35902 72.4086 2.15668 74.3334 1.29401C76.2582 0.431336 78.4527 0 80.9169 0C83.4339 0 85.6178 0.436727 87.4686 1.31018C89.3299 2.17285 90.7735 3.38598 91.7994 4.94957C92.8253 6.51316 93.3488 8.32477 93.3699 10.3844H85.8505Z" fill="#FCFCFC"/>
<path d="M96.7172 6.95528V0.452902H124.177V6.95528H114.326V33.5794H106.584V6.95528H96.7172Z" fill="#FCFCFC"/>
<path d="M135.865 0.452902V33.5794H128.012V0.452902H135.865Z" fill="#FCFCFC"/>
<path d="M168.445 0.452902V33.5794H161.782L148.853 14.4605H148.647V33.5794H140.795V0.452902H147.552L160.339 19.5395H160.608V0.452902H168.445Z" fill="#FCFCFC"/>
<path d="M200.541 10.3844C200.436 9.19822 199.965 8.27624 199.129 7.61846C198.304 6.94989 197.125 6.6156 195.592 6.6156C194.576 6.6156 193.73 6.7504 193.054 7.01998C192.377 7.28957 191.869 7.66159 191.531 8.13606C191.192 8.59975 191.018 9.13352 191.007 9.73739C190.986 10.2334 191.081 10.6702 191.293 11.0476C191.515 11.425 191.832 11.7593 192.245 12.0504C192.668 12.3308 193.175 12.5788 193.767 12.7945C194.36 13.0101 195.026 13.1989 195.766 13.3606L198.558 14.0076C200.166 14.3635 201.583 14.8379 202.81 15.431C204.047 16.0241 205.084 16.7304 205.919 17.55C206.765 18.3695 207.405 19.313 207.839 20.3806C208.272 21.4481 208.494 22.6451 208.505 23.9715C208.494 26.0634 207.976 27.8589 206.95 29.3578C205.924 30.8566 204.449 32.0051 202.524 32.803C200.61 33.601 198.299 34 195.592 34C192.874 34 190.505 33.5848 188.485 32.7545C186.465 31.9242 184.894 30.6625 183.773 28.9696C182.652 27.2766 182.076 25.1361 182.044 22.548H189.564C189.627 23.6156 189.907 24.5052 190.404 25.2169C190.901 25.9286 191.584 26.4678 192.451 26.8344C193.329 27.2011 194.344 27.3844 195.497 27.3844C196.554 27.3844 197.453 27.2388 198.193 26.9477C198.944 26.6565 199.521 26.2521 199.923 25.7345C200.324 25.2169 200.531 24.6238 200.541 23.9553C200.531 23.3298 200.34 22.7961 199.97 22.3539C199.6 21.901 199.029 21.5128 198.257 21.1893C197.495 20.8551 196.522 20.5477 195.338 20.2674L191.943 19.4586C189.13 18.8008 186.914 17.7387 185.296 16.2721C183.678 14.7948 182.874 12.7999 182.885 10.2873C182.874 8.2385 183.414 6.44307 184.503 4.90105C185.592 3.35902 187.099 2.15668 189.024 1.29401C190.949 0.431336 193.143 0 195.608 0C198.125 0 200.309 0.436727 202.159 1.31018C204.021 2.17285 205.464 3.38598 206.49 4.94957C207.516 6.51316 208.04 8.32477 208.061 10.3844H200.541Z" fill="#FCFCFC"/>
<path d="M211.408 6.95528V0.452902H238.868V6.95528H229.017V33.5794H221.275V6.95528H211.408Z" fill="#FCFCFC"/>
<path d="M245.674 33.5794H237.234L248.196 0.452902H258.65L269.612 33.5794H261.172L253.542 8.79924H253.288L245.674 33.5794ZM244.547 20.5423H262.188V26.6242H244.547V20.5423Z" fill="#FCFCFC"/>
<path d="M273.11 33.5794V0.452902H286.531C288.963 0.452902 291.062 0.900412 292.828 1.79543C294.605 2.67967 295.975 3.95211 296.937 5.61275C297.9 7.26261 298.381 9.21979 298.381 11.4843C298.381 13.7812 297.889 15.733 296.905 17.3397C295.922 18.9356 294.526 20.1541 292.717 20.9952C290.909 21.8256 288.767 22.2407 286.293 22.2407H277.806V15.9324H284.833C286.018 15.9324 287.006 15.7761 287.8 15.4634C288.603 15.1399 289.212 14.6546 289.624 14.0076C290.036 13.3498 290.243 12.5087 290.243 11.4843C290.243 10.4599 290.036 9.61338 289.624 8.94481C289.212 8.26546 288.603 7.75864 287.8 7.42436C286.996 7.07929 286.007 6.90676 284.833 6.90676H280.962V33.5794H273.11ZM291.401 18.4396L299.491 33.5794H290.925L282.993 18.4396H291.401Z" fill="#FCFCFC"/>
<path d="M301.625 6.95528V0.452902H329.085V6.95528H319.234V33.5794H311.492V6.95528H301.625Z" fill="#FCFCFC"/>
<path d="M352.575 0.452902H360.412V21.8202C360.412 24.2896 359.836 26.4408 358.683 28.274C357.53 30.0964 355.922 31.509 353.86 32.5119C351.798 33.504 349.402 34 346.674 34C343.914 34 341.502 33.504 339.44 32.5119C337.378 31.509 335.776 30.0964 334.633 28.274C333.491 26.4408 332.92 24.2896 332.92 21.8202V0.452902H340.773V21.1246C340.773 22.2677 341.016 23.2867 341.502 24.1817C341.999 25.0767 342.692 25.7777 343.581 26.2845C344.469 26.7913 345.5 27.0447 346.674 27.0447C347.848 27.0447 348.874 26.7913 349.751 26.2845C350.64 25.7777 351.333 25.0767 351.83 24.1817C352.327 23.2867 352.575 22.2677 352.575 21.1246V0.452902Z" fill="#FCFCFC"/>
<path d="M365.334 33.5794V0.452902H378.754C381.187 0.452902 383.286 0.938155 385.052 1.90866C386.829 2.86838 388.199 4.21091 389.161 5.93625C390.123 7.65081 390.605 9.64573 390.605 11.921C390.605 14.2071 390.113 16.2074 389.129 17.922C388.156 19.6258 386.766 20.9467 384.957 21.8849C383.149 22.823 381.002 23.2921 378.516 23.2921H370.235V16.9838H377.057C378.241 16.9838 379.23 16.7735 380.023 16.353C380.827 15.9324 381.435 15.3448 381.848 14.5899C382.26 13.8243 382.466 12.9347 382.466 11.921C382.466 10.8966 382.26 10.0124 381.848 9.26832C381.435 8.51348 380.827 7.93118 380.023 7.52141C379.22 7.11164 378.231 6.90676 377.057 6.90676H373.186V33.5794H365.334Z" fill="#FCFCFC"/>
<path d="M412.036 10.3844C411.931 9.19822 411.46 8.27624 410.625 7.61846C409.8 6.94989 408.62 6.6156 407.087 6.6156C406.072 6.6156 405.226 6.7504 404.549 7.01998C403.872 7.28957 403.364 7.66159 403.026 8.13606C402.687 8.59975 402.513 9.13352 402.502 9.73739C402.481 10.2334 402.576 10.6702 402.788 11.0476C403.01 11.425 403.327 11.7593 403.74 12.0504C404.163 12.3308 404.67 12.5788 405.263 12.7945C405.855 13.0101 406.521 13.1989 407.261 13.3606L410.053 14.0076C411.661 14.3635 413.078 14.8379 414.305 15.431C415.542 16.0241 416.579 16.7304 417.414 17.55C418.26 18.3695 418.9 19.313 419.334 20.3806C419.767 21.4481 419.989 22.6451 420 23.9715C419.989 26.0634 419.471 27.8589 418.445 29.3578C417.419 30.8566 415.944 32.0051 414.019 32.803C412.105 33.601 409.794 34 407.087 34C404.369 34 402 33.5848 399.98 32.7545C397.96 31.9242 396.389 30.6625 395.268 28.9696C394.147 27.2766 393.571 25.1361 393.539 22.548H401.059C401.122 23.6156 401.402 24.5052 401.9 25.2169C402.397 25.9286 403.079 26.4678 403.946 26.8344C404.824 27.2011 405.839 27.3844 406.992 27.3844C408.049 27.3844 408.948 27.2388 409.689 26.9477C410.439 26.6565 411.016 26.2521 411.418 25.7345C411.82 25.2169 412.026 24.6238 412.036 23.9553C412.026 23.3298 411.835 22.7961 411.465 22.3539C411.095 21.901 410.524 21.5128 409.752 21.1893C408.991 20.8551 408.018 20.5477 406.833 20.2674L403.438 19.4586C400.625 18.8008 398.409 17.7387 396.791 16.2721C395.173 14.7948 394.37 12.7999 394.38 10.2873C394.37 8.2385 394.909 6.44307 395.998 4.90105C397.087 3.35902 398.595 2.15668 400.519 1.29401C402.444 0.431336 404.639 0 407.103 0C409.62 0 411.804 0.436727 413.654 1.31018C415.516 2.17285 416.959 3.38598 417.985 4.94957C419.011 6.51316 419.535 8.32477 419.556 10.3844H412.036Z" fill="#FCFCFC"/>
</svg>
