<svg width="322" height="42" viewBox="0 0 322 42" fill="none" xmlns="http://www.w3.org/2000/svg">
<path d="M22.0302 11.2035V41.16H11.056V11.2035H0V1.617H33.1039V11.2035H22.0302ZM58.6947 29.2981H41.1905C41.1759 29.9508 41.2981 30.5993 41.549 31.2018C41.8 31.8043 42.1742 32.3474 42.6475 32.7961C43.1208 33.2449 43.6828 33.5893 44.2971 33.8071C44.9114 34.025 45.5645 34.1114 46.2143 34.0609C48.9148 34.0464 51.5644 33.3234 53.8994 31.9641L57.8771 38.5844C54.2819 40.802 50.146 41.9838 45.9239 42C36.9517 42 32.0883 35.6475 32.0883 26.5419C32.0883 16.297 37.8594 11.0229 45.6346 11.0229C53.4099 11.0229 58.8414 16.4157 58.8414 27.4397C58.7219 28.1589 58.7219 28.7878 58.6915 29.2981H58.6947ZM45.2363 18.4233C42.9042 18.4233 41.6181 20.0109 41.289 22.9771H49.7518C49.2434 19.951 48.2267 18.4233 45.2363 18.4233ZM77.5929 41.8803C68.8911 41.8803 63.7174 36.3384 63.7174 26.3025C63.7174 17.3145 68.323 10.9043 77.8319 10.9043C82.6052 10.7468 87.0421 13.3592 89.2254 17.6243L82.2279 23.0055C80.8234 20.4288 79.8653 19.1709 77.6527 19.1709C75.44 19.1709 73.7745 21.777 73.7745 26.4789C73.7745 31.1808 75.179 33.6189 77.9608 33.6189C79.8748 33.6189 81.2101 32.5406 83.1041 29.7549L89.5335 34.7876C86.0746 39.9116 82.8652 41.8877 77.6013 41.8877L77.5929 41.8803ZM112.283 41.2503V24.3852C112.283 20.5212 110.997 19.5027 108.903 19.5027C106.81 19.5027 105.445 20.5212 105.445 24.2655V41.2514H95.2774V4.074L105.445 0V13.5104C107.549 11.781 110.199 10.8581 112.921 10.9043C119.42 10.9043 122.52 15.2775 122.52 23.0664V41.2503H112.283ZM146.851 41.8803C135.098 41.8803 128.909 33.1632 128.909 21.4494C128.909 8.7171 136.385 1.0185 146.851 1.0185C156.569 1.0185 160.397 5.1828 163.118 12.6714L153.19 16.5564C151.754 12.8814 150.409 10.5651 146.79 10.5651C142.215 10.5651 140.241 15.1484 140.241 21.44C140.241 27.7316 142.155 32.2844 146.91 32.2844C150.348 32.2844 151.815 30.4258 153.967 26.6826L163.238 31.626C160.429 38.1171 153.906 42.1942 146.85 41.8708L146.851 41.8803ZM188.299 22.7388C187.738 22.0068 187.025 21.4054 186.209 20.9762C185.393 20.5469 184.494 20.3 183.574 20.2524C181.092 20.2524 179.567 21.4494 179.567 25.0751V41.2524H169.4V11.6235H179.567V13.7802C180.971 12.2958 182.839 11.3355 184.861 11.0577C186.883 10.78 188.94 11.2014 190.691 12.2525L188.299 22.7388ZM212.491 41.2524V39.2752C210.412 41.0092 207.779 41.9345 205.074 41.8814C198.575 41.8814 195.475 37.5081 195.475 29.6888V11.6235H205.673V28.3994C205.673 32.234 206.989 33.2524 209.082 33.2524C211.175 33.2524 212.461 32.234 212.461 28.5191V11.6235H222.688V41.3406L212.491 41.2524ZM247.059 41.2524V24.3852C247.059 20.5212 245.743 19.5027 243.68 19.5027C241.616 19.5027 240.221 20.5212 240.221 24.2655V41.2514H230.054V11.6235H240.221V13.6006C242.325 11.8713 244.975 10.9484 247.697 10.9946C254.196 10.9946 257.296 15.3678 257.296 23.1567V41.3406L247.059 41.2524ZM277.113 41.8824C268.411 41.8824 263.207 36.3405 263.207 26.3046C263.207 17.3166 267.842 10.9063 277.321 10.9063C279.663 10.8339 281.978 11.4253 283.999 12.6125C286.02 13.7997 287.665 15.5343 288.745 17.6169L281.748 22.9194C280.312 20.3427 279.356 19.0848 277.172 19.0848C274.989 19.0848 273.254 21.6909 273.254 26.3928C273.254 31.0947 274.659 33.5328 277.441 33.5328C279.355 33.5328 280.73 32.4544 282.584 29.6688L289.013 34.7015C285.576 39.9137 282.345 41.8908 277.112 41.8908L277.113 41.8824ZM311.772 41.2524V24.3852C311.772 20.5212 310.486 19.5027 308.393 19.5027C306.3 19.5027 304.955 20.5212 304.955 24.2655V41.2514H294.788V4.074L304.955 0V13.5104C307.046 11.7772 309.688 10.8525 312.401 10.9043C318.921 10.9043 322 15.2775 322 23.0664V41.2503L311.772 41.2524Z" fill="#FCFCFC"/>
</svg>
