<svg width="208" height="59" viewBox="0 0 208 59" fill="none" xmlns="http://www.w3.org/2000/svg">
<path d="M22.5268 9.76709V26.4024H7.2486V9.76709H0V49.478H7.25057V33.3824H22.5248V49.478H29.7774V9.76709H22.5268ZM52.9851 36.6427C52.9851 38.2344 52.353 39.7609 51.2278 40.8864C50.1027 42.0119 48.5766 42.6442 46.9854 42.6442C45.3942 42.6442 43.8682 42.0119 42.7431 40.8864C41.6179 39.7609 40.9858 38.2344 40.9858 36.6427V19.6325H34.1081V36.6427C34.1081 40.0557 35.4635 43.3289 37.876 45.7422C40.2886 48.1555 43.5608 49.5113 46.9727 49.5113C50.3846 49.5113 53.6567 48.1555 56.0693 45.7422C58.4819 43.3289 59.8373 40.0557 59.8373 36.6427V19.6325H52.9851V36.6427ZM103.947 21.3853C103.947 17.8973 106.253 16.7922 108.778 16.7922C110.815 16.7922 113.503 18.3429 115.263 20.2233L119.767 14.9118C117.518 11.8693 112.958 9.76709 109.224 9.76709C101.761 9.76709 96.3648 14.1384 96.3648 21.3853C96.3648 34.831 112.793 30.5637 112.793 38.0894C112.793 40.4095 110.54 42.4587 107.962 42.4587C103.894 42.4587 102.575 40.4703 100.707 38.3661L95.7075 43.5658C98.906 47.4915 102.85 49.4858 107.573 49.4858C114.663 49.4858 120.365 45.0615 120.365 38.1443C120.365 23.2187 103.935 27.8569 103.935 21.3853M205.581 43.1339C201.517 43.1339 200.361 41.3752 200.361 38.6822V26.7577H206.679V20.716H200.361V12.7448L193.387 15.8755V40.1641C193.387 46.3766 197.673 49.5074 203.548 49.5074C204.47 49.5231 205.392 49.4485 206.299 49.2876L208 43.0221C207.233 43.0751 206.352 43.1281 205.581 43.1281M79.1656 19.8307C75.7591 19.8307 73.3808 20.82 71.0811 23.0754V10.0046H64.1935V34.2323C64.1935 43.3008 70.7475 49.5152 78.1138 49.5152C86.2847 49.5152 93.4725 43.1909 93.4725 34.6759C93.4725 26.267 86.8577 19.8366 79.1656 19.8366M79.1224 42.5804C78.0959 42.5804 77.0795 42.3782 76.1311 41.9852C75.1827 41.5923 74.321 41.0163 73.5952 40.2903C72.8693 39.5642 72.2936 38.7022 71.9007 37.7536C71.5079 36.8049 71.3057 35.7881 71.3057 34.7613C71.3057 33.7345 71.5079 32.7177 71.9007 31.7691C72.2936 30.8204 72.8693 29.9585 73.5952 29.2324C74.321 28.5063 75.1827 27.9304 76.1311 27.5374C77.0795 27.1445 78.0959 26.9422 79.1224 26.9422C81.1955 26.9422 83.1837 27.766 84.6496 29.2324C86.1156 30.6987 86.9391 32.6876 86.9391 34.7613C86.9391 36.8351 86.1156 38.8239 84.6496 40.2903C83.1837 41.7566 81.1955 42.5804 79.1224 42.5804ZM153.967 34.3148C153.967 25.7841 146.795 19.4755 138.608 19.4755C131.244 19.4755 124.688 25.6879 124.688 34.7584V58.9998H131.576V45.9114C133.872 48.1628 136.254 49.156 139.656 49.156C147.348 49.156 153.965 42.7257 153.965 34.3148M147.445 34.2284C147.445 36.3022 146.621 38.291 145.155 39.7573C143.689 41.2237 141.701 42.0475 139.628 42.0475C137.555 42.0475 135.567 41.2237 134.101 39.7573C132.635 38.291 131.811 36.3022 131.811 34.2284C131.811 32.1546 132.635 30.1658 134.101 28.6995C135.567 27.2331 137.555 26.4093 139.628 26.4093C141.701 26.4093 143.689 27.2331 145.155 28.6995C146.621 30.1658 147.445 32.1546 147.445 34.2284Z" fill="#FCFCFC"/>
<path d="M176.223 19.1419V12.2189C177.138 11.7913 177.912 11.1127 178.456 10.262C179 9.41133 179.291 8.4236 179.296 7.41376V7.25477C179.296 4.31046 176.91 1.92361 173.967 1.92361H173.808C172.394 1.92361 171.039 2.48529 170.039 3.48507C169.04 4.48486 168.478 5.84086 168.478 7.25477V7.41376C168.483 8.4236 168.774 9.41133 169.318 10.262C169.862 11.1127 170.636 11.7913 171.551 12.2189V19.1419C168.922 19.5445 166.447 20.6347 164.375 22.3021L145.394 7.51387C145.529 7.02512 145.6 6.52262 145.608 6.01816C145.61 4.83005 145.26 3.66793 144.602 2.67881C143.944 1.68969 143.008 0.917997 141.911 0.461352C140.815 0.00470679 139.607 -0.116379 138.442 0.113412C137.277 0.343202 136.206 0.913545 135.365 1.7523C134.523 2.59105 133.95 3.66053 133.716 4.82545C133.483 5.99038 133.6 7.19842 134.053 8.29677C134.505 9.39511 135.274 10.3344 136.261 10.9959C137.247 11.6573 138.408 12.0112 139.596 12.0128C140.635 12.0079 141.654 11.7304 142.553 11.208L161.243 25.7568C159.564 28.2941 158.688 31.2786 158.73 34.3212C158.771 37.3638 159.727 40.3234 161.475 42.8142L155.79 48.5026C155.331 48.3556 154.852 48.2775 154.369 48.2709C153.394 48.2717 152.442 48.5616 151.631 49.1039C150.821 49.6462 150.19 50.4166 149.817 51.3178C149.444 52.219 149.347 53.2104 149.537 54.1669C149.728 55.1234 150.197 56.002 150.887 56.6916C151.576 57.3812 152.454 57.8509 153.41 58.0414C154.367 58.2318 155.358 58.1345 156.259 57.7616C157.16 57.3887 157.93 56.7571 158.472 55.9465C159.014 55.136 159.304 54.1828 159.305 53.2076C159.298 52.725 159.22 52.2461 159.073 51.7864L164.697 46.1589C166.531 47.5712 168.663 48.5448 170.932 49.0053C173.2 49.4657 175.543 49.4007 177.782 48.8152C180.022 48.2297 182.097 47.1393 183.85 45.6275C185.603 44.1157 186.986 42.2227 187.895 40.0933C188.803 37.964 189.212 35.6549 189.091 33.343C188.97 31.031 188.321 28.7776 187.194 26.7552C186.067 24.7329 184.493 22.9954 182.591 21.6757C180.69 20.3561 178.511 19.4893 176.223 19.1419ZM173.892 41.9112C172.853 41.9398 171.818 41.7598 170.85 41.3817C169.881 41.0036 168.998 40.4351 168.253 39.7098C167.507 38.9846 166.915 38.1173 166.511 37.1591C166.106 36.201 165.898 35.1715 165.898 34.1314C165.898 33.0913 166.106 32.0618 166.511 31.1037C166.915 30.1455 167.507 29.2782 168.253 28.553C168.998 27.8277 169.881 27.2592 170.85 26.8811C171.818 26.503 172.853 26.3229 173.892 26.3516C175.906 26.4221 177.815 27.2719 179.215 28.7221C180.616 30.1722 181.399 32.1094 181.4 34.1256C181.401 36.1419 180.62 38.0799 179.221 39.5314C177.822 40.983 175.914 41.8347 173.9 41.9073" fill="#FCFCFC"/>
</svg>
