<svg width="381" height="59" viewBox="0 0 381 59" fill="none" xmlns="http://www.w3.org/2000/svg">
<path d="M45.9937 15.6138H48.0987L54.0978 9.60845L54.3925 7.05881C50.9558 4.02232 46.8025 1.91298 42.325 0.930038C37.8475 -0.0529018 33.1936 0.123011 28.8029 1.44116C24.4122 2.75931 20.4297 5.17617 17.2315 8.46345C14.0333 11.7507 11.7251 15.7999 10.5249 20.2284C11.1932 19.9542 11.9336 19.9098 12.6299 20.102L24.6282 18.1213C24.6282 18.1213 25.2387 17.1099 25.5544 17.1731C28.1253 14.3467 31.6781 12.6109 35.4857 12.321C39.2932 12.0312 43.0675 13.2091 46.0358 15.6138H45.9937Z" fill="#FCFCFC"/>
<path d="M62.6439 20.2287C61.265 15.1454 58.4338 10.5757 54.4977 7.08008L46.0778 15.5086C47.8326 16.944 49.2389 18.7594 50.1906 20.8181C51.1423 22.8768 51.6146 25.1249 51.5718 27.3929V28.889C52.5559 28.889 53.5303 29.083 54.4395 29.46C55.3487 29.837 56.1748 30.3896 56.8706 31.0861C57.5665 31.7827 58.1185 32.6096 58.4951 33.5198C58.8716 34.4299 59.0655 35.4053 59.0655 36.3904C59.0655 37.3755 58.8716 38.351 58.4951 39.2611C58.1185 40.1712 57.5665 40.9982 56.8706 41.6947C56.1748 42.3913 55.3487 42.9439 54.4395 43.3208C53.5303 43.6978 52.5559 43.8919 51.5718 43.8919H36.5844L35.0898 45.409V54.4065L36.5844 55.9026H51.5718C55.757 55.9352 59.8415 54.6185 63.2211 52.1472C66.6008 49.6759 69.0961 46.1813 70.3379 42.1803C71.5796 38.1793 71.502 33.8845 70.1163 29.9312C68.7307 25.9778 66.1107 22.5759 62.6439 20.2287Z" fill="#FCFCFC"/>
<path d="M21.5759 55.8183H36.5633V43.8076H21.5759C20.5081 43.8074 19.4528 43.5774 18.4816 43.1333L16.3766 43.7865L10.3353 49.7919L9.80908 51.899C13.1969 54.4598 17.3307 55.8367 21.5759 55.8183Z" fill="#FCFCFC"/>
<path d="M21.5761 16.8571C17.5152 16.8813 13.5633 18.1747 10.2723 20.5564C6.98138 22.9381 4.51571 26.2892 3.21971 30.1418C1.92371 33.9943 1.8621 38.1559 3.04349 42.0452C4.22487 45.9345 6.59025 49.3573 9.80925 51.8356L18.5028 43.1331C17.398 42.6335 16.4308 41.873 15.6842 40.9169C14.9376 39.9608 14.4339 38.8377 14.2162 37.6439C13.9986 36.4501 14.0735 35.2212 14.4346 34.0627C14.7956 32.9043 15.4321 31.8508 16.2893 30.9927C17.1465 30.1346 18.1989 29.4975 19.3562 29.1361C20.5134 28.7746 21.741 28.6996 22.9336 28.9175C24.1262 29.1354 25.2482 29.6396 26.2033 30.387C27.1584 31.1344 27.9181 32.1026 28.4172 33.2085L37.1107 24.506C35.2861 22.1181 32.9343 20.1851 30.2393 18.8582C27.5444 17.5312 24.5793 16.8463 21.5761 16.8571Z" fill="#FCFCFC"/>
<path d="M111.122 47.4319C108.541 47.4648 105.981 46.976 103.593 45.9948C101.206 45.0136 99.0414 43.5601 97.2287 41.7215C95.3589 39.9609 93.8751 37.8305 92.8713 35.4655C91.8676 33.1004 91.3658 30.5524 91.3979 27.9829C91.3671 25.4137 91.8694 22.866 92.8731 20.5012C93.8768 18.1363 95.3599 16.0057 97.2287 14.2444C99.0326 12.3867 101.193 10.9138 103.581 9.91429C105.969 8.9148 108.534 8.40944 111.122 8.42866C113.587 8.39576 116.035 8.85384 118.323 9.77627C120.61 10.6987 122.692 12.0671 124.446 13.8019L120.699 17.6158C118.133 15.1335 114.689 13.7697 111.122 13.8229C109.271 13.8002 107.435 14.1631 105.732 14.8886C104.029 15.6141 102.495 16.6864 101.228 18.0372C99.9114 19.3449 98.8727 20.9057 98.1745 22.6259C97.4763 24.346 97.1331 26.1898 97.1656 28.0462C97.1501 29.8814 97.5016 31.7011 98.1993 33.3983C98.897 35.0955 99.9268 36.6359 101.228 37.9287C103.835 40.5291 107.353 42.0084 111.032 42.0517C114.712 42.0949 118.264 40.6988 120.931 38.1604C122.582 36.3504 123.595 34.0485 123.815 31.6072H111.185V26.2129H129.056C129.232 27.2993 129.302 28.4001 129.266 29.5001C129.378 31.7767 129.026 34.0522 128.234 36.189C127.442 38.3258 126.225 40.2796 124.657 41.9322C122.913 43.7493 120.807 45.1782 118.474 46.1258C116.142 47.0734 113.637 47.5185 111.122 47.4319ZM152.674 43.8497C150.275 46.1511 147.081 47.436 143.759 47.436C140.437 47.436 137.243 46.1511 134.845 43.8497C133.651 42.6911 132.711 41.2967 132.084 39.7551C131.457 38.2134 131.157 36.5582 131.203 34.8944C131.158 33.2307 131.459 31.5758 132.086 30.0344C132.712 28.493 133.652 27.0984 134.845 25.939C137.245 23.6424 140.438 22.3609 143.759 22.3609C147.08 22.3609 150.273 23.6424 152.674 25.939C153.866 27.0984 154.806 28.493 155.433 30.0344C156.059 31.5758 156.36 33.2307 156.315 34.8944C156.359 36.5597 156.055 38.2159 155.425 39.7576C154.794 41.2994 153.85 42.6929 152.653 43.8497H152.674ZM138.781 40.3308C139.419 41.0128 140.19 41.5564 141.046 41.9281C141.902 42.2997 142.826 42.4915 143.759 42.4915C144.692 42.4915 145.616 42.2997 146.472 41.9281C147.328 41.5564 148.099 41.0128 148.737 40.3308C149.433 39.6111 149.978 38.7594 150.339 37.8257C150.701 36.892 150.872 35.8953 150.842 34.8944C150.873 33.8901 150.703 32.8897 150.342 31.9524C149.98 31.0151 149.435 30.1597 148.737 29.4369C148.091 28.7619 147.315 28.2248 146.456 27.8578C145.597 27.4909 144.672 27.3018 143.738 27.3018C142.804 27.3018 141.88 27.4909 141.02 27.8578C140.161 28.2248 139.385 28.7619 138.739 29.4369C138.042 30.1597 137.496 31.0151 137.135 31.9524C136.773 32.8897 136.603 33.8901 136.634 34.8944C136.607 35.8968 136.782 36.8944 137.147 37.8281C137.512 38.7619 138.06 39.6129 138.76 40.3308H138.781ZM180.08 43.8497C177.682 46.1511 174.488 47.436 171.166 47.436C167.844 47.436 164.65 46.1511 162.251 43.8497C161.058 42.6911 160.117 41.2967 159.491 39.7551C158.864 38.2134 158.564 36.5582 158.61 34.8944C158.565 33.2307 158.866 31.5758 159.492 30.0344C160.119 28.493 161.059 27.0984 162.251 25.939C164.65 23.6376 167.844 22.3528 171.166 22.3528C174.488 22.3528 177.682 23.6376 180.08 25.939C181.273 27.0984 182.213 28.493 182.839 30.0344C183.466 31.5758 183.767 33.2307 183.722 34.8944C183.768 36.5582 183.468 38.2134 182.841 39.7551C182.214 41.2967 181.274 42.6911 180.08 43.8497ZM166.188 40.3308C166.826 41.0128 167.597 41.5564 168.453 41.9281C169.309 42.2997 170.233 42.4915 171.166 42.4915C172.099 42.4915 173.023 42.2997 173.879 41.9281C174.735 41.5564 175.506 41.0128 176.144 40.3308C176.84 39.6111 177.384 38.7594 177.746 37.8257C178.107 36.892 178.278 35.8953 178.249 34.8944C178.28 33.8901 178.11 32.8897 177.748 31.9524C177.387 31.0151 176.841 30.1597 176.144 29.4369C175.498 28.7619 174.722 28.2248 173.862 27.8578C173.003 27.4909 172.079 27.3018 171.145 27.3018C170.211 27.3018 169.286 27.4909 168.427 27.8578C167.568 28.2248 166.792 28.7619 166.146 29.4369C165.448 30.1597 164.903 31.0151 164.541 31.9524C164.18 32.8897 164.01 33.8901 164.041 34.8944C164.014 35.8968 164.188 36.8944 164.554 37.8281C164.919 38.7619 165.467 39.6129 166.167 40.3308H166.188ZM198.099 58.684C195.576 58.7643 193.102 57.9759 191.089 56.4504C189.303 55.1058 187.895 53.3196 187.006 51.2669L191.805 49.2651C192.327 50.4918 193.145 51.5704 194.184 52.4047C195.296 53.3023 196.692 53.7731 198.12 53.7322C199.026 53.7874 199.933 53.6465 200.779 53.3193C201.625 52.992 202.391 52.486 203.025 51.8358C204.293 50.3045 204.919 48.3409 204.772 46.3572V44.5451H204.582C203.78 45.4988 202.767 46.2524 201.624 46.7461C200.48 47.2399 199.237 47.4602 197.994 47.3897C196.413 47.3945 194.849 47.0712 193.4 46.4401C191.951 45.809 190.648 44.8839 189.574 43.7233C188.408 42.5719 187.489 41.1958 186.87 39.6782C186.251 38.1607 185.947 36.5332 185.974 34.8944C185.945 33.2459 186.249 31.6086 186.868 30.0806C187.486 28.5526 188.407 27.1654 189.574 26.0022C190.645 24.8367 191.947 23.9071 193.396 23.2722C194.846 22.6374 196.412 22.3113 197.994 22.3147C199.333 22.3124 200.656 22.6074 201.867 23.1787C202.915 23.6367 203.849 24.3202 204.603 25.1804H204.793V23.1787H210.013V45.6197C210.151 47.395 209.925 49.1796 209.349 50.8643C208.774 52.5491 207.861 54.0986 206.666 55.4179C205.528 56.5075 204.184 57.3579 202.713 57.9188C201.241 58.4798 199.673 58.74 198.099 58.684ZM198.478 42.5012C199.377 42.5209 200.269 42.3424 201.091 41.9782C201.913 41.6141 202.645 41.0732 203.235 40.394C204.534 38.9041 205.219 36.9759 205.151 34.9997C205.229 32.9902 204.544 31.0255 203.235 29.5001C202.646 28.8198 201.914 28.2781 201.092 27.9138C200.27 27.5496 199.377 27.3717 198.478 27.3929C197.554 27.374 196.638 27.5521 195.788 27.9154C194.939 28.2787 194.177 28.8189 193.552 29.5001C192.16 30.9707 191.403 32.9319 191.447 34.9576C191.426 35.9512 191.601 36.9393 191.962 37.865C192.323 38.7907 192.864 39.6359 193.552 40.3519C194.174 41.0396 194.935 41.587 195.784 41.9576C196.633 42.3282 197.551 42.5135 198.478 42.5012ZM219.296 9.84044V46.6733H213.802V9.84044H219.296ZM234.368 47.4319C232.722 47.4742 231.086 47.176 229.561 46.556C228.036 45.936 226.656 45.0075 225.506 43.8287C224.339 42.6584 223.422 41.2631 222.81 39.7272C222.199 38.1914 221.906 36.5472 221.948 34.8944C221.886 33.2375 222.158 31.5851 222.747 30.0356C223.337 28.4862 224.232 27.0715 225.379 25.8758C226.461 24.7347 227.768 23.8323 229.218 23.2263C230.668 22.6203 232.228 22.3242 233.799 22.3569C235.244 22.3416 236.676 22.6212 238.009 23.1787C239.21 23.6638 240.304 24.3796 241.23 25.2858C242.025 26.054 242.731 26.9092 243.335 27.8354C243.823 28.6174 244.239 29.4427 244.577 30.3008L245.145 31.7337L228.305 38.6662C228.815 39.8375 229.667 40.8269 230.749 41.504C231.831 42.1811 233.093 42.514 234.368 42.459C235.608 42.4624 236.828 42.1439 237.909 41.5345C238.99 40.9252 239.895 40.0458 240.535 38.9822L244.745 41.8269C243.671 43.3655 242.296 44.6702 240.704 45.6619C238.81 46.8595 236.607 47.4749 234.368 47.4319ZM227.337 34.5151L238.536 29.8583C238.19 29.0372 237.574 28.3601 236.788 27.9408C235.909 27.4438 234.914 27.1893 233.905 27.2033C232.191 27.2477 230.565 27.9671 229.379 29.2051C228.669 29.8851 228.118 30.7137 227.765 31.6316C227.412 32.5495 227.266 33.5341 227.337 34.5151Z" fill="#FCFCFC"/>
<path d="M273.92 47.4318C271.583 47.4722 269.263 47.0395 267.098 46.1598C264.932 45.28 262.967 43.9714 261.319 42.3124C259.672 40.6533 258.376 38.6782 257.51 36.5054C256.644 34.3327 256.226 32.0072 256.28 29.6686C256.226 27.33 256.644 25.0045 257.51 22.8317C258.376 20.659 259.672 18.6839 261.319 17.0248C262.967 15.3658 264.932 14.0572 267.098 13.1774C269.263 12.2977 271.583 11.865 273.92 11.9054C276.285 11.8314 278.636 12.2933 280.797 13.2565C282.959 14.2198 284.875 15.6596 286.402 17.4682L283.371 20.4182C282.25 19.0062 280.811 17.8791 279.173 17.1285C277.534 16.3779 275.742 16.025 273.941 16.0986C272.208 16.0595 270.484 16.3716 268.875 17.0162C267.265 17.6607 265.802 18.6244 264.574 19.8493C263.297 21.1347 262.299 22.6705 261.644 24.3603C260.988 26.0501 260.688 27.8574 260.764 29.6686C260.688 31.4798 260.988 33.2871 261.644 34.9769C262.299 36.6667 263.297 38.2025 264.574 39.4879C265.802 40.7128 267.265 41.6765 268.875 42.321C270.484 42.9656 272.208 43.2777 273.941 43.2386C275.953 43.2612 277.944 42.8296 279.766 41.976C281.588 41.1223 283.194 39.8686 284.466 38.3079L287.497 41.3422C285.91 43.2419 283.917 44.7612 281.666 45.7882C279.24 46.9097 276.592 47.4714 273.92 47.4318Z" fill="#FCFCFC"/>
<path d="M295.643 46.6732H291.286V12.6428H295.643V46.6732Z" fill="#FCFCFC"/>
<path d="M302.758 26.1919C305.041 23.9221 308.129 22.6482 311.346 22.6482C314.564 22.6482 317.652 23.9221 319.935 26.1919C321.051 27.3719 321.924 28.7614 322.502 30.2802C323.08 31.799 323.352 33.4173 323.303 35.0419C323.352 36.6665 323.08 38.2847 322.502 39.8036C321.924 41.3224 321.051 42.7118 319.935 43.8919C317.652 46.1617 314.564 47.4356 311.346 47.4356C308.129 47.4356 305.041 46.1617 302.758 43.8919C301.642 42.7118 300.769 41.3224 300.191 39.8036C299.613 38.2847 299.341 36.6665 299.39 35.0419C299.341 33.4173 299.613 31.799 300.191 30.2802C300.769 28.7614 301.642 27.3719 302.758 26.1919ZM306 41.1526C306.686 41.8789 307.514 42.4574 308.431 42.8528C309.349 43.2482 310.337 43.4521 311.336 43.4521C312.335 43.4521 313.323 43.2482 314.241 42.8528C315.158 42.4574 315.985 41.8789 316.672 41.1526C317.434 40.3345 318.025 39.3729 318.412 38.3238C318.798 37.2747 318.973 36.1591 318.924 35.0419C318.973 33.9247 318.798 32.809 318.412 31.7599C318.025 30.7108 317.434 29.7492 316.672 28.9312C315.985 28.2049 315.158 27.6264 314.241 27.231C313.323 26.8356 312.335 26.6317 311.336 26.6317C310.337 26.6317 309.349 26.8356 308.431 27.231C307.514 27.6264 306.686 28.2049 306 28.9312C305.238 29.7492 304.647 30.7108 304.26 31.7599C303.873 32.809 303.699 33.9247 303.747 35.0419C303.705 36.157 303.884 37.2696 304.274 38.3149C304.664 39.3603 305.258 40.3177 306.021 41.1315L306 41.1526Z" fill="#FCFCFC"/>
<path d="M347.447 46.6733H343.237V43.4493H343.111C342.361 44.6738 341.301 45.6772 340.037 46.3572C338.726 47.1178 337.237 47.5177 335.722 47.5161C334.492 47.6004 333.258 47.4053 332.114 46.9456C330.969 46.4859 329.943 45.7733 329.112 44.8611C327.518 42.8422 326.717 40.3087 326.86 37.739V23.4104H331.217V36.9383C331.217 41.279 333.133 43.4493 336.964 43.4493C337.815 43.4759 338.66 43.2985 339.429 42.932C340.198 42.5655 340.869 42.0204 341.384 41.3422C342.514 39.9094 343.116 38.131 343.09 36.3061V23.4104H347.447V46.6733Z" fill="#FCFCFC"/>
<path d="M362.245 47.4318C360.767 47.4367 359.305 47.1209 357.96 46.5061C356.616 45.8914 355.42 44.9923 354.456 43.8707C352.274 41.4578 351.105 38.2954 351.194 35.0417C351.105 31.7881 352.274 28.6257 354.456 26.2128C355.42 25.0912 356.616 24.1921 357.96 23.5774C359.305 22.9626 360.767 22.6468 362.245 22.6518C363.901 22.6256 365.537 23.0169 367.002 23.7896C368.29 24.4382 369.38 25.4205 370.159 26.6343H370.349L370.159 23.4103V12.6428H374.517V46.6732H370.307V43.4493H370.117C369.338 44.663 368.247 45.6453 366.96 46.2939C365.507 47.0598 363.887 47.4509 362.245 47.4318ZM362.96 43.4493C363.945 43.4636 364.922 43.2681 365.826 42.8758C366.729 42.4834 367.539 41.9032 368.202 41.1735C369.682 39.4864 370.438 37.2833 370.307 35.0417C370.438 32.8002 369.682 30.5971 368.202 28.91C367.535 28.1764 366.722 27.5903 365.816 27.1892C364.91 26.7882 363.93 26.581 362.939 26.581C361.949 26.581 360.969 26.7882 360.062 27.1892C359.156 27.5903 358.344 28.1764 357.677 28.91C356.942 29.7398 356.377 30.7067 356.016 31.7553C355.655 32.8039 355.504 33.9136 355.572 35.0207C355.504 36.1278 355.655 37.2374 356.016 38.2861C356.377 39.3347 356.942 40.3016 357.677 41.1314C358.34 41.8741 359.155 42.4654 360.067 42.8653C360.979 43.2652 361.965 43.4643 362.96 43.4493Z" fill="#FCFCFC"/>
</svg>
