<svg width="198" height="59" viewBox="0 0 198 59" fill="none" xmlns="http://www.w3.org/2000/svg">
<path d="M128.215 13.6453C119.513 13.6864 112.425 20.7153 112.465 29.467C112.505 38.2187 119.664 45.1815 128.365 45.1422C137.067 45.1029 144.157 38.0723 144.115 29.3241C144.074 20.576 136.916 13.6078 128.211 13.6489L128.215 13.6453ZM128.335 38.7239C125.868 38.7382 123.497 37.7866 121.744 36.0816C119.991 34.3767 119.019 32.0539 118.992 29.6294C118.964 27.205 119.945 24.8751 121.68 23.1522C123.415 21.4294 125.779 20.4742 128.246 20.4475C130.713 20.4207 133.083 21.3848 134.836 23.0898C136.589 24.7948 137.561 27.1175 137.588 29.542C137.614 34.407 133.283 38.7007 128.335 38.7257V38.7239ZM163.468 21.0634C158.917 21.0848 155.373 24.7947 155.395 29.267L155.468 44.2371L148.543 44.2692L148.403 14.5201L155.328 14.488L155.351 19.1531C155.351 19.1531 158.294 14.4755 164.231 14.4487L166.211 14.438L166.244 21.0473L163.468 21.0634ZM94.3893 14.7737L99.6321 35.1658L105.075 14.7237L112 14.6933L103.432 44.4995L96.7073 44.5299L91.2684 23.7521L86.0256 44.5781L79.2987 44.6084L70.2556 14.9004L76.9807 14.8701L83.0119 35.2586L87.8622 14.8201L94.3893 14.7737ZM186.446 27.9601C191.179 25.2179 194.521 20.1457 194.494 14.313L187.569 14.3452C187.594 19.4012 183.456 23.504 178.511 23.5218L177.521 23.5254L177.412 0L170.487 0.0321354L170.7 44.1656L177.621 44.1353L177.556 30.1383L178.346 30.1347C179.138 30.1311 179.932 30.5168 180.133 31.0988L189.889 44.0782L198 44.0425L186.446 27.9601Z" fill="#FCFCFC"/>
<path d="M54.2259 13.9881C46.7106 14.0238 40.9955 18.9103 38.8574 26.6961C35.2696 21.2687 32.4702 15.0611 30.8643 9.81934L22.9529 9.85504L23.051 30.4632C23.0597 32.4226 22.2764 34.3051 20.8733 35.6972C19.4702 37.0892 17.5621 37.8767 15.5684 37.8866C13.5747 37.8951 11.6591 37.1253 10.2427 35.7464C8.82631 34.3674 8.02499 32.4922 8.0149 30.5328L7.91499 9.92467L0 9.96038L0.0980978 30.5685C0.13988 39.1203 7.09206 45.8974 15.6011 45.8563C24.1101 45.8153 31.0023 38.9792 30.9624 30.4257L30.9442 26.9264C32.5392 30.0276 34.5338 33.3233 36.7265 36.2316L31.8888 59L39.9982 58.9643L43.4861 42.4214C46.6597 44.3531 50.2076 45.5011 54.3785 45.4814C63.0837 45.4404 70.174 38.4115 70.1286 29.467C70.0955 25.3459 68.4048 21.4051 65.4258 18.5047C62.4467 15.6044 58.4211 13.9801 54.2277 13.9863L54.2259 13.9881ZM54.3386 37.5135C51.174 37.5278 48.004 36.1816 45.4226 34.0535L46.1983 30.9416V30.7631C46.7796 27.4531 48.5272 21.8079 54.4639 21.7829C56.5571 21.7795 58.5671 22.5887 60.0562 24.0345C61.5453 25.4803 62.3932 27.4456 62.4152 29.5027C62.2372 33.9749 58.4968 37.492 54.3404 37.5117L54.3386 37.5135Z" fill="#FCFCFC"/>
</svg>
