<svg width="98" height="59" viewBox="0 0 98 59" fill="none" xmlns="http://www.w3.org/2000/svg">
<g clip-path="url(#clip0_2364_85952)">
<path d="M27.8524 21.5254C27.8524 22.7248 27.9814 23.6974 28.207 24.4105C28.4649 25.1237 28.7873 25.9017 29.2386 26.7446C29.3998 27.0039 29.4642 27.2633 29.4642 27.4902C29.4642 27.8144 29.2708 28.1386 28.8517 28.4627L26.8208 29.8243C26.5307 30.0188 26.2406 30.116 25.9827 30.116C25.6603 30.116 25.3379 29.9539 25.0156 29.6622C24.5642 29.1759 24.1774 28.6572 23.855 28.1386C23.5327 27.5875 23.2103 26.9715 22.8557 26.2259C20.3412 29.2083 17.182 30.6995 13.3781 30.6995C10.6702 30.6995 8.5103 29.9215 6.93069 28.3655C5.35109 26.8094 4.54517 24.7347 4.54517 22.1413C4.54517 19.3858 5.51227 17.149 7.47872 15.4633C9.44517 13.7776 12.0564 12.9347 15.3767 12.9347C16.4728 12.9347 17.6011 13.032 18.7938 13.1941C19.9866 13.3561 21.2116 13.6155 22.5011 13.9072V11.5408C22.5011 9.07702 21.9853 7.35889 20.986 6.35394C19.9544 5.349 18.2136 4.86273 15.7313 4.86273C14.6031 4.86273 13.4425 4.9924 12.2498 5.28416C11.057 5.57592 9.89648 5.93251 8.76819 6.38636C8.2524 6.61328 7.86556 6.74295 7.6399 6.80779C7.41425 6.87262 7.25306 6.90504 7.12411 6.90504C6.6728 6.90504 6.44714 6.58087 6.44714 5.9001V4.31163C6.44714 3.79295 6.51161 3.40394 6.6728 3.17702C6.83398 2.9501 7.12411 2.72317 7.57543 2.49625C8.70372 1.91273 10.0577 1.42647 11.6373 1.03746C13.2169 0.61603 14.8932 0.421525 16.6662 0.421525C20.5024 0.421525 23.307 1.2968 25.1123 3.04735C26.8853 4.7979 27.7879 7.45614 27.7879 11.0221V21.5254H27.8524ZM14.7642 26.4528C15.8281 26.4528 16.9241 26.2583 18.0846 25.8693C19.2452 25.4803 20.2767 24.7671 21.1471 23.7946C21.6629 23.1787 22.0498 22.4979 22.2432 21.7199C22.4366 20.9419 22.5656 20.0017 22.5656 18.8995V17.538C21.6307 17.3111 20.6313 17.1166 19.5998 16.9869C18.5682 16.8572 17.5689 16.7924 16.5695 16.7924C14.4096 16.7924 12.83 17.2138 11.7662 18.0891C10.7024 18.9644 10.1866 20.1963 10.1866 21.8171C10.1866 23.3408 10.5735 24.4754 11.3794 25.2534C12.1531 26.0638 13.2814 26.4528 14.7642 26.4528ZM40.6504 29.9539C40.0702 29.9539 39.6833 29.8567 39.4254 29.6298C39.1675 29.4353 38.9419 28.9814 38.7485 28.3655L31.1728 3.30669C30.9794 2.65834 30.8827 2.23691 30.8827 2.00999C30.8827 1.4913 31.1406 1.19955 31.6564 1.19955H34.8156C35.4281 1.19955 35.8471 1.2968 36.0728 1.52372C36.3307 1.71823 36.5241 2.17207 36.7175 2.78801L42.1333 24.2484L47.1623 2.78801C47.3235 2.13966 47.5169 1.71823 47.7748 1.52372C48.0327 1.32922 48.484 1.19955 49.0642 1.19955H51.6432C52.2557 1.19955 52.6748 1.2968 52.9327 1.52372C53.1906 1.71823 53.4162 2.17207 53.5452 2.78801L58.6386 24.5078L64.2156 2.78801C64.409 2.13966 64.6346 1.71823 64.8603 1.52372C65.1182 1.32922 65.5373 1.19955 66.1175 1.19955H69.1156C69.6313 1.19955 69.9215 1.45889 69.9215 2.00999C69.9215 2.17207 69.8892 2.33416 69.857 2.52867C69.8248 2.72317 69.7603 2.98251 69.6314 3.33911L61.8623 28.3979C61.6688 29.0463 61.4432 29.4677 61.1853 29.6622C60.9274 29.8567 60.5083 29.9864 59.9603 29.9864H57.1879C56.5754 29.9864 56.1563 29.8891 55.8985 29.6622C55.6406 29.4353 55.4149 29.0138 55.286 28.3655L50.2892 7.45614L45.3248 28.3331C45.1636 28.9814 44.9702 29.4028 44.7123 29.6298C44.4544 29.8567 44.0031 29.9539 43.4228 29.9539H40.6504ZM82.0748 30.8292C80.3985 30.8292 78.7221 30.6347 77.1103 30.2457C75.4985 29.8567 74.2412 29.4353 73.4031 28.949C72.8873 28.6572 72.5327 28.3331 72.4037 28.0413C72.2748 27.7495 72.2103 27.4254 72.2103 27.1336V25.4803C72.2103 24.7995 72.4682 24.4754 72.9518 24.4754C73.1452 24.4754 73.3386 24.5078 73.532 24.5726C73.7254 24.6375 74.0156 24.7671 74.3379 24.8968C75.434 25.3831 76.6267 25.7721 77.884 26.0314C79.1735 26.2908 80.4307 26.4204 81.7202 26.4204C83.7511 26.4204 85.3307 26.0638 86.4268 25.3506C87.5228 24.6375 88.1031 23.6001 88.1031 22.271C88.1031 21.3633 87.8129 20.6177 87.2327 20.0017C86.6524 19.3858 85.5564 18.8347 83.9767 18.316L79.3024 16.8572C76.9491 16.1116 75.2083 15.0094 74.1445 13.5506C73.0807 12.1243 72.5327 10.5358 72.5327 8.8501C72.5327 7.48856 72.8228 6.28911 73.4031 5.25174C73.9833 4.21438 74.757 3.30669 75.7241 2.5935C76.6912 1.8479 77.7873 1.2968 79.0768 0.907788C80.3662 0.518777 81.7202 0.356689 83.1386 0.356689C83.8478 0.356689 84.5892 0.389107 85.2985 0.48636C86.0399 0.583613 86.7169 0.713283 87.3939 0.842953C88.0386 1.00504 88.6511 1.16713 89.2314 1.36163C89.8116 1.55614 90.2629 1.75065 90.5853 1.94515C91.0366 2.20449 91.359 2.46383 91.5524 2.75559C91.7458 3.01493 91.8425 3.37152 91.8425 3.82537V5.349C91.8425 6.02977 91.5846 6.38636 91.1011 6.38636C90.8432 6.38636 90.4241 6.25669 89.8761 5.99735C88.0386 5.15449 85.9754 4.73306 83.6866 4.73306C81.8491 4.73306 80.3985 5.02482 79.3991 5.64076C78.3998 6.25669 77.884 7.1968 77.884 8.52592C77.884 9.43361 78.2064 10.2116 78.8511 10.8276C79.4958 11.4435 80.6886 12.0594 82.3971 12.6105L86.9748 14.0693C89.2958 14.8149 90.9721 15.8523 91.9715 17.1814C92.9708 18.5105 93.4544 20.0342 93.4544 21.7199C93.4544 23.1138 93.1642 24.3781 92.6162 25.4803C92.036 26.5825 91.2623 27.555 90.2629 28.3331C89.2636 29.1435 88.0708 29.727 86.6846 30.1484C85.234 30.6023 83.7189 30.8292 82.0748 30.8292Z" fill="#FCFCFC"/>
<path fill-rule="evenodd" clip-rule="evenodd" d="M88.1677 46.5841C77.5617 54.4616 62.1525 58.6434 48.9032 58.6434C30.3348 58.6434 13.6038 51.7385 0.966998 40.2627C-0.0323443 39.355 0.870287 38.1231 2.06305 38.8363C15.7315 46.811 32.5913 51.6412 50.0315 51.6412C61.7979 51.6412 74.7249 49.1775 86.6203 44.1204C88.3933 43.3099 89.9085 45.2874 88.1677 46.5841Z" fill="#FCFCFC"/>
<path fill-rule="evenodd" clip-rule="evenodd" d="M92.5842 41.5271C91.2303 39.7765 83.6224 40.6842 80.173 41.1056C79.1415 41.2353 78.9803 40.3276 79.9151 39.6468C85.9757 35.3677 95.9369 36.5996 97.0974 38.026C98.2579 39.4848 96.775 49.5018 91.1013 54.2996C90.2309 55.0452 89.3928 54.6562 89.7796 53.6837C91.0691 50.4743 93.9382 43.2452 92.5842 41.5271Z" fill="#FCFCFC"/>
</g>
<defs>
<clipPath id="clip0_2364_85952">
<rect width="98" height="59" fill="white"/>
</clipPath>
</defs>
</svg>
