<svg width="210" height="59" viewBox="0 0 210 59" fill="none" xmlns="http://www.w3.org/2000/svg">
<path d="M45.4809 11.1746C45.4401 10.8815 45.1805 10.719 44.9651 10.7013C44.7513 10.6836 40.5623 10.6208 40.5623 10.6208C40.5623 10.6208 37.0589 7.26547 36.7128 6.92414C36.3668 6.58282 35.6909 6.68586 35.4281 6.76314C35.4249 6.76476 34.7703 6.9644 33.6683 7.30089C33.4839 6.71163 33.2128 5.98711 32.8259 5.25937C31.5788 2.91195 29.752 1.67062 27.5448 1.66741C27.5416 1.66741 27.5399 1.66741 27.5367 1.66741C27.3832 1.66741 27.2314 1.6819 27.078 1.69477C27.0127 1.61749 26.9474 1.54183 26.8788 1.46776C25.9172 0.453445 24.6848 -0.040834 23.2074 0.00263674C20.357 0.0831382 17.5182 2.11338 15.2164 5.71984C13.597 8.25724 12.3644 11.4451 12.0151 13.9133C8.74194 14.9131 6.4532 15.6118 6.40259 15.628C4.75052 16.1399 4.69829 16.1898 4.4828 17.7258C4.32281 18.8866 0 51.8536 0 51.8536L36.2264 58.0329L51.9276 54.1833C51.9276 54.1833 45.5217 11.4677 45.4809 11.1746ZM31.8546 7.85474C31.0204 8.10913 30.0719 8.39893 29.0434 8.71289C29.0223 7.28962 28.8508 5.30929 28.1783 3.59782C30.3413 4.00195 31.4057 6.41538 31.8546 7.85474ZM27.1481 9.29249C25.2496 9.87207 23.1779 10.5048 21.0998 11.1392C21.6842 8.93185 22.7927 6.73416 24.1542 5.29319C24.6603 4.75705 25.3687 4.15973 26.2078 3.8184C26.9963 5.44131 27.1677 7.73882 27.1481 9.29249ZM23.2644 1.87348C23.9338 1.859 24.497 2.0039 24.9786 2.31625C24.2081 2.71071 23.4636 3.27743 22.765 4.01643C20.9545 5.93237 19.5669 8.90609 19.0135 11.7752C17.2879 12.3016 15.6 12.8185 14.0458 13.2918C15.027 8.77568 18.8649 1.99907 23.2644 1.87348Z" fill="#FCFCFC"/>
<path d="M44.9667 10.703C44.7529 10.6853 40.5639 10.6225 40.5639 10.6225C40.5639 10.6225 37.0606 7.26722 36.7146 6.9259C36.5856 6.7987 36.4109 6.73268 36.228 6.70532L36.2297 58.0314L51.9293 54.1835C51.9293 54.1835 45.5234 11.4694 45.4826 11.1764C45.4417 10.8833 45.1806 10.7207 44.9667 10.703Z" fill="#FCFCFC"/>
<path d="M27.5251 18.6644L25.7017 25.3927C25.7017 25.3927 23.6676 24.4798 21.2565 24.6295C17.7205 24.8501 17.6829 27.0494 17.7189 27.6017C17.9115 30.6108 25.9384 31.2677 26.389 38.3164C26.7432 43.8613 23.4064 47.6545 18.5988 47.954C12.8279 48.313 9.65112 44.9561 9.65112 44.9561L10.8739 39.8266C10.8739 39.8266 14.0719 42.2062 16.6316 42.0468C18.3033 41.9422 18.9007 40.601 18.8403 39.6527C18.589 35.7274 12.0525 35.9593 11.6395 29.5095C11.2918 24.0822 14.9061 18.5823 22.8807 18.0864C25.9531 17.8916 27.5251 18.6644 27.5251 18.6644Z" fill="#121112"/>
<path d="M72.6036 32.7534C70.7983 31.7872 69.8704 30.9728 69.8704 29.8534C69.8704 28.4289 71.1593 27.5139 73.1719 27.5139C75.5148 27.5139 77.6068 28.48 77.6068 28.48L79.2567 23.4945C79.2567 23.4945 77.7396 22.324 73.2739 22.324C67.0595 22.324 62.7526 25.8339 62.7526 30.7683C62.7526 33.5661 64.7636 35.7028 67.4465 37.2278C69.613 38.4478 70.3869 39.3134 70.3869 40.5845C70.3869 41.9068 69.3038 42.9751 67.2927 42.9751C64.2956 42.9751 61.4653 41.4484 61.4653 41.4484L59.7118 46.4339C59.7118 46.4339 62.3267 48.1634 66.726 48.1634C73.1217 48.1634 77.7121 45.0606 77.7121 39.465C77.7104 36.4661 75.3902 34.3294 72.6036 32.7534Z" fill="#FCFCFC"/>
<path d="M98.0832 22.2747C94.9369 22.2747 92.4612 23.7502 90.5538 25.9875L90.4501 25.9363L93.1833 11.8469H86.0654L79.1548 47.7069H86.2726L88.6448 35.4491C89.5725 30.8197 91.9964 27.9724 94.2665 27.9724C95.8646 27.9724 96.4848 29.0407 96.4848 30.5674C96.4848 31.5335 96.3811 32.704 96.1755 33.6702L93.4941 47.7085H100.612L103.397 33.2118C103.707 31.6852 103.913 29.8552 103.913 28.6335C103.91 24.6652 101.796 22.2747 98.0832 22.2747Z" fill="#FCFCFC"/>
<path d="M120.002 22.2749C111.439 22.2749 105.768 29.905 105.768 38.3988C105.768 43.8411 109.171 48.215 115.567 48.215C123.974 48.215 129.647 40.7894 129.647 32.0911C129.647 27.056 126.655 22.2749 120.002 22.2749ZM116.495 42.8254C114.07 42.8254 113.039 40.791 113.039 38.2471C113.039 34.2293 115.154 27.6677 119.022 27.6677C121.549 27.6677 122.373 29.8043 122.373 31.8899C122.373 36.2127 120.261 42.8254 116.495 42.8254Z" fill="#FCFCFC"/>
<path d="M147.853 22.2749C143.048 22.2749 140.322 26.446 140.322 26.446H140.22L140.633 22.6821H134.341C134.032 25.226 133.463 29.0905 132.897 31.9905L127.946 57.6766H135.063L137.022 47.2999H137.178C137.178 47.2999 138.638 48.215 141.356 48.215C149.71 48.215 155.177 39.7722 155.177 31.2256C155.177 26.4972 153.061 22.2749 147.853 22.2749ZM141.045 42.926C139.197 42.926 138.104 41.9088 138.104 41.9088L139.29 35.3472C140.116 30.9733 142.436 28.0733 144.913 28.0733C147.079 28.0733 147.749 30.0566 147.749 31.9394C147.749 36.4665 145.016 42.926 141.045 42.926Z" fill="#FCFCFC"/>
<path d="M165.337 12.2029C163.068 12.2029 161.263 13.9834 161.263 16.2718C161.263 18.3574 162.604 19.7818 164.615 19.7818H164.718C166.936 19.7818 168.844 18.3062 168.896 15.7129C168.896 13.6784 167.503 12.2029 165.337 12.2029Z" fill="#FCFCFC"/>
<path d="M155.384 47.7067H162.5L167.349 22.835H160.179L155.384 47.7067Z" fill="#FCFCFC"/>
<path d="M185.452 22.7838H180.5L180.757 21.6133C181.17 19.2227 182.615 17.0861 184.987 17.0861C186.253 17.0861 187.256 17.4422 187.256 17.4422L188.648 11.9489C188.648 11.9489 187.41 11.3389 184.779 11.3389C182.252 11.3389 179.727 12.051 177.817 13.6783C175.393 15.7128 174.258 18.6622 173.691 21.6133L173.486 22.7838H170.184L169.153 28.0744H172.455L168.69 47.7083H175.808L179.573 28.0744H184.472L185.452 22.7838Z" fill="#FCFCFC"/>
<path d="M202.574 22.8351C202.574 22.8351 198.125 33.8904 196.127 39.9251H196.023C195.888 37.9817 194.27 22.8351 194.27 22.8351H186.791L191.073 45.6723C191.177 46.1802 191.125 46.4868 190.918 46.8428C190.092 48.419 188.7 49.9457 187.05 51.0651C185.709 52.0312 184.213 52.6412 183.028 53.0484L184.987 59.0001C186.432 58.6951 189.422 57.5246 191.949 55.1851C195.199 52.1845 198.189 47.5551 201.284 41.2473L210 22.8335H202.574V22.8351Z" fill="#FCFCFC"/>
</svg>
