<svg width="355" height="52" viewBox="0 0 355 52" fill="none" xmlns="http://www.w3.org/2000/svg">
<path d="M35.2808 51.7874H15.2991L32.9971 4.55059C34.139 1.90533 36.6129 0.0158691 39.6577 0.0158691H51.2661C53.1692 0.0158691 54.6916 1.71638 54.6916 3.60585C54.6916 3.98375 54.6916 4.36165 54.5013 4.92849L38.8965 49.52V49.709C38.5159 50.6537 37.945 51.2205 36.9935 51.7874H36.6129H36.4226H36.2323H35.8517H35.2808Z" fill="#FCFCFC"/>
<path d="M32.9972 51.7875H12.6349C11.3028 51.7875 10.161 50.8428 9.59007 49.7091L9.39978 49.1423L0.265284 22.1228C-0.495923 20.4223 0.455586 18.3439 2.1683 17.5881C2.54891 17.3992 2.92951 17.3992 3.31011 17.3992H14.3476C17.2022 17.3992 19.8664 19.2886 21.0082 21.9339L32.236 49.5202C32.6166 50.8428 33.7584 51.7876 35.0905 51.9765L32.9972 51.7875Z" fill="#FCFCFC"/>
<path d="M76.0053 51.9762C70.4865 52.3541 65.5387 48.1972 65.3484 42.7178C65.3484 42.3399 65.3484 42.1509 65.3484 41.773C65.3484 35.7267 69.3447 31.381 75.815 30.2473L87.4234 28.1688V27.791C86.8525 24.7678 84.1883 22.5004 80.9532 22.6894C77.718 22.8783 74.8635 24.201 72.9605 26.6573L67.4417 20.9889C71.0574 16.6431 76.1956 14.1868 81.9047 14.1868C90.6586 14.1868 97.1288 20.2331 97.1288 28.5467V51.2204H87.6137V46.6857H86.8525C83.998 49.8978 80.0016 51.7872 76.0053 51.9762ZM78.8598 36.1046C76.1956 36.4825 74.6732 37.9941 74.6732 40.0725C74.6732 42.5288 76.3859 44.0404 79.2404 44.0404C83.6174 44.0404 87.2331 40.4504 87.2331 36.1046C87.2331 35.9157 87.2331 35.7267 87.2331 35.5378V34.4041L78.8598 36.1046Z" fill="#FCFCFC"/>
<path d="M118.823 51.788C108.357 51.788 99.7932 43.2853 99.7932 32.8932C99.7932 22.5012 108.357 13.9985 118.823 13.9985C122.629 13.9985 126.435 15.1322 129.48 17.3996L125.484 25.3354C123.581 23.8238 121.297 23.068 118.823 22.8791C113.305 23.257 109.118 27.9806 109.499 33.4601C109.879 38.5617 113.876 42.5296 118.823 42.7185C121.297 42.7185 123.581 41.7738 125.484 40.2622L129.48 48.198C126.435 50.6543 122.629 51.788 118.823 51.788Z" fill="#FCFCFC"/>
<path d="M149.272 51.788C138.805 51.788 130.241 43.2853 130.241 32.8932C130.241 22.5012 138.805 13.9985 149.272 13.9985C153.078 13.9985 156.884 15.1322 160.119 17.3996L156.123 25.3354C154.22 23.8238 151.936 23.068 149.462 22.8791C143.943 23.257 139.757 27.9806 140.137 33.4601C140.518 38.5617 144.514 42.5296 149.462 42.7185C151.936 42.7185 154.22 41.7738 156.123 40.2622L160.119 48.3869C156.884 50.8432 153.078 51.9769 149.272 51.788Z" fill="#FCFCFC"/>
<path d="M179.91 51.7875C169.444 51.7875 161.07 43.2849 161.07 32.8928C161.07 27.9802 162.973 23.2565 166.399 19.6665C173.25 12.4865 184.477 12.2976 191.709 18.9107C195.325 22.3118 197.418 27.2244 197.228 32.137C197.228 33.6486 197.037 34.9712 196.847 36.2938H170.585V36.6717C171.918 40.8286 175.914 43.4738 180.291 43.2849C182.955 43.2849 185.429 42.5291 187.713 41.0175L194.563 46.308C190.567 49.898 185.239 51.9765 179.91 51.7875ZM179.149 22.6897C175.153 22.8786 171.918 25.5239 170.966 29.3028V29.6807H187.713V29.3028C186.571 25.3349 183.145 22.6897 179.149 22.6897Z" fill="#FCFCFC"/>
<path d="M337.48 51.7875C327.014 51.7875 318.64 43.2849 318.64 32.8928C318.64 27.9802 320.543 23.2565 324.159 19.6665C331.01 12.4865 342.238 12.2976 349.469 18.9107C353.085 22.3118 355.178 27.2244 354.988 32.137C354.988 33.6486 354.798 34.9712 354.607 36.2938H328.346V36.6717C329.678 40.8286 333.674 43.4738 338.051 43.2849C340.715 43.2849 343.189 42.5291 345.473 41.0175L352.324 46.308C348.137 49.898 342.999 51.9765 337.48 51.7875ZM336.719 22.6897C332.913 22.8786 329.488 25.5239 328.346 29.3028L328.155 29.6807H344.902L344.712 29.3028C343.951 25.5239 340.715 22.8786 336.719 22.6897Z" fill="#FCFCFC"/>
<path d="M263.833 51.7872V14.1868H273.349V51.7872H263.833Z" fill="#FCFCFC"/>
<path d="M280.77 51.7873C280.009 51.7873 279.248 51.0315 279.248 50.2757V1.52738C279.248 0.771591 280.009 0.0158111 280.77 0.0158111H296.185C300.562 -0.173136 304.748 1.33844 308.174 4.17264C310.838 6.62895 312.551 10.03 312.551 13.62C312.551 18.1547 309.886 22.5005 305.7 24.201L305.129 24.39L305.7 24.5789C311.219 26.2795 315.025 31.381 315.025 37.0494C315.025 45.741 307.793 51.7873 297.707 51.7873H280.77ZM289.143 42.5289H297.326C301.703 42.5289 304.558 39.8837 304.558 35.9158C304.558 31.9479 301.703 29.3026 297.326 29.3026H289.143V42.5289ZM289.143 20.0442H295.804C298.849 20.4221 301.513 18.1547 301.894 15.1316C302.274 12.1084 299.991 9.46316 296.946 9.08526C296.565 9.08526 296.185 9.08526 295.804 9.08526H289.143V20.0442Z" fill="#FCFCFC"/>
<path d="M214.545 51.7877C211.31 51.9766 208.075 51.0319 205.22 49.3314C203.317 48.0087 201.985 46.3082 201.034 44.4187L208.836 40.8287C209.788 42.9072 212.071 44.2298 214.545 44.0408C217.209 44.0408 218.922 42.9072 218.922 40.8287C218.922 38.7503 217.78 37.8056 215.306 37.4277L210.739 36.294C204.459 34.9714 200.844 31.1924 200.844 25.9019C200.844 19.2888 206.553 14.1872 213.974 14.1872C217.4 13.9982 220.635 14.943 223.299 17.0214C225.012 18.344 226.344 20.2335 227.105 22.3119L219.303 25.713C218.732 23.2567 216.448 21.7451 213.974 21.934C211.881 21.7451 210.168 23.2566 209.788 25.1461C209.978 26.8466 211.12 28.1693 212.642 28.3582L217.59 29.4919C224.251 31.0035 228.057 34.7824 227.866 40.2619C227.676 45.7414 223.87 51.7877 214.545 51.7877Z" fill="#FCFCFC"/>
<path d="M244.613 51.7877C241.378 51.9766 238.143 51.0319 235.288 49.3314C233.385 48.0087 232.053 46.3082 231.102 44.4187L238.904 40.8287C239.855 42.9072 242.139 44.2298 244.613 44.0408C247.277 44.0408 248.99 42.9072 248.99 40.8287C248.99 38.7503 247.848 37.8056 245.374 37.4277L240.807 36.294C234.527 34.9714 231.102 31.1924 231.102 25.9019C231.102 19.2888 236.811 14.1872 244.232 14.1872C247.658 13.9982 250.893 14.943 253.557 17.0214C255.27 18.344 256.602 20.2335 257.363 22.3119L249.561 25.713C248.99 23.2567 246.706 21.7451 244.232 21.934C242.139 21.7451 240.426 23.2566 240.046 25.1461C240.236 26.8466 241.378 28.1693 242.9 28.3582L247.848 29.4919C254.509 31.0035 258.315 34.7824 258.315 40.2619C258.315 45.7414 253.938 51.7877 244.613 51.7877Z" fill="#FCFCFC"/>
<path d="M262.692 5.87353C262.501 8.89669 264.975 11.353 268.02 11.5419C271.065 11.7309 273.539 9.27458 273.729 6.25142C273.92 3.22827 271.446 0.771955 268.401 0.583008H268.21C265.356 0.771955 262.882 3.03933 262.692 5.87353Z" fill="#FCFCFC"/>
</svg>
