<svg width="167" height="66" viewBox="0 0 167 66" fill="none" xmlns="http://www.w3.org/2000/svg">
<path d="M160.625 55.79H159.694V55.2637H162.073V55.79H161.142V58.4216H160.625V55.79ZM162.694 55.2637H163.418L164.349 57.5795L165.279 55.2637H166.003V58.3163H165.486V55.6847L164.452 58.3163H164.142L163.107 55.6847V58.3163H162.59L162.694 55.2637Z" fill="#FCFCFC"/>
<path d="M113.565 55.7898C113.358 55.474 113.048 55.1583 112.634 54.9477C112.221 54.7372 111.807 54.6319 111.186 54.6319C110.876 54.6319 110.669 54.6319 110.359 54.7372C110.049 54.8425 109.842 54.9477 109.531 55.1583C109.325 55.3688 109.118 55.5793 108.911 55.7898C108.807 56.1056 108.704 56.4214 108.704 56.7372C108.704 57.1583 108.807 57.3688 108.911 57.6846C109.014 57.8951 109.221 58.1056 109.428 58.3162C109.635 58.5267 109.945 58.632 110.255 58.7372C110.566 58.8425 110.876 58.9477 111.186 59.053C111.6 59.1583 112.014 59.3688 112.427 59.4741C112.841 59.5793 113.151 59.7898 113.565 60.1056C113.875 60.3162 114.186 60.632 114.393 61.053C114.599 61.4741 114.703 61.8951 114.703 62.5267C114.703 63.1583 114.599 63.5793 114.393 64.0004C114.186 64.4214 113.875 64.7372 113.565 65.053C113.255 65.3688 112.841 65.5793 112.324 65.6846C111.91 65.7899 111.393 65.8951 110.979 65.8951C110.669 65.8951 110.255 65.8951 109.945 65.7899C109.635 65.6846 109.221 65.5793 108.911 65.4741C108.601 65.3688 108.29 65.1583 108.083 64.9478C107.773 64.7372 107.566 64.5267 107.359 64.2109L108.394 63.4741C108.601 63.8951 109.014 64.2109 109.428 64.5267C109.842 64.8425 110.359 64.9478 110.979 64.9478C111.29 64.9478 111.6 64.9478 111.91 64.8425C112.221 64.7372 112.531 64.632 112.738 64.4214C112.945 64.2109 113.151 64.0004 113.358 63.6846C113.565 63.3688 113.565 63.053 113.565 62.7372C113.565 62.3162 113.462 62.0004 113.358 61.6846C113.151 61.3688 112.945 61.1583 112.738 61.053C112.531 60.9477 112.221 60.7372 111.807 60.632C111.497 60.5267 111.083 60.4214 110.773 60.3162C110.359 60.2109 110.049 60.1056 109.635 59.8951C109.221 59.7899 108.911 59.5793 108.601 59.2635C108.29 59.053 108.083 58.7372 107.877 58.3162C107.67 58.0004 107.566 57.4741 107.566 56.9477C107.566 56.4214 107.67 55.8951 107.877 55.474C108.083 55.053 108.394 54.7372 108.704 54.4214C109.014 54.1056 109.428 54.0004 109.842 53.8951C110.255 53.7898 110.669 53.6846 111.083 53.6846C111.91 53.6846 112.531 53.7898 113.048 54.1056C113.565 54.4214 113.979 54.7372 114.289 55.053L113.565 55.7898Z" fill="#FCFCFC"/>
<path d="M120.391 58.842H118.219V63.3683C118.219 63.6841 118.219 63.8946 118.323 64.1052C118.426 64.3157 118.426 64.4209 118.53 64.5262C118.633 64.6315 118.737 64.7367 118.943 64.7367C119.047 64.7367 119.254 64.842 119.357 64.842C119.461 64.842 119.667 64.842 119.874 64.7367C120.081 64.7367 120.185 64.6315 120.391 64.5262V65.4736C120.185 65.5788 119.978 65.5788 119.771 65.6841C119.564 65.6841 119.357 65.7894 119.047 65.7894C118.84 65.7894 118.633 65.7894 118.426 65.6841C118.219 65.5788 118.013 65.4736 117.806 65.3683C117.599 65.263 117.495 65.0525 117.289 64.7367C117.185 64.4209 117.082 64.1052 117.082 63.6841V58.842H115.53V57.8946H117.082V55.6841H118.219V57.8946H120.391V58.842Z" fill="#FCFCFC"/>
<path d="M122.149 58.7369C122.149 58.4211 122.149 58.1053 122.149 57.8948H123.184C123.184 58.1053 123.184 58.3159 123.184 58.6317C123.184 58.8422 123.184 59.0527 123.184 59.2632C123.39 58.8422 123.701 58.4211 124.114 58.2106C124.528 57.8948 125.045 57.7896 125.562 57.7896C125.666 57.7896 125.873 57.7896 125.976 57.7896C126.08 57.7896 126.183 57.7895 126.286 57.8948L126.183 58.9474C126.08 58.9474 125.976 58.9474 125.873 58.8422C125.769 58.8422 125.562 58.8422 125.459 58.8422C125.149 58.8422 124.838 58.9474 124.632 59.0527C124.321 59.158 124.114 59.3685 123.908 59.579C123.701 59.7896 123.597 60.1053 123.39 60.5264C123.287 60.8422 123.184 61.3685 123.184 61.8948V65.7896H122.046V59.7896C122.149 59.3685 122.149 59.0527 122.149 58.7369Z" fill="#FCFCFC"/>
<path d="M132.182 60.5263C132.182 59.8947 131.975 59.3684 131.665 59.0526C131.355 58.7368 130.837 58.5263 130.113 58.5263C129.7 58.5263 129.286 58.6315 128.872 58.7368C128.459 58.9473 128.148 59.1579 127.838 59.3684L127.217 58.6315C127.528 58.3157 127.941 58 128.459 57.7894C128.976 57.5789 129.596 57.4736 130.217 57.4736C130.631 57.4736 131.044 57.5789 131.355 57.6842C131.665 57.7894 131.975 58 132.285 58.2105C132.596 58.421 132.803 58.7368 132.906 59.0526C133.009 59.3684 133.113 59.7894 133.113 60.3157V63.6842C133.113 64 133.113 64.3158 133.113 64.6315C133.113 64.9473 133.216 65.2631 133.216 65.4737H132.182C132.182 65.2631 132.079 65.0526 132.079 64.8421C132.079 64.6315 132.079 64.421 132.079 64.2105C131.768 64.7368 131.355 65.0526 130.941 65.3684C130.527 65.5789 130.01 65.6842 129.389 65.6842C129.079 65.6842 128.769 65.6842 128.459 65.5789C128.148 65.4737 127.838 65.3684 127.631 65.1579C127.424 64.9473 127.217 64.7368 127.011 64.421C126.804 64.1052 126.804 63.7894 126.804 63.3684C126.804 62.7368 126.907 62.3158 127.217 62C127.528 61.6842 127.941 61.3684 128.355 61.2631C128.872 61.0526 129.389 60.9473 130.01 60.9473C130.631 60.9473 131.355 60.8421 131.975 60.8421V60.5263H132.182ZM131.768 61.6842C131.355 61.6842 130.837 61.6842 130.424 61.7894C130.01 61.7894 129.596 61.8947 129.183 62C128.769 62.1052 128.459 62.3158 128.252 62.5263C128.045 62.7368 127.941 63.0526 127.941 63.3684C127.941 63.6842 127.941 63.8947 128.045 64.1052C128.148 64.3158 128.252 64.421 128.459 64.5263C128.665 64.6315 128.872 64.7368 129.079 64.7368C129.286 64.7368 129.493 64.8421 129.7 64.8421C130.113 64.8421 130.424 64.7368 130.734 64.6315C131.044 64.5263 131.251 64.3158 131.458 64.1052C131.665 63.8947 131.768 63.5789 131.975 63.2631C132.079 62.9473 132.182 62.6315 132.182 62.3158V61.7894H131.768V61.6842Z" fill="#FCFCFC"/>
<path d="M136.009 57.8948C136.009 58.1053 136.009 58.3159 136.009 58.6317C136.009 58.8422 136.009 59.0527 136.009 59.2632C136.216 58.8422 136.526 58.4211 137.043 58.2106C137.56 57.8948 138.077 57.7896 138.595 57.7896C139.525 57.7896 140.249 58.1053 140.767 58.6317C141.284 59.2632 141.491 60.0001 141.491 60.9475V65.6843H140.353V61.4738C140.353 61.0527 140.353 60.7369 140.249 60.4211C140.146 60.1053 140.043 59.7896 139.939 59.579C139.732 59.3685 139.525 59.158 139.319 59.0527C139.008 58.9474 138.698 58.8422 138.284 58.8422C137.974 58.8422 137.664 58.9474 137.457 59.0527C137.147 59.158 136.94 59.3685 136.733 59.579C136.526 59.7896 136.319 60.1053 136.216 60.5264C136.112 60.9475 136.009 61.3685 136.009 61.8948V65.8948H134.871V59.8948C134.871 59.6843 134.871 59.3685 134.871 59.0527C134.871 58.7369 134.871 58.4211 134.871 58.2106H136.009V57.8948Z" fill="#FCFCFC"/>
<path d="M149.972 64.2106C149.662 64.7369 149.248 65.0527 148.731 65.3685C148.214 65.6843 147.696 65.7895 147.179 65.7895C146.559 65.7895 146.042 65.6843 145.524 65.4737C145.007 65.2632 144.594 64.9474 144.283 64.6316C143.973 64.3158 143.663 63.7895 143.456 63.3685C143.249 62.8422 143.146 62.3158 143.146 61.7895C143.146 61.2632 143.249 60.7369 143.456 60.2106C143.663 59.6843 143.87 59.2632 144.283 58.9474C144.594 58.6316 145.007 58.3158 145.524 58.1053C146.042 57.8948 146.559 57.7895 147.179 57.7895C147.696 57.7895 148.214 57.8948 148.731 58.2106C149.248 58.4211 149.662 58.8421 149.972 59.3685V53.2632H151.11V65.6843H149.972V64.2106ZM144.283 61.6843C144.283 62.1053 144.387 62.5264 144.49 62.8422C144.594 63.2632 144.8 63.579 145.007 63.7895C145.214 64.1053 145.524 64.3158 145.938 64.4211C146.248 64.6316 146.662 64.6316 147.179 64.6316C147.593 64.6316 148.007 64.5264 148.317 64.4211C148.627 64.2106 148.938 64.0001 149.248 63.7895C149.558 63.4737 149.662 63.1579 149.868 62.8422C149.972 62.4211 150.075 62.1053 150.075 61.579C150.075 61.1579 149.972 60.7369 149.868 60.3158C149.765 59.8948 149.558 59.579 149.248 59.3685C148.938 59.0527 148.731 58.8421 148.317 58.7369C148.007 58.5264 147.593 58.5264 147.179 58.5264C146.766 58.5264 146.352 58.6316 145.938 58.7369C145.628 58.9474 145.318 59.1579 145.007 59.3685C144.8 59.6843 144.594 60 144.49 60.3158C144.387 60.8422 144.283 61.2632 144.283 61.6843Z" fill="#FCFCFC"/>
<path d="M157.419 59.6843C157.212 59.3685 157.005 59.158 156.695 58.9474C156.384 58.7369 155.971 58.6317 155.557 58.6317C155.35 58.6317 155.143 58.6317 154.936 58.7369C154.73 58.7369 154.523 58.8422 154.419 58.9474C154.316 59.0527 154.109 59.158 154.006 59.3685C153.902 59.4738 153.902 59.6843 153.902 59.8948C153.902 60.2106 154.006 60.5264 154.316 60.7369C154.626 60.9475 155.04 61.0527 155.66 61.2632C156.591 61.4738 157.212 61.6843 157.626 62.1053C158.039 62.4211 158.246 62.9475 158.246 63.579C158.246 64.0001 158.143 64.4211 158.039 64.7369C157.832 65.0527 157.626 65.2633 157.419 65.4738C157.108 65.6843 156.798 65.7896 156.488 65.8948C156.178 66.0001 155.764 66.0001 155.454 66.0001C154.833 66.0001 154.316 65.8948 153.799 65.6843C153.282 65.4738 152.868 65.0527 152.454 64.5264L153.282 63.8948C153.488 64.2106 153.799 64.5264 154.109 64.7369C154.523 64.9475 154.936 65.0527 155.35 65.0527C155.557 65.0527 155.764 65.0527 156.074 64.9475C156.281 64.9475 156.488 64.8422 156.591 64.7369C156.798 64.6317 156.902 64.5264 157.005 64.3159C157.108 64.1054 157.108 63.8948 157.108 63.6843C157.108 63.2632 156.902 62.9475 156.488 62.7369C156.074 62.5264 155.557 62.3159 154.833 62.2106C154.626 62.1053 154.316 62.1054 154.109 62.0001C153.902 61.8948 153.592 61.7896 153.385 61.6843C153.178 61.4738 152.971 61.3685 152.868 61.0527C152.764 60.8422 152.661 60.5264 152.661 60.1053C152.661 59.6843 152.764 59.3685 152.868 59.0527C152.971 58.7369 153.178 58.5264 153.488 58.3159C153.695 58.1053 154.006 58.0001 154.316 57.8948C154.626 57.7895 154.936 57.7896 155.35 57.7896C155.867 57.7896 156.384 57.8948 156.902 58.1053C157.419 58.3159 157.729 58.7369 158.039 59.158L157.419 59.6843Z" fill="#FCFCFC"/>
<path d="M96.6027 59.053C96.6027 59.5793 96.4993 60.1056 96.2924 60.5267C96.0856 61.053 95.8787 61.3688 95.5684 61.7899C95.2582 62.1056 94.9479 62.4214 94.5342 62.632C94.1204 62.8425 93.7067 62.9478 93.293 62.9478C92.9827 62.9478 92.6724 62.9478 92.3622 62.8425C92.1553 62.7372 91.845 62.7372 91.7416 62.632C91.5347 62.5267 91.4313 62.4214 91.3279 62.3162C91.2244 62.2109 91.121 62.0004 91.0176 61.8951L92.569 55.1583C92.569 55.053 92.569 54.9477 92.569 54.9477C92.569 54.8425 92.569 54.8425 92.569 54.7372C92.569 54.6319 92.569 54.5267 92.4656 54.4214C92.4656 54.3162 92.3621 54.3162 92.2587 54.2109C92.1553 54.2109 92.0519 54.1056 91.9484 54.1056C91.845 54.1056 91.7416 54.1056 91.5347 54.1056L91.6381 53.7898L93.8101 53.6846L93.9136 53.7898L92.9827 57.6846C93.293 57.3688 93.6033 57.1583 93.9136 57.053C94.2239 56.9477 94.4307 56.8425 94.741 56.8425C95.3616 56.8425 95.7753 57.053 96.0856 57.4741C96.4993 57.7898 96.6027 58.3162 96.6027 59.053ZM95.465 59.053C95.465 58.8425 95.465 58.632 95.3616 58.4214C95.3616 58.2109 95.2581 58.0004 95.1547 57.8951C95.0513 57.7898 94.9479 57.5793 94.741 57.5793C94.5341 57.5793 94.4307 57.4741 94.1204 57.4741C94.017 57.4741 93.8101 57.4741 93.7067 57.5793C93.6033 57.5793 93.4999 57.6846 93.293 57.7898C93.1896 57.8951 93.0862 57.8951 92.9827 58.0004C92.8793 58.1056 92.7759 58.2109 92.6724 58.3162L91.9484 61.7899C91.9484 61.8951 91.9484 62.0004 92.0519 62.0004C92.1553 62.0004 92.1553 62.2109 92.2587 62.2109C92.3621 62.3162 92.4656 62.4214 92.6724 62.4214C92.7759 62.4214 92.9827 62.5267 93.0861 62.5267C93.3964 62.5267 93.7067 62.4214 93.9136 62.2109C94.2239 62.0004 94.4307 61.7899 94.6376 61.4741C94.8444 61.1583 95.0513 60.7372 95.1547 60.3162C95.3616 60.0004 95.465 59.4741 95.465 59.053Z" fill="#FCFCFC"/>
<path d="M101.257 61.895C100.844 62.2108 100.533 62.4213 100.223 62.6319C99.9127 62.8424 99.499 62.8424 99.0853 62.8424C98.6715 62.8424 98.4647 62.7371 98.1544 62.5266C97.8441 62.3161 97.8441 62.0003 97.8441 61.6845C97.8441 61.5792 97.8441 61.474 97.8441 61.3687C97.8441 61.2634 97.9475 61.0529 97.9475 60.7371L98.3613 58.8424C98.3613 58.6318 98.4647 58.5266 98.4647 58.4213C98.4647 58.3161 98.4647 58.2108 98.4647 58.0003C98.4647 57.7897 98.4647 57.6845 98.3613 57.5792C98.2578 57.4739 98.1544 57.4739 97.9475 57.4739C97.8441 57.4739 97.7407 57.4739 97.6373 57.4739C97.5338 57.4739 97.4304 57.5792 97.327 57.5792L97.4304 57.1582C97.7407 57.0529 98.051 56.9476 98.2578 56.8424C98.4647 56.7371 98.6715 56.7371 98.775 56.7371C99.0853 56.7371 99.2921 56.8424 99.499 56.9476C99.6024 57.0529 99.7058 57.2634 99.7058 57.5792C99.7058 57.6845 99.7058 57.7897 99.7058 57.895C99.7058 58.0003 99.7058 58.1055 99.6024 58.2108L99.0853 60.4213C99.0853 60.6318 98.9818 60.7371 98.9818 60.8424C98.9818 60.9476 98.9818 61.0529 98.9818 61.1582C98.9818 61.474 99.0853 61.6845 99.1887 61.7897C99.2921 61.895 99.499 62.0003 99.7058 62.0003C100.016 62.0003 100.223 61.895 100.533 61.7897C100.844 61.6845 101.05 61.474 101.257 61.1582L102.188 56.7371L103.222 56.6318L103.326 56.7371L102.292 61.3687C102.188 62.0003 101.981 62.6319 101.774 63.1582C101.568 63.6845 101.257 64.0003 100.947 64.3161C100.637 64.6319 100.326 64.8424 99.9127 64.9476C99.499 65.0529 99.0853 65.1582 98.6715 65.1582C98.3613 65.1582 98.051 65.1582 97.8441 65.0529C97.6373 65.0529 97.5338 64.9476 97.4304 64.8424C97.327 64.7371 97.2235 64.6319 97.2235 64.5266C97.2235 64.4213 97.1201 64.3161 97.1201 64.2108C97.1201 64.0003 97.1201 63.895 97.2235 63.7897C97.327 63.6845 97.4304 63.5792 97.6373 63.5792C97.7407 63.5792 97.9475 63.5792 98.051 63.6845C98.1544 63.7897 98.2578 63.895 98.2578 64.0003C98.3613 64.1055 98.3613 64.2108 98.4647 64.3161C98.5681 64.4213 98.5681 64.5266 98.5681 64.6319H98.6715C98.8784 64.6319 99.0853 64.5266 99.3955 64.4213C99.6024 64.3161 99.9127 64.1055 100.12 63.895C100.326 63.6845 100.533 63.2634 100.74 62.9476C100.947 62.9476 101.154 62.4213 101.257 61.895Z" fill="#FCFCFC"/>
<path d="M8.27481 0.736816L7.75767 3.05261H7.34395C7.34395 2.94735 7.34395 2.73682 7.24052 2.52629C7.24052 2.31577 7.24052 2.10524 7.13709 1.89471C7.13709 1.78945 7.03367 1.57892 6.93024 1.47366C6.82681 1.3684 6.72338 1.26313 6.51652 1.26313C6.41309 1.26313 6.20624 1.26313 6.10281 1.26313C5.89595 1.26313 5.79252 1.26313 5.58567 1.26313H5.17195L3.72395 7.99999V8.10526V8.21052C3.72395 8.31578 3.72395 8.42105 3.82738 8.42105C3.82738 8.52631 3.93081 8.52631 4.03424 8.63157C4.13767 8.63157 4.24109 8.73684 4.44795 8.73684C4.65481 8.73684 4.86167 8.8421 4.9651 8.8421L4.75824 9.15789H0.827951L0.931379 8.73684C1.03481 8.73684 1.24167 8.73684 1.44852 8.73684C1.65538 8.73684 1.86224 8.63157 1.96567 8.63157C2.06909 8.63157 2.17252 8.52631 2.27595 8.42105C2.37938 8.31578 2.37938 8.21052 2.48281 8.10526L4.03424 1.26313H3.62052C3.51709 1.26313 3.31024 1.26313 3.20681 1.26313C2.99995 1.26313 2.89652 1.26313 2.68967 1.26313C2.58624 1.26313 2.37938 1.3684 2.27595 1.47366C2.06909 1.57892 1.86224 1.78945 1.75881 1.99998C1.55195 2.2105 1.44852 2.31577 1.24167 2.52629C1.13824 2.73682 1.03481 2.94735 0.931379 3.05261H0.621094L1.13824 0.736816H8.27481Z" fill="#FCFCFC"/>
<path d="M13.6531 8.52634L13.5496 8.94739C13.2394 9.05265 12.9291 9.15792 12.7222 9.26318C12.5154 9.36844 12.3085 9.36844 12.1016 9.36844C11.7914 9.36844 11.5845 9.26318 11.3776 9.15792C11.1708 8.94739 11.1708 8.84213 11.1708 8.52634C11.1708 8.42107 11.1708 8.31581 11.1708 8.21055C11.1708 8.10528 11.1708 8.00002 11.2742 7.78949L11.8948 5.57896C11.8948 5.36843 11.9982 5.26317 11.9982 5.15791C11.9982 5.05264 11.9982 4.94738 11.9982 4.84212C11.9982 4.52633 11.8948 4.3158 11.7914 4.21054C11.6879 4.10527 11.4811 4.00001 11.2742 4.00001C11.0674 4.00001 10.7571 4.10527 10.4468 4.21054C10.1365 4.3158 9.92964 4.52633 9.61935 4.84212L8.58507 9.15792H7.55078L9.30907 1.57895C9.30907 1.47369 9.30907 1.36842 9.30907 1.36842C9.30907 1.26316 9.30907 1.26316 9.30907 1.1579C9.30907 1.05263 9.30907 0.947371 9.20564 0.842107C9.20564 0.736844 9.10221 0.736844 8.99878 0.63158C8.89535 0.63158 8.79192 0.526317 8.6885 0.526317C8.58507 0.526317 8.48164 0.526317 8.27478 0.526317L8.37821 0.210527L10.6536 0L10.7571 0.105263L9.82621 4.21054C10.2399 3.89475 10.5502 3.68422 10.8605 3.47369C11.1708 3.26317 11.4811 3.26317 11.8948 3.26317C12.3085 3.26317 12.5154 3.36843 12.7222 3.57896C12.9291 3.78948 13.0325 4.10527 13.0325 4.42106C13.0325 4.52633 13.0325 4.63159 13.0325 4.84212C13.0325 5.05264 12.9291 5.15791 12.9291 5.36843L12.4119 7.26318C12.5154 7.36844 12.4119 7.4737 12.4119 7.68423C12.4119 7.89476 12.3085 8.00002 12.3085 8.10528C12.3085 8.31581 12.3085 8.52634 12.4119 8.52634C12.5154 8.6316 12.6188 8.6316 12.9291 8.6316C13.0325 8.6316 13.1359 8.6316 13.2394 8.6316C13.4462 8.52634 13.5496 8.52634 13.6531 8.52634Z" fill="#FCFCFC"/>
<path d="M19.3414 4.42088C19.3414 4.84193 19.238 5.15772 18.9277 5.47351C18.7209 5.7893 18.3072 5.99983 17.79 6.21035C17.4797 6.31562 17.066 6.42088 16.6523 6.52614C16.2386 6.63141 15.8249 6.63141 15.4112 6.73667C15.4112 7.36825 15.5146 7.78931 15.7214 8.21036C15.9283 8.52615 16.2386 8.73668 16.7557 8.73668C17.1694 8.73668 17.4797 8.63141 17.79 8.42089C18.1003 8.21036 18.4106 7.89457 18.6174 7.57878L18.9277 7.78931C18.6174 8.31562 18.2037 8.63141 17.79 8.9472C17.2729 9.26299 16.8592 9.36826 16.342 9.36826C15.618 9.36826 15.1009 9.15773 14.7906 8.73668C14.3769 8.31562 14.2734 7.7893 14.2734 7.05246C14.2734 6.52614 14.3769 6.10509 14.4803 5.57877C14.5837 5.15772 14.894 4.73667 15.2043 4.31561C15.5146 3.99982 15.8249 3.68403 16.2386 3.47351C16.7557 3.26298 17.1694 3.15771 17.6866 3.15771C18.2037 3.15771 18.6174 3.26298 18.9277 3.47351C19.238 3.7893 19.3414 4.10509 19.3414 4.42088ZM18.3072 4.31561C18.3072 4.21035 18.3072 3.99982 18.2037 3.99982C18.2037 3.89456 18.1003 3.89456 17.9969 3.7893C17.8934 3.7893 17.8934 3.68403 17.79 3.68403C17.6866 3.68403 17.5832 3.68403 17.5832 3.68403C17.066 3.68403 16.6523 3.89456 16.342 4.42088C15.9283 4.94719 15.618 5.57877 15.5146 6.31562C15.8249 6.31562 16.1352 6.21035 16.4454 6.10509C16.7557 5.99983 17.066 5.89456 17.2729 5.7893C17.5832 5.57877 17.79 5.36825 17.9969 5.15772C18.2037 4.94719 18.3072 4.6314 18.3072 4.31561Z" fill="#FCFCFC"/>
<path d="M0 43.1582L1.24114 43.0529C2.68914 42.9477 3.62 42.2108 3.62 40.7371V21.895C3.62 20.4213 2.68914 19.6844 1.24114 19.5792L0 19.4739V17.3687H13.4457V19.4739L12.2046 19.5792C10.7566 19.6844 9.82572 20.4213 9.82572 21.895V29.7897H20.8926V21.895C20.8926 20.4213 20.0651 19.6844 18.5137 19.5792L17.2726 19.4739V17.3687H30.7183V19.4739L29.4771 19.5792C28.0291 19.6844 27.0983 20.4213 27.0983 21.895V40.6319C27.0983 42.2108 28.0291 42.8424 29.4771 42.9477L30.7183 43.0529V45.1582H17.2726V43.0529L18.5137 42.9477C19.9617 42.8424 20.8926 42.1056 20.8926 40.6319V32.1055H9.82572V40.6319C9.82572 42.1056 10.7566 42.8424 12.2046 42.9477L13.4457 43.1582V45.2635H0V43.1582Z" fill="#FCFCFC"/>
<path d="M32.6836 40.2112C32.6836 36.1059 35.8899 34.948 39.5099 33.8954C42.923 32.8427 44.7847 32.0006 44.7847 29.1585C44.7847 27.1585 43.8539 26.2111 42.3025 26.2111C40.2339 26.2111 39.0962 27.8954 38.8893 31.5796H32.8904C33.4076 26.7375 36.9242 24.3164 42.199 24.3164C47.0602 24.3164 49.7493 26.5269 49.7493 30.6322V40.3164C49.7493 42.0007 50.2665 42.6322 51.4042 42.6322C51.7145 42.6322 52.2316 42.6322 52.6453 42.4217V44.2112C51.3007 45.1586 49.8527 45.6849 48.5082 45.6849C46.2327 45.6849 44.5779 44.3165 44.2676 41.7901C42.5093 44.4217 40.1305 45.6849 37.7516 45.6849C34.8556 45.6849 32.6836 43.5796 32.6836 40.2112ZM41.475 41.6849C42.6127 41.6849 43.4402 41.1586 43.8539 40.527V34.2112C43.2333 34.527 42.7162 34.7375 41.9922 35.0533L41.2682 35.3691C39.6133 36.0006 38.6825 36.6322 38.6825 38.8428C38.6825 41.1586 39.9236 41.6849 41.475 41.6849Z" fill="#FCFCFC"/>
<path d="M54.0928 43.263H54.7133C55.9545 43.0525 56.7819 42.6315 56.7819 41.1578V29.8946C56.7819 28.5262 55.9545 27.7893 54.7133 27.7893H54.1962V25.7893L62.6773 24.4209V41.0525C62.6773 42.3157 63.5048 43.0525 64.8493 43.1578H65.4699V45.2631H54.0928V43.263ZM59.5745 15.1577C61.8499 15.1577 63.1945 16.6314 63.1945 18.6314C63.1945 20.6314 61.8499 22.1051 59.5745 22.1051C57.2991 22.1051 55.9545 20.5262 55.9545 18.6314C55.9545 16.7367 57.2991 15.1577 59.5745 15.1577Z" fill="#FCFCFC"/>
<path d="M66.8145 43.2632H67.435C68.6762 43.0527 69.607 42.6316 69.607 41.0527V29.579C69.607 28.2105 68.7796 27.3684 67.435 27.3684H66.9179V25.3684L75.2956 24V30.6316C76.847 25.7895 78.6053 24 80.9842 24C81.6047 24 82.1219 24.1053 82.5356 24.3158V30.1053C81.7082 29.8948 80.7773 29.7895 79.9499 29.7895C78.295 29.7895 76.4333 30.3158 75.5025 31.579V41.0527C75.5025 42.5264 76.3299 43.1579 77.6745 43.2632H78.7087V45.2632H66.8145V43.2632Z" fill="#FCFCFC"/>
<path d="M91.2246 43.1582L92.4658 43.0529C93.9138 42.9477 94.8446 42.2108 94.8446 40.7371V21.895C94.8446 20.4213 93.9138 19.6844 92.4658 19.5792L91.2246 19.4739V17.3687H104.981V19.4739L103.326 19.5792C101.878 19.6844 100.947 20.4213 100.947 21.895V40.4213C100.947 41.895 101.878 42.9477 103.429 42.9477H105.291C109.428 42.9477 111.807 40.4213 112.634 35.7897H114.806L113.979 45.2635H91.2246V43.1582Z" fill="#FCFCFC"/>
<path d="M117.081 40.2112C117.081 36.1059 120.287 34.948 123.907 33.8954C127.32 32.8427 129.182 32.0006 129.182 29.1585C129.182 27.1585 128.251 26.2111 126.7 26.2111C124.631 26.2111 123.494 27.8954 123.287 31.5796H117.288C117.805 26.7375 121.322 24.3164 126.596 24.3164C131.458 24.3164 134.147 26.5269 134.147 30.6322V40.3164C134.147 42.0007 134.664 42.6322 135.802 42.6322C136.112 42.6322 136.629 42.6322 137.043 42.4217V44.2112C135.698 45.1586 134.25 45.6849 132.906 45.6849C130.63 45.6849 128.975 44.3165 128.665 41.7901C126.907 44.4217 124.528 45.6849 122.149 45.6849C119.253 45.6849 117.081 43.5796 117.081 40.2112ZM125.872 41.6849C127.01 41.6849 127.838 41.1586 128.251 40.527V34.2112C127.631 34.527 127.114 34.7375 126.39 35.0533L125.666 35.3691C124.011 36.0006 123.08 36.6322 123.08 38.8428C123.08 41.1586 124.321 41.6849 125.872 41.6849Z" fill="#FCFCFC"/>
<path d="M139.422 43.1581V20.5264C139.422 19.158 138.594 18.4212 137.25 18.4212H136.732V16.4212L145.214 15.0527V28.4212C146.144 26.2107 148.42 24.5264 151.626 24.5264C157.004 24.5264 159.694 29.2633 159.694 34.2107C159.694 39.8949 156.177 45.7897 148.42 45.7897C145.317 45.6844 142.007 44.6318 139.422 43.1581ZM148.523 43.8949C152.143 43.8949 153.591 39.8949 153.591 36.0002C153.591 31.6844 151.936 28.4212 148.73 28.4212C147.696 28.4212 146.144 28.8422 145.214 29.8949V42.4212C145.834 43.1581 147.075 43.8949 148.523 43.8949Z" fill="#FCFCFC"/>
</svg>
