<svg width="152" height="66" viewBox="0 0 152 66" fill="none" xmlns="http://www.w3.org/2000/svg">
<path d="M34.7079 22.5218C33.8494 21.8629 32.6948 21.5342 31.2507 21.5342H22.3643L19.2969 38.819H22.7393L23.8363 32.6213H28.0583C28.6191 32.6213 29.0616 32.7906 29.379 33.1404C29.6964 33.4853 29.9037 34.0093 30.0024 34.7203L30.601 38.8207H34.1734L33.55 34.4226C33.4299 33.635 33.2803 33.0184 33.0878 32.5709C32.8954 32.1283 32.5582 31.7329 32.0731 31.388V31.3359C33.0566 31.0072 33.8559 30.5289 34.4711 29.891C35.0895 29.2581 35.4694 28.5129 35.6207 27.6586L35.9217 25.9306C35.9678 25.6524 35.9941 25.3953 35.9941 25.1643C35.9924 24.0595 35.5648 23.1792 34.7079 22.5218ZM32.4448 26.0755L32.175 27.6798C32.0714 28.2721 31.7852 28.7553 31.3115 29.1247C30.8379 29.4957 30.2507 29.6795 29.5533 29.6795H24.3593L25.2853 24.4939H31.0731C31.5106 24.4939 31.8477 24.6078 32.0977 24.8389C32.3477 25.0699 32.4727 25.3791 32.4727 25.7744C32.4711 25.9111 32.4661 26.0087 32.4448 26.0755Z" fill="#FCFCFC"/>
<path d="M48.2589 27.232C47.4365 26.6088 46.3247 26.2964 44.925 26.2964H42.8033C41.3889 26.2964 40.2244 26.6462 39.3083 27.3459C38.3938 28.0455 37.8215 29.0283 37.5879 30.2991H40.8839C40.9464 29.9346 41.1389 29.645 41.4563 29.4351C41.7737 29.2187 42.1734 29.1113 42.657 29.1113H44.7786C45.1734 29.1113 45.4859 29.2089 45.7145 29.4091C45.9382 29.6043 46.0467 29.8663 46.0467 30.1966C46.0467 30.33 46.0418 30.4276 46.0253 30.4943L45.7967 31.7798C45.3806 31.5796 44.8971 31.4251 44.3411 31.3063C43.7803 31.194 43.2589 31.1371 42.7819 31.1371H41.2853C39.9695 31.1371 38.8889 31.4348 38.0517 32.0369C37.2096 32.6389 36.6899 33.472 36.4925 34.5426L36.3166 35.5042C36.2853 35.7711 36.2705 35.9663 36.2705 36.1014C36.2705 36.9865 36.634 37.696 37.3675 38.2215C38.1011 38.752 39.0994 39.0139 40.3626 39.0139H41.8083C42.3066 39.0139 42.8477 38.8642 43.4201 38.5713C43.9925 38.2736 44.5385 37.8619 45.0533 37.3364L44.7836 38.817H47.925L49.4217 30.4943C49.4727 30.247 49.499 30.0013 49.499 29.754C49.4957 28.698 49.0845 27.86 48.2589 27.232ZM45.2786 34.7167C44.9612 35.2406 44.5303 35.6637 43.9793 35.9777C43.4283 36.2869 42.856 36.4463 42.2589 36.4463H40.9333C40.4859 36.4463 40.1422 36.3487 39.8988 36.1486C39.6603 35.9533 39.5715 35.6962 39.6389 35.3822L39.7639 34.7444C39.8313 34.3945 39.9974 34.1277 40.2622 33.9422C40.527 33.7518 40.8708 33.6542 41.2869 33.6542H42.8313C43.3675 33.6542 43.8658 33.716 44.328 33.8299C44.7967 33.9438 45.1339 34.1033 45.3526 34.2985L45.2786 34.7167Z" fill="#FCFCFC"/>
<path d="M62.5468 21.5342L61.4761 27.4341C61.1587 27.0696 60.7541 26.7914 60.2541 26.5961C59.7557 26.396 59.2146 26.2984 58.6324 26.2984H57.2804C55.7508 26.2984 54.4778 26.7409 53.463 27.631C52.4499 28.521 51.7986 29.7658 51.519 31.3603L51.0206 34.1736C50.9532 34.5999 50.917 34.9253 50.917 35.1352C50.917 36.323 51.3232 37.2651 52.1291 37.9648C52.9351 38.6645 54.0058 39.0143 55.338 39.0143H56.7837C57.3659 39.0143 57.9383 38.8548 58.4942 38.531C59.0501 38.2121 59.5452 37.7647 59.981 37.1887L59.7064 38.819H62.8527L65.9464 21.5342H62.5468ZM60.4004 33.4577C60.1866 34.2501 59.8018 34.8879 59.2557 35.3809C58.7047 35.8739 58.0962 36.1213 57.4301 36.1213H56.0321C55.5337 36.1213 55.1373 35.9765 54.8462 35.6787C54.5551 35.3809 54.4087 34.979 54.4087 34.4698C54.4087 34.3721 54.4301 34.1866 54.4614 33.9247L54.8873 31.6044C55.0173 30.8478 55.3183 30.2571 55.7821 29.8243C56.2508 29.398 56.833 29.1865 57.5288 29.1865H59.0271C59.5633 29.1865 59.9893 29.3769 60.3166 29.7625C60.6389 30.153 60.8001 30.6672 60.8001 31.305L60.4004 33.4577Z" fill="#FCFCFC"/>
<path d="M72.3591 21.7292C72.0203 21.4314 71.5845 21.2866 71.0335 21.2866C70.8509 21.2866 70.675 21.3029 70.5088 21.3224C70.4628 21.3322 70.4151 21.3436 70.369 21.3533C70.2901 21.368 70.2177 21.3842 70.1454 21.4152C70.499 21.7861 70.8476 22.1604 71.1848 22.5411C71.0763 22.4533 70.4562 21.9554 69.6717 21.6153C69.5006 21.7032 69.3394 21.8268 69.198 21.9651C68.7408 22.4175 68.5121 23.0049 68.5121 23.7289C68.5121 24.2073 68.6783 24.5929 69.0105 24.8858C69.3427 25.1836 69.7852 25.3333 70.3361 25.3333C71.1009 25.3333 71.7095 25.1071 72.1667 24.6547C72.624 24.2024 72.8591 23.6101 72.8591 22.891C72.8575 22.4126 72.6864 22.027 72.3591 21.7292ZM68.4118 26.4918L66.2178 38.8172H69.6075L71.8082 26.4918H68.4118Z" fill="#FCFCFC"/>
<path d="M83.7884 26.4917L82.5154 33.6315C82.1831 34.3881 81.7621 34.9901 81.2572 35.4327C80.7473 35.8753 80.2111 36.1014 79.6453 36.1014H78.1996C77.8148 36.1014 77.5138 35.9778 77.3 35.7305C77.0812 35.4831 76.9727 35.1545 76.9727 34.7428C76.9727 34.6598 76.9941 34.5004 77.0253 34.2693L78.3986 26.4917H75.0023L73.629 34.2238C73.5615 34.681 73.5303 35.0308 73.5303 35.257C73.5303 36.3943 73.8839 37.3039 74.5911 37.9889C75.2983 38.6723 76.2605 39.0124 77.471 39.0124H79.073C79.5203 39.0124 80.0138 38.8529 80.5549 38.5291C81.096 38.2102 81.6157 37.7774 82.1141 37.2323L81.8378 38.8171H84.9841L87.1831 26.4917H83.7884Z" fill="#FCFCFC"/>
<path d="M100.608 30.2991C100.661 30.0518 100.681 29.8207 100.681 29.6043C100.681 28.602 100.286 27.7982 99.495 27.1962C98.7055 26.5941 97.6381 26.2964 96.2927 26.2964H94.3421C92.8964 26.2964 91.7105 26.5941 90.7846 27.1864C89.8652 27.7787 89.3076 28.6004 89.1267 29.6548L88.9754 30.4683C88.9441 30.6684 88.9277 30.8133 88.9277 30.9158C88.9277 31.5536 89.1777 32.1036 89.676 32.5559C90.1744 33.0082 90.8619 33.3174 91.7451 33.4817L95.9358 34.2221C96.2055 34.2676 96.4095 34.3669 96.5493 34.5052C96.6891 34.6435 96.7467 34.7981 96.7105 34.9624L96.6381 35.3789C96.5855 35.6458 96.4194 35.8476 96.1397 35.9859C95.8536 36.1242 95.4736 36.1974 94.9901 36.1974H92.7434C92.2961 36.1974 91.9424 36.09 91.6924 35.8736C91.4424 35.6621 91.3174 35.3643 91.3174 34.9884C91.3174 34.8697 91.3273 34.7834 91.3438 34.7151H88.005C87.9523 34.9624 87.9326 35.2081 87.9326 35.4554C87.9326 36.5407 88.3487 37.4047 89.1908 38.0474C90.0329 38.6901 91.1661 39.009 92.597 39.009H94.8437C96.2944 39.009 97.4687 38.7048 98.3749 38.093C99.2845 37.4861 99.8305 36.6318 100.013 35.5254L100.164 34.6354C100.181 34.5524 100.186 34.4287 100.186 34.2644C100.186 33.6721 99.9522 33.153 99.4785 32.7007C98.9999 32.2484 98.3503 31.9392 97.518 31.7749L93.125 30.9564C92.8602 30.9109 92.6678 30.8181 92.5526 30.6847C92.4326 30.5562 92.3914 30.4065 92.4276 30.2421L92.5 29.8468C92.5526 29.6157 92.7286 29.4351 93.0362 29.3066C93.3421 29.1731 93.7483 29.1064 94.2483 29.1064H96.1463C96.495 29.1064 96.7763 29.1943 96.9835 29.3684C97.1924 29.5376 97.296 29.7752 97.296 30.068C97.296 30.1705 97.2861 30.2438 97.2697 30.2942H100.608V30.2991Z" fill="#FCFCFC"/>
<path d="M117.305 24.4972L117.829 21.5342H104.752L101.68 38.819H105.127L106.323 32.1007H115.032L115.556 29.1377H106.847L107.67 24.4972H117.305Z" fill="#FCFCFC"/>
<path d="M120.95 35.7516C120.799 35.623 120.727 35.4229 120.727 35.1593C120.727 35.0096 120.732 34.8974 120.753 34.8144L123.125 21.5322H119.728L117.332 35.0096C117.265 35.3383 117.233 35.6881 117.233 36.0494C117.233 37.0061 117.534 37.7058 118.143 38.1483C118.751 38.5909 119.687 38.8171 120.95 38.8171H122.547L123.046 35.9517H121.699C121.35 35.9517 121.1 35.885 120.95 35.7516Z" fill="#FCFCFC"/>
<path d="M136.336 27.3979C135.477 26.6625 134.308 26.2964 132.831 26.2964H130.834C129.253 26.2964 127.943 26.7292 126.903 27.5932C125.864 28.4572 125.198 29.6613 124.916 31.2086L124.344 34.3929C124.293 34.6907 124.267 34.9689 124.267 35.2374C124.267 36.3894 124.709 37.3054 125.592 37.9888C126.471 38.6722 127.678 39.0123 129.211 39.0123H131.207C132.735 39.0123 134 38.6413 134.998 37.901C135.997 37.1606 136.615 36.1307 136.844 34.8143H133.5C133.433 35.2406 133.204 35.5807 132.814 35.828C132.424 36.0754 131.919 36.199 131.306 36.199H129.355C128.841 36.199 128.441 36.0656 128.15 35.8036C127.859 35.5417 127.712 35.1869 127.712 34.7444C127.712 34.5947 127.717 34.4775 127.734 34.3945L127.837 33.8023H137.072L137.546 31.1631C137.594 30.8653 137.618 30.5659 137.618 30.2731C137.62 29.0853 137.194 28.1285 136.336 27.3979ZM134.204 31.2347L134.178 31.3844H128.214L128.235 31.2607C128.37 30.6017 128.656 30.0729 129.099 29.6661C129.541 29.2642 130.051 29.0641 130.633 29.0641H132.683C133.181 29.0641 133.567 29.2089 133.842 29.5067C134.117 29.8045 134.253 30.2064 134.253 30.7156C134.252 30.8328 134.235 31.0036 134.204 31.2347Z" fill="#FCFCFC"/>
<path d="M151.998 26.4917H148.104L144.707 30.1495L142.612 26.4917H138.92L142.413 32.5674L136.574 38.8171H140.464L144.063 34.9641L146.257 38.8171H149.954L146.355 32.5674L151.998 26.4917Z" fill="#FCFCFC"/>
<path d="M81.8875 53.1634C81.6506 52.9551 81.5322 52.6704 81.5322 52.3075C81.5322 52.2441 81.5421 52.1367 81.5651 51.987L83.2937 42.2812H85.524L83.876 51.5542H90.0173L89.6769 53.4726H82.8727C82.4533 53.4758 82.126 53.3717 81.8875 53.1634Z" fill="#FCFCFC"/>
<path d="M91.5936 52.8915C91.018 52.418 90.7285 51.7915 90.7285 51.0121C90.7285 50.8201 90.7449 50.6281 90.7762 50.4361L91.115 48.565C91.2976 47.5626 91.7236 46.78 92.3913 46.2154C93.0591 45.6508 93.8995 45.3677 94.9127 45.3677H96.3518C97.3321 45.3677 98.1084 45.6004 98.6791 46.0625C99.2498 46.5262 99.536 47.1526 99.536 47.9418C99.536 48.0589 99.5146 48.2672 99.4718 48.565L99.133 50.4361C98.9488 51.4384 98.5294 52.2162 97.8715 52.7711C97.2136 53.3259 96.3633 53.6025 95.3173 53.6025H93.8781C92.9324 53.6025 92.1709 53.3666 91.5936 52.8915ZM95.4011 51.733C95.8107 51.733 96.1544 51.6028 96.4357 51.3408C96.7153 51.0805 96.8929 50.7209 96.9686 50.262L97.2432 48.7114C97.2646 48.5405 97.2761 48.4234 97.2761 48.3599C97.2761 48.0182 97.1824 47.7465 96.9932 47.5448C96.8041 47.343 96.5442 47.2405 96.2087 47.2405H94.8354C94.4258 47.2405 94.0837 47.3707 93.8091 47.6326C93.5344 47.8946 93.3601 48.2542 93.2844 48.7114L93.0097 50.262C92.9884 50.4329 92.9768 50.5549 92.9768 50.6298C92.9768 50.9715 93.0706 51.2399 93.2597 51.4368C93.4489 51.6337 93.7038 51.733 94.0278 51.733H95.4011Z" fill="#FCFCFC"/>
<path d="M100.838 56.0741C100.315 55.6429 100.054 55.0685 100.054 54.3559C100.054 54.2387 100.059 54.1476 100.07 54.0841H102.236C102.225 54.3184 102.292 54.5072 102.439 54.652C102.585 54.7952 102.781 54.8684 103.029 54.8684H104.483C104.85 54.8684 105.156 54.7382 105.404 54.4763C105.652 54.2143 105.814 53.8547 105.889 53.3975L106.019 52.6458C105.761 52.8801 105.48 53.0672 105.179 53.2055C104.878 53.3438 104.608 53.4138 104.371 53.4138H103.289C102.394 53.4138 101.68 53.1843 101.147 52.7271C100.615 52.2683 100.348 51.6565 100.348 50.8885C100.348 50.6867 100.365 50.4833 100.396 50.2816L100.687 48.6512C100.869 47.618 101.287 46.8126 101.94 46.2366C102.592 45.6606 103.409 45.3726 104.389 45.3726H105.327C105.758 45.3726 106.154 45.4588 106.514 45.628C106.876 45.7989 107.142 46.0234 107.314 46.3L107.46 45.5011H109.496L108.09 53.3991C107.906 54.4437 107.489 55.2589 106.837 55.8447C106.185 56.4304 105.368 56.7249 104.388 56.7249H102.934C102.059 56.7217 101.361 56.5053 100.838 56.0741ZM104.693 51.5719C105.103 51.5719 105.478 51.4043 105.817 51.0691C106.156 50.7323 106.396 50.293 106.536 49.7495L106.73 48.6463C106.763 48.22 106.675 47.8783 106.471 47.6229C106.266 47.3674 105.976 47.2389 105.598 47.2389H104.466C104.045 47.2389 103.69 47.3772 103.399 47.6554C103.108 47.932 102.925 48.316 102.85 48.8074L102.623 50.1189C102.601 50.2897 102.59 50.4069 102.59 50.4703C102.59 50.812 102.679 51.0805 102.856 51.2774C103.034 51.4742 103.274 51.5735 103.575 51.5735H104.693V51.5719Z" fill="#FCFCFC"/>
<path d="M111.659 45.4962H113.856L112.434 53.4756H110.236L111.659 45.4962ZM112.047 44.4565C111.832 44.2645 111.723 44.0139 111.723 43.7048C111.723 43.2362 111.871 42.8554 112.167 42.5609C112.463 42.268 112.86 42.1216 113.355 42.1216C113.71 42.1216 113.996 42.2176 114.212 42.4096C114.427 42.6016 114.536 42.8522 114.536 43.1613C114.536 43.6299 114.388 44.0107 114.092 44.3052C113.795 44.598 113.399 44.7445 112.904 44.7445C112.547 44.7445 112.263 44.6485 112.047 44.4565Z" fill="#FCFCFC"/>
<path d="M115.449 52.9795C114.904 52.5646 114.633 52.0048 114.633 51.3003C114.633 51.1408 114.649 50.9798 114.682 50.8203H116.848C116.837 50.8626 116.832 50.9212 116.832 50.996C116.832 51.2417 116.912 51.4337 117.074 51.572C117.235 51.7103 117.462 51.7803 117.753 51.7803H119.207C119.519 51.7803 119.768 51.7347 119.95 51.6436C120.133 51.5525 120.241 51.4223 120.274 51.2515L120.324 50.9798C120.345 50.874 120.31 50.7747 120.218 50.6836C120.126 50.5925 119.995 50.5323 119.822 50.4998L117.106 50.0198C116.536 49.914 116.088 49.7139 115.764 49.421C115.44 49.1281 115.279 48.7734 115.279 48.3568C115.279 48.2934 115.289 48.1974 115.312 48.0688L115.409 47.5417C115.528 46.8599 115.886 46.3262 116.483 45.9422C117.082 45.5582 117.848 45.3662 118.786 45.3662H120.047C120.921 45.3662 121.613 45.5615 122.124 45.9503C122.636 46.3392 122.893 46.8599 122.893 47.5091C122.893 47.6474 122.876 47.7971 122.845 47.9566H120.679C120.69 47.924 120.695 47.8769 120.695 47.8118C120.695 47.6198 120.628 47.4684 120.493 47.3562C120.358 47.2439 120.177 47.1886 119.952 47.1886H118.723C118.399 47.1886 118.139 47.2309 117.939 47.3171C117.74 47.4034 117.623 47.5205 117.592 47.6686L117.544 47.924C117.523 48.0314 117.549 48.1274 117.625 48.212C117.7 48.2983 117.824 48.3552 117.996 48.3878L120.842 48.9149C121.379 49.0223 121.804 49.2208 122.11 49.5137C122.417 49.8066 122.57 50.145 122.57 50.529C122.57 50.6364 122.565 50.7162 122.554 50.7682L122.457 51.3442C122.338 52.0585 121.985 52.6134 121.398 53.0071C120.81 53.4009 120.047 53.5978 119.111 53.5978H117.657C116.728 53.6027 115.993 53.396 115.449 52.9795Z" fill="#FCFCFC"/>
<path d="M125.123 53.02C124.734 52.7157 124.54 52.2438 124.54 51.6044C124.54 51.4026 124.567 51.152 124.621 50.8526L125.251 47.3511H123.828L124.152 45.4962H125.639L126.075 43.0815H128.208L127.771 45.4962H129.856L129.532 47.3511H127.447L126.833 50.7566C126.812 50.9063 126.8 51.0072 126.8 51.0609C126.8 51.4335 126.999 51.6206 127.399 51.6206H128.772L128.433 53.4756H126.897C126.103 53.4756 125.509 53.3226 125.123 53.02Z" fill="#FCFCFC"/>
<path d="M131.716 45.4962H133.913L132.49 53.4756H130.293L131.716 45.4962ZM132.104 44.4565C131.888 44.2645 131.78 44.0139 131.78 43.7048C131.78 43.2362 131.928 42.8554 132.224 42.5609C132.52 42.268 132.916 42.1216 133.411 42.1216C133.767 42.1216 134.053 42.2176 134.268 42.4096C134.484 42.6016 134.592 42.8522 134.592 43.1613C134.592 43.6299 134.444 44.0107 134.148 44.3052C133.852 44.598 133.456 44.7445 132.961 44.7445C132.604 44.7445 132.318 44.6485 132.104 44.4565Z" fill="#FCFCFC"/>
<path d="M135.691 52.8916C135.12 52.4181 134.834 51.7852 134.834 50.996C134.834 50.8154 134.85 50.6234 134.882 50.42L135.22 48.5488C135.393 47.5465 135.813 46.7655 136.482 46.2058C137.15 45.6461 137.985 45.3662 138.987 45.3662H140.263C141.189 45.3662 141.919 45.5908 142.452 46.0382C142.985 46.4857 143.252 47.0942 143.252 47.8606C143.252 48.0314 143.235 48.2234 143.204 48.4366H141.021C141.043 48.308 141.054 48.212 141.054 48.1486C141.054 47.872 140.974 47.6507 140.813 47.4847C140.651 47.3188 140.429 47.2374 140.15 47.2374H138.905C138.505 47.2374 138.174 47.3659 137.911 47.6214C137.646 47.8768 137.472 48.2397 137.387 48.7083L137.112 50.2589C137.091 50.4298 137.079 50.5518 137.079 50.6267C137.079 50.9684 137.173 51.2368 137.362 51.4337C137.551 51.6306 137.806 51.7299 138.13 51.7299H139.375C139.742 51.7299 140.046 51.6127 140.288 51.3784C140.53 51.1441 140.684 50.8138 140.748 50.3875H142.931C142.758 51.3898 142.352 52.1757 141.711 52.7452C141.069 53.3147 140.27 53.601 139.311 53.601H137.985C137.026 53.6027 136.262 53.3667 135.691 52.8916Z" fill="#FCFCFC"/>
<path d="M144.556 52.9795C144.012 52.5646 143.74 52.0048 143.74 51.3003C143.74 51.1408 143.757 50.9798 143.79 50.8203H145.956C145.944 50.8626 145.939 50.9212 145.939 50.996C145.939 51.2417 146.02 51.4337 146.181 51.572C146.342 51.7103 146.569 51.7803 146.86 51.7803H148.314C148.627 51.7803 148.875 51.7347 149.058 51.6436C149.24 51.5525 149.349 51.4223 149.382 51.2515L149.431 50.9798C149.452 50.874 149.418 50.7747 149.326 50.6836C149.234 50.5925 149.102 50.5323 148.929 50.4998L146.214 50.0198C145.643 49.914 145.196 49.7139 144.872 49.421C144.548 49.1281 144.387 48.7734 144.387 48.3568C144.387 48.2934 144.396 48.1974 144.42 48.0688L144.517 47.5417C144.635 46.8599 144.994 46.3262 145.591 45.9422C146.189 45.5582 146.956 45.3662 147.893 45.3662H149.155C150.028 45.3662 150.72 45.5615 151.232 45.9503C151.743 46.3392 152 46.8599 152 47.5091C152 47.6474 151.984 47.7971 151.952 47.9566H149.786C149.798 47.924 149.803 47.8769 149.803 47.8118C149.803 47.6198 149.735 47.4684 149.6 47.3562C149.466 47.2439 149.285 47.1886 149.059 47.1886H147.831C147.507 47.1886 147.247 47.2309 147.046 47.3171C146.847 47.4034 146.73 47.5205 146.699 47.6686L146.651 47.924C146.63 48.0314 146.656 48.1274 146.732 48.212C146.808 48.2983 146.931 48.3552 147.104 48.3878L149.949 48.9149C150.487 49.0223 150.911 49.2208 151.217 49.5137C151.525 49.8066 151.678 50.145 151.678 50.529C151.678 50.6364 151.673 50.7162 151.661 50.7682L151.564 51.3442C151.446 52.0585 151.092 52.6134 150.505 53.0071C149.918 53.4009 149.155 53.5978 148.219 53.5978H146.765C145.836 53.6027 145.1 53.396 144.556 52.9795Z" fill="#FCFCFC"/>
<path d="M74.3761 47.5937C61.6279 71.6035 26.4325 60.0509 16.4047 38.874L14.5922 44.0499L7.23535 40.2018C21.1299 69.4833 67.6985 76.3807 74.3761 47.5937Z" fill="#FCFCFC"/>
<path d="M17.6659 29.5977L13.5443 30.7724L8.83214 32.1164L4.69074 33.2977L0 34.632L6.2121 37.8829L6.72196 38.153L13.4406 41.6676L15.2712 36.4397L15.5558 35.6326L17.6659 29.5977Z" fill="#FCFCFC"/>
<path d="M71.2 22.5572C71.195 22.5523 71.1901 22.5474 71.1852 22.5425C70.848 22.1618 70.4993 21.7859 70.1457 21.4166C69.9006 21.1644 69.6572 20.9122 69.4072 20.6648C69.621 20.5672 69.7822 20.5005 69.7822 20.5005L70.3694 21.3547L71.2 22.5572Z" fill="#FCFCFC"/>
<path d="M71.2003 22.5573C71.1954 22.5524 71.1904 22.5475 71.1855 22.5426C70.8483 22.1619 70.4997 21.786 70.146 21.4167C69.901 21.1645 69.6576 20.9123 69.4076 20.6649C60.3962 11.6377 46.6479 4.81032 34.5231 5.40747C19.7979 6.13805 8.16152 16.2001 15.2733 36.4414L13.4427 41.6677C13.3292 41.6108 5.99706 37.7741 6.21581 37.8814C-8.47482 -3.04051 49.9127 -14.2123 70.5079 21.3223C70.7431 21.7291 70.9766 22.1407 71.2003 22.5573Z" fill="#FCFCFC"/>
</svg>
