<svg width="288" height="61" viewBox="0 0 288 61" fill="none" xmlns="http://www.w3.org/2000/svg">
<path d="M89.1425 43H80.8233V17.3021H89.406C91.9239 17.3021 94.0863 17.8165 95.8932 18.8455C97.7001 19.866 99.0845 21.3341 100.047 23.2497C101.017 25.157 101.502 27.4449 101.502 30.1134C101.502 32.7903 101.013 35.0907 100.034 37.0147C99.0636 38.9387 97.6582 40.4193 95.8179 41.4566C93.9775 42.4855 91.7524 43 89.1425 43ZM84.7005 39.6121H88.9291C90.8866 39.6121 92.5136 39.244 93.8102 38.5079C95.1068 37.7634 96.0772 36.6885 96.7213 35.2831C97.3655 33.8694 97.6875 32.1461 97.6875 30.1134C97.6875 28.0974 97.3655 26.3867 96.7213 24.9813C96.0856 23.576 95.1361 22.5094 93.873 21.7817C92.6098 21.0539 91.0414 20.69 89.1676 20.69H84.7005V39.6121ZM114.329 43.389C112.43 43.389 110.795 42.9833 109.423 42.1718C108.059 41.3521 107.005 40.2018 106.261 38.7212C105.525 37.2322 105.157 35.488 105.157 33.4888C105.157 31.5146 105.525 29.7746 106.261 28.2689C107.005 26.7631 108.043 25.5878 109.373 24.7429C110.711 23.8981 112.275 23.4756 114.066 23.4756C115.153 23.4756 116.207 23.6555 117.228 24.0152C118.248 24.3749 119.164 24.9395 119.976 25.7091C120.787 26.4787 121.427 27.4784 121.895 28.708C122.364 29.9294 122.598 31.4142 122.598 33.1625V34.4926H107.277V31.6819H118.922C118.922 30.6948 118.721 29.8206 118.319 29.0594C117.918 28.2898 117.353 27.6833 116.625 27.2399C115.906 26.7966 115.061 26.5749 114.091 26.5749C113.037 26.5749 112.116 26.8342 111.33 27.3529C110.552 27.8632 109.95 28.5324 109.523 29.3605C109.105 30.1803 108.896 31.0712 108.896 32.0332V34.2291C108.896 35.5173 109.122 36.6132 109.573 37.5166C110.034 38.42 110.673 39.1102 111.493 39.587C112.313 40.0554 113.271 40.2897 114.367 40.2897C115.078 40.2897 115.726 40.1893 116.312 39.9885C116.897 39.7794 117.403 39.4699 117.83 39.06C118.257 38.6501 118.583 38.144 118.809 37.5417L122.36 38.1816C122.075 39.2273 121.565 40.1433 120.829 40.9296C120.101 41.7076 119.185 42.3141 118.081 42.749C116.985 43.1757 115.734 43.389 114.329 43.389ZM142.697 23.7266L135.707 43H131.692L124.69 23.7266H128.718L133.599 38.5581H133.8L138.669 23.7266H142.697ZM146.222 43V23.7266H149.849V26.7882H150.05C150.401 25.7509 151.02 24.9353 151.907 24.3414C152.802 23.7391 153.814 23.438 154.943 23.438C155.177 23.438 155.453 23.4463 155.771 23.4631C156.098 23.4798 156.353 23.5007 156.537 23.5258V27.1145C156.386 27.0726 156.118 27.0266 155.734 26.9764C155.349 26.9179 154.964 26.8886 154.579 26.8886C153.693 26.8886 152.902 27.0768 152.208 27.4533C151.522 27.8213 150.978 28.3358 150.577 28.9966C150.175 29.6491 149.974 30.3936 149.974 31.2302V43H146.222ZM167.212 43.389C165.405 43.389 163.828 42.9749 162.481 42.1467C161.134 41.3186 160.089 40.16 159.344 38.671C158.6 37.182 158.228 35.442 158.228 33.4511C158.228 31.4518 158.6 29.7035 159.344 28.2061C160.089 26.7088 161.134 25.546 162.481 24.7178C163.828 23.8897 165.405 23.4756 167.212 23.4756C169.019 23.4756 170.596 23.8897 171.942 24.7178C173.289 25.546 174.335 26.7088 175.079 28.2061C175.824 29.7035 176.196 31.4518 176.196 33.4511C176.196 35.442 175.824 37.182 175.079 38.671C174.335 40.16 173.289 41.3186 171.942 42.1467C170.596 42.9749 169.019 43.389 167.212 43.389ZM167.224 40.2395C168.395 40.2395 169.366 39.93 170.135 39.3109C170.905 38.6919 171.474 37.8679 171.842 36.839C172.218 35.8101 172.407 34.6766 172.407 33.4386C172.407 32.2089 172.218 31.0796 171.842 30.0507C171.474 29.0134 170.905 28.181 170.135 27.5536C169.366 26.9263 168.395 26.6126 167.224 26.6126C166.045 26.6126 165.066 26.9263 164.288 27.5536C163.519 28.181 162.946 29.0134 162.569 30.0507C162.201 31.0796 162.017 32.2089 162.017 33.4386C162.017 34.6766 162.201 35.8101 162.569 36.839C162.946 37.8679 163.519 38.6919 164.288 39.3109C165.066 39.93 166.045 40.2395 167.224 40.2395ZM184.136 31.5564V43H180.384V23.7266H183.985V26.8635H184.223C184.667 25.843 185.361 25.0232 186.306 24.4041C187.26 23.7851 188.46 23.4756 189.908 23.4756C191.221 23.4756 192.371 23.7517 193.358 24.3038C194.345 24.8475 195.111 25.6589 195.655 26.738C196.198 27.8171 196.47 29.1514 196.47 30.7408V43H192.718V31.1925C192.718 29.7955 192.354 28.7039 191.627 27.9175C190.899 27.1228 189.899 26.7255 188.628 26.7255C187.758 26.7255 186.984 26.9137 186.306 27.2901C185.637 27.6666 185.106 28.2187 184.713 28.9465C184.328 29.6659 184.136 30.5358 184.136 31.5564ZM211.154 43V17.3021H227.09V20.6398H215.031V28.4696H225.948V31.7948H215.031V43H211.154ZM235.309 17.3021V43H231.557V17.3021H235.309ZM248.475 43.389C246.668 43.389 245.091 42.9749 243.744 42.1467C242.397 41.3186 241.352 40.16 240.607 38.671C239.863 37.182 239.49 35.442 239.49 33.4511C239.49 31.4518 239.863 29.7035 240.607 28.2061C241.352 26.7088 242.397 25.546 243.744 24.7178C245.091 23.8897 246.668 23.4756 248.475 23.4756C250.281 23.4756 251.858 23.8897 253.205 24.7178C254.552 25.546 255.598 26.7088 256.342 28.2061C257.087 29.7035 257.459 31.4518 257.459 33.4511C257.459 35.442 257.087 37.182 256.342 38.671C255.598 40.16 254.552 41.3186 253.205 42.1467C251.858 42.9749 250.281 43.389 248.475 43.389ZM248.487 40.2395C249.658 40.2395 250.629 39.93 251.398 39.3109C252.168 38.6919 252.737 37.8679 253.105 36.839C253.481 35.8101 253.669 34.6766 253.669 33.4386C253.669 32.2089 253.481 31.0796 253.105 30.0507C252.737 29.0134 252.168 28.181 251.398 27.5536C250.629 26.9263 249.658 26.6126 248.487 26.6126C247.308 26.6126 246.329 26.9263 245.551 27.5536C244.781 28.181 244.208 29.0134 243.832 30.0507C243.464 31.0796 243.28 32.2089 243.28 33.4386C243.28 34.6766 243.464 35.8101 243.832 36.839C244.208 37.8679 244.781 38.6919 245.551 39.3109C246.329 39.93 247.308 40.2395 248.487 40.2395ZM265.238 43L259.567 23.7266H263.444L267.221 37.8805H267.409L271.199 23.7266H275.076L278.84 37.8178H279.028L282.78 23.7266H286.658L280.998 43H277.171L273.256 29.0845H272.968L269.053 43H265.238Z" fill="#FCFCFC"/>
<g clip-path="url(#clip0_712_1835)">
<path d="M54.6474 57.9175L60.0006 48.1928C52.5087 43.6122 46.2912 37.0513 41.9676 29.1637C37.6441 21.276 35.3654 12.337 35.3586 3.23731C35.3586 3.15477 35.3586 3.07738 35.3586 3H24.6523C24.6523 3.07738 24.6523 3.15477 24.6523 3.23731C24.6607 14.3082 27.4348 25.1834 32.6979 34.7779C37.9611 44.3724 45.5292 52.3509 54.6474 57.9175Z" fill="#FCFCFC"/>
<path d="M0 48.1925L5.35311 57.9172C14.4709 52.3497 22.0381 44.37 27.2995 34.7744C32.561 25.1789 35.3328 14.3029 35.3384 3.23194C35.3384 3.14939 35.3384 3.07201 35.3384 2.99463H24.6321C24.6321 3.07201 24.6321 3.14939 24.6321 3.23194C24.6277 12.3316 22.3511 21.2712 18.0292 29.1598C13.7073 37.0485 7.49111 43.6107 0 48.1925Z" fill="#FCFCFC"/>
<path d="M5.39706 57.9991C12.8837 53.4867 21.3663 51.1122 29.9997 51.1122C38.6331 51.1122 47.1158 53.4867 54.6024 57.9991L59.9555 48.2692C50.8421 42.7682 40.5129 39.873 29.9997 39.873C19.4865 39.873 9.15732 42.7682 0.0439453 48.2692L5.39706 57.9991Z" fill="#FCFCFC"/>
<path d="M54.6476 57.9231L59.9564 48.2758C52.6225 43.8383 44.4748 41.0847 36.0518 40.1968C41.0077 47.3991 47.3413 53.4366 54.6476 57.9231Z" fill="#FCFCFC"/>
<path d="M24.6572 2.99957C24.6572 3.07695 24.6572 3.15434 24.6572 3.23688C24.6519 12.203 26.4738 21.0666 30.0005 29.233C33.5319 21.0642 35.3571 12.1969 35.3536 3.22657C35.3536 3.14402 35.3536 3.06664 35.3536 2.98926L24.6572 2.99957Z" fill="#FCFCFC"/>
<path d="M5.35366 57.9231C12.6684 53.439 19.0105 47.4014 23.974 40.1968C15.5492 41.0838 7.3998 43.8375 0.0644531 48.2758L5.35366 57.9231Z" fill="#FCFCFC"/>
</g>
<defs>
<clipPath id="clip0_712_1835">
<rect width="60" height="55" fill="white" transform="translate(0 3)"/>
</clipPath>
</defs>
</svg>
