<svg width="209" height="66" viewBox="0 0 209 66" fill="none" xmlns="http://www.w3.org/2000/svg">
<path d="M151.228 49.9419C151.228 52.4452 150.066 53.6924 147.745 53.6924H140.777V58.3817C140.777 59.0053 140.485 59.3193 139.906 59.3193C139.326 59.3193 139.034 59.0053 139.034 58.3817V47.1267C139.034 46.502 139.326 46.1891 139.906 46.1891H147.745C150.066 46.1902 151.228 47.4408 151.228 49.9419ZM147.745 51.8171C148.903 51.8171 149.486 51.1924 149.486 49.9419C149.486 48.6936 148.903 48.0655 147.745 48.0655H140.777V51.8171H147.745ZM135.316 47.1279C135.316 46.5031 135.605 46.1902 136.187 46.1902C136.767 46.1902 137.059 46.5031 137.059 47.1279V52.7548C137.059 57.13 135.026 59.3204 130.961 59.3204C126.898 59.3204 124.865 57.1311 124.865 52.7548V47.1279C124.865 46.5031 125.155 46.1902 125.735 46.1902C126.315 46.1902 126.606 46.5031 126.606 47.1279V52.7548C126.606 55.8828 128.057 57.4441 130.96 57.4441C133.861 57.4441 135.314 55.8817 135.314 52.7548V47.1279H135.316ZM116.793 57.4452C119.695 57.4452 121.148 55.8828 121.148 52.7559C121.148 49.6312 119.694 48.0666 116.793 48.0666C113.888 48.0666 112.438 49.6324 112.438 52.7559C112.437 55.8828 113.888 57.4452 116.793 57.4452ZM122.889 52.7559C122.889 57.1311 120.856 59.3216 116.792 59.3216C112.728 59.3216 110.695 57.1323 110.695 52.7559C110.695 48.3795 112.728 46.1902 116.792 46.1902C120.856 46.1902 122.889 48.3795 122.889 52.7559ZM108.719 49.9419C108.719 51.1924 108.428 52.1312 107.849 52.7548C108.428 53.3829 108.719 54.3171 108.719 55.5677V58.3817C108.719 59.0053 108.428 59.3193 107.849 59.3193C107.266 59.3193 106.977 59.0053 106.977 58.3817V55.5677C106.977 54.3171 106.395 53.6924 105.235 53.6924H98.2675V58.3817C98.2675 59.0053 97.9759 59.3193 97.3968 59.3193C96.8167 59.3193 96.5251 59.0053 96.5251 58.3817V47.1267C96.5251 46.502 96.8156 46.1891 97.3968 46.1891H105.235C107.558 46.1902 108.719 47.4408 108.719 49.9419ZM105.236 51.8171C106.396 51.8171 106.978 51.1924 106.978 49.9419C106.978 48.6936 106.396 48.0655 105.236 48.0655H98.2686V51.8171H105.236ZM93.68 46.1902C94.2601 46.1902 94.5507 46.5031 94.5507 47.1279C94.5507 47.756 94.2601 48.0655 93.68 48.0655H88.4546C85.5508 48.0655 84.0999 49.6312 84.0999 52.7548C84.0999 55.8828 85.5508 57.4441 88.4546 57.4441H92.8093V53.6924H88.4546C87.8724 53.6924 87.5839 53.3829 87.5839 52.7548C87.5839 52.1301 87.8724 51.8171 88.4546 51.8171H93.68C94.2601 51.8171 94.5507 52.1301 94.5507 52.7548V58.3817C94.5507 59.0053 94.2601 59.3193 93.68 59.3193H88.4546C84.3916 59.3193 82.3574 57.13 82.3574 52.7536C82.3574 48.3773 84.3905 46.188 88.4546 46.188H93.68V46.1902ZM208.13 26.3949C208.71 26.3949 209.001 26.709 209.001 27.3325C209.001 27.9606 208.71 28.2713 208.13 28.2713H202.904C200.001 28.2713 198.551 29.837 198.551 32.9606C198.551 36.0887 200.002 37.6499 202.904 37.6499H207.259V33.8971H202.904C202.322 33.8971 202.035 33.5876 202.035 32.9595C202.035 32.3359 202.322 32.0218 202.904 32.0218H208.13C208.71 32.0218 209.001 32.3359 209.001 32.9595V38.5864C209.001 39.21 208.71 39.524 208.13 39.524H202.904C198.841 39.524 196.808 37.3347 196.808 32.9583C196.808 28.5831 198.841 26.3927 202.904 26.3927H208.13V26.3949ZM184.381 38.5875C184.381 39.2111 184.091 39.5251 183.51 39.5251C182.93 39.5251 182.64 39.2111 182.64 38.5875V27.3325C182.64 26.709 182.93 26.3949 183.51 26.3949C183.917 26.3949 184.182 26.5486 184.305 26.8558L193.09 36.318V27.3325C193.09 26.709 193.379 26.3949 193.962 26.3949C194.541 26.3949 194.833 26.709 194.833 27.3325V38.5875C194.833 39.2111 194.541 39.5251 193.962 39.5251C193.543 39.5251 193.275 39.3613 193.159 39.0382L184.381 29.5863V38.5875ZM178.92 27.3325C178.92 26.709 179.211 26.3949 179.791 26.3949C180.372 26.3949 180.662 26.709 180.662 27.3325V38.5875C180.662 39.2111 180.372 39.5251 179.791 39.5251C179.211 39.5251 178.92 39.2111 178.92 38.5875V27.3325ZM165.623 28.2702C165.043 28.2702 164.752 27.9595 164.752 27.3314C164.752 26.7078 165.043 26.3938 165.623 26.3938H176.075C176.654 26.3938 176.945 26.7078 176.945 27.3314C176.945 27.9595 176.654 28.2702 176.075 28.2702H171.72V38.5864C171.72 39.21 171.428 39.524 170.849 39.524C170.266 39.524 169.979 39.21 169.979 38.5864V28.2702H165.623ZM153.204 27.3325C153.204 26.709 153.496 26.3949 154.075 26.3949C154.655 26.3949 154.945 26.709 154.945 27.3325V37.6499H164.527C165.107 37.6499 165.397 37.9628 165.397 38.5875C165.397 39.2111 165.107 39.5251 164.527 39.5251H154.075C153.496 39.5251 153.204 39.2111 153.204 38.5875V27.3325ZM149.486 27.3325C149.486 26.709 149.775 26.3949 150.357 26.3949C150.937 26.3949 151.228 26.709 151.228 27.3325V32.9595C151.228 37.3358 149.194 39.5251 145.13 39.5251C141.067 39.5251 139.033 37.3358 139.033 32.9595V27.3325C139.033 26.709 139.325 26.3949 139.905 26.3949C140.484 26.3949 140.776 26.709 140.776 27.3325V32.9595C140.776 36.0875 142.227 37.6487 145.129 37.6487C148.031 37.6487 149.484 36.0864 149.484 32.9595V27.3325H149.486ZM136.187 26.3949C136.767 26.3949 137.059 26.709 137.059 27.3325C137.059 27.9606 136.767 28.2713 136.187 28.2713H128.348C127.187 28.2713 126.607 28.8983 126.607 30.1466C126.607 31.3983 127.187 32.023 128.348 32.023H133.574C135.895 32.023 137.058 33.2746 137.058 35.7746C137.058 38.2746 135.895 39.5263 133.574 39.5263H125.735C125.155 39.5263 124.865 39.2122 124.865 38.5886C124.865 37.9639 125.155 37.651 125.735 37.651H133.574C134.733 37.651 135.315 37.0263 135.315 35.7746C135.315 34.5229 134.733 33.8982 133.574 33.8982H128.348C126.027 33.8982 124.866 32.6499 124.866 30.1466C124.866 27.6466 126.027 26.3949 128.348 26.3949H136.187ZM112.437 38.5875C112.437 39.2111 112.146 39.5251 111.567 39.5251C110.986 39.5251 110.695 39.2111 110.695 38.5875V27.3325C110.695 26.709 110.986 26.3949 111.567 26.3949C111.974 26.3949 112.238 26.5486 112.36 26.8558L121.147 36.318V27.3325C121.147 26.709 121.434 26.3949 122.017 26.3949C122.596 26.3949 122.888 26.709 122.888 27.3325V38.5875C122.888 39.2111 122.596 39.5251 122.017 39.5251C121.598 39.5251 121.33 39.3613 121.214 39.0382L112.436 29.5863V38.5875H112.437ZM102.623 37.6487C105.525 37.6487 106.978 36.0864 106.978 32.9595C106.978 29.8359 105.525 28.2702 102.623 28.2702C99.7184 28.2702 98.2686 29.8359 98.2686 32.9595C98.2686 36.0875 99.7184 37.6487 102.623 37.6487ZM108.719 32.9595C108.719 37.3358 106.686 39.5251 102.622 39.5251C98.5581 39.5251 96.5251 37.3358 96.5251 32.9595C96.5251 28.5842 98.5581 26.3938 102.622 26.3938C106.686 26.3938 108.719 28.5842 108.719 32.9595ZM93.68 37.6487C94.2601 37.6487 94.5507 37.9617 94.5507 38.5864C94.5507 39.21 94.2601 39.524 93.68 39.524H88.4546C84.3916 39.524 82.3574 37.3347 82.3574 32.9583C82.3574 28.5831 84.3905 26.3927 88.4546 26.3927H93.68C94.2601 26.3927 94.5507 26.7067 94.5507 27.3303C94.5507 27.9584 94.2601 28.269 93.68 28.269H88.4546C85.5508 28.269 84.0999 29.8348 84.0999 32.9583C84.0999 36.0864 85.5508 37.6476 88.4546 37.6476H93.68V37.6487ZM196.583 6.59961C197.163 6.59961 197.454 6.91253 197.454 7.53724C197.454 8.16421 197.163 8.47487 196.583 8.47487H188.744C187.582 8.47487 187.003 9.10184 187.003 10.3501C187.003 11.6018 187.582 12.2265 188.744 12.2265H193.97C196.291 12.2265 197.452 13.4782 197.452 15.9782C197.452 18.4782 196.291 19.7298 193.97 19.7298H186.13C185.551 19.7298 185.259 19.4158 185.259 18.7922C185.259 18.1675 185.551 17.8534 186.13 17.8534H193.97C195.128 17.8534 195.711 17.2299 195.711 15.9782C195.711 14.7265 195.128 14.1018 193.97 14.1018H188.744C186.423 14.1018 185.26 12.8546 185.26 10.3501C185.26 7.85016 186.423 6.59961 188.744 6.59961H196.583ZM181.542 7.53724C181.542 6.91253 181.833 6.59961 182.413 6.59961C182.993 6.59961 183.284 6.91253 183.284 7.53724V18.7911C183.284 19.4147 182.993 19.7287 182.413 19.7287C181.833 19.7287 181.542 19.4147 181.542 18.7911V7.53724ZM168.244 8.47487C167.665 8.47487 167.374 8.16421 167.374 7.53724C167.374 6.91253 167.665 6.59961 168.244 6.59961H178.696C179.276 6.59961 179.567 6.91253 179.567 7.53724C179.567 8.16421 179.276 8.47487 178.696 8.47487H174.343V18.7911C174.343 19.4147 174.051 19.7287 173.471 19.7287C172.888 19.7287 172.6 19.4147 172.6 18.7911V8.47487H168.244ZM154.946 18.7911C154.946 19.4147 154.656 19.7287 154.076 19.7287C153.496 19.7287 153.204 19.4147 153.204 18.7911V7.53724C153.204 6.91253 153.496 6.59961 154.076 6.59961C154.483 6.59961 154.747 6.75325 154.869 7.06052L163.656 16.5227V7.53724C163.656 6.91253 163.944 6.59961 164.527 6.59961C165.107 6.59961 165.397 6.91253 165.397 7.53724V18.7911C165.397 19.4147 165.107 19.7287 164.527 19.7287C164.108 19.7287 163.84 19.5649 163.724 19.2418L154.946 9.78981V18.7911ZM139.034 18.7911V7.53724C139.034 6.91253 139.326 6.59961 139.906 6.59961H150.358C150.937 6.59961 151.228 6.91253 151.228 7.53724C151.228 8.16421 150.937 8.47487 150.358 8.47487H140.777V12.2265H150.358C150.937 12.2265 151.228 12.5406 151.228 13.1642C151.228 13.7911 150.937 14.1018 150.358 14.1018H140.777V17.8534H150.358C150.937 17.8534 151.228 18.1675 151.228 18.7922C151.228 19.4158 150.937 19.7298 150.358 19.7298H139.906C139.326 19.7287 139.034 19.4147 139.034 18.7911ZM124.866 7.53724C124.866 6.91253 125.156 6.59961 125.736 6.59961C126.316 6.59961 126.607 6.91253 126.607 7.53724V17.8534H136.188C136.767 17.8534 137.059 18.1675 137.059 18.7922C137.059 19.4158 136.767 19.7298 136.188 19.7298H125.736C125.156 19.7298 124.866 19.4158 124.866 18.7922V7.53724ZM110.696 7.53724C110.696 6.91253 110.986 6.59961 111.567 6.59961C112.147 6.59961 112.438 6.91253 112.438 7.53724V17.8534H122.018C122.599 17.8534 122.889 18.1675 122.889 18.7922C122.889 19.4158 122.599 19.7298 122.018 19.7298H111.567C110.986 19.7298 110.696 19.4158 110.696 18.7922V7.53724ZM102.623 8.47487C99.7184 8.47487 98.2686 10.0395 98.2686 13.1642V14.1018H106.978V13.1642C106.978 10.0395 105.525 8.47487 102.623 8.47487ZM96.5261 13.1642C96.5261 8.78892 98.5592 6.59961 102.623 6.59961C106.687 6.59961 108.72 8.78892 108.72 13.1642V18.7911C108.72 19.4147 108.429 19.7287 107.85 19.7287C107.267 19.7287 106.979 19.4147 106.979 18.7911V15.977H98.2696V18.7911C98.2696 19.4147 97.978 19.7287 97.3989 19.7287C96.8188 19.7287 96.5272 19.4147 96.5272 18.7911V13.1642H96.5261ZM93.68 17.8534C94.2601 17.8534 94.5507 18.1675 94.5507 18.7922C94.5507 19.4158 94.2601 19.7298 93.68 19.7298H88.4546C84.3916 19.7298 82.3574 17.5405 82.3574 13.1642C82.3574 8.78892 84.3905 6.59961 88.4546 6.59961H93.68C94.2601 6.59961 94.5507 6.91253 94.5507 7.53724C94.5507 8.16421 94.2601 8.47487 93.68 8.47487H88.4546C85.5508 8.47487 84.0999 10.0395 84.0999 13.1642C84.0999 16.2922 85.5508 17.8534 88.4546 17.8534H93.68Z" fill="#FCFCFC"/>
<path d="M48.0677 54.7903L44.9916 49.2991H36.6878H28.3688V49.292C27.8922 49.292 27.4307 49.035 27.1773 48.5802L23.0625 41.2219L23.0185 41.1485L18.8665 33.7252C18.62 33.2973 18.5993 32.7465 18.8583 32.2846L23.0185 24.8459L23.0212 24.8473L27.1125 17.5285C27.1304 17.4876 27.1511 17.4466 27.1731 17.4071L24.0916 11.906L18.4367 22.0198C18.4244 22.0466 18.4092 22.0734 18.3954 22.0989L12.3025 32.9951L18.3954 43.8913L18.394 43.8927L18.3954 43.8969L24.4883 54.7931H36.6782V54.7874H48.0677V54.7903ZM52.7527 2.84304H36.6878V2.84869H19.8239L11.3947 17.9226L11.3934 17.9212L2.9628 32.9965L11.3507 47.9969C11.3658 48.0223 11.381 48.0463 11.3947 48.0718L19.4217 62.4268L22.5033 56.9243L22.4812 56.8834L16.015 45.3191L16.0136 45.3205L9.52267 33.7111C9.26369 33.2493 9.28435 32.6999 9.53093 32.2705L16.015 20.6766L16.0591 20.6018L22.506 9.07286C22.7609 8.61668 23.2223 8.36104 23.6976 8.36104V8.3554H36.6809V8.36104H49.6643L52.7527 2.84304ZM62.5553 52.7311L55.534 65.2868C55.2778 65.7415 54.8163 65.9958 54.3424 65.9972V66H36.6864V65.9943H19.0305C18.5222 65.9943 18.0786 65.7105 17.8403 65.2868H17.8389L9.01022 49.4996C8.99507 49.4728 8.98129 49.4474 8.96889 49.4191L0.182921 33.7055C-0.069169 33.2521 -0.0526385 32.714 0.182921 32.2917L9.0116 16.5046L9.01298 16.5004L9.0116 16.4989L17.8403 0.711818C18.0951 0.257045 18.5566 0.00282447 19.0318 0.00282447V0H36.6878V0.00564895H54.3438C54.87 0.00564895 55.326 0.310714 55.5574 0.758425L64.3627 16.506C64.7401 17.1853 64.5142 18.0539 63.8557 18.4437C63.1973 18.8335 62.357 18.5991 61.9795 17.9198L53.9457 3.55203L50.8531 9.07286L50.8751 9.11382L55.7585 17.8491C55.888 17.8336 56.0189 17.8251 56.1525 17.8251C58.059 17.8251 59.6046 19.4211 59.6046 21.3899C59.6046 23.3587 58.059 24.9546 56.1525 24.9546C54.246 24.9546 52.699 23.3587 52.699 21.3899C52.699 20.5947 52.9511 19.8603 53.3781 19.2671L48.8681 11.2013H36.6782V11.2069H25.2886L28.3647 16.6981H28.3675H36.6864H45.004C45.7658 16.6981 46.3843 17.3365 46.3843 18.1231C46.3843 18.9098 45.7658 19.5482 45.004 19.5482H36.6864H29.1582L25.4016 26.2667L25.3989 26.2709L25.4016 26.2723L21.6409 32.9965L25.4016 39.722C25.4168 39.7489 25.4305 39.7757 25.4429 39.8025L29.1582 46.4476H36.6864H44.2106L47.9713 39.722L48.0154 39.6472L50.9371 34.4229H39.3947C38.8616 35.6827 37.6452 36.5626 36.2291 36.5626C34.3226 36.5626 32.7756 34.9667 32.7756 32.9979C32.7756 31.0291 34.3226 29.4331 36.2291 29.4331C37.6452 29.4331 38.8616 30.313 39.3947 31.5728H53.3217V31.5799C53.5545 31.5799 53.79 31.6392 54.0063 31.7691C54.6648 32.159 54.8921 33.0275 54.5132 33.7069L50.3958 41.0708C50.3834 41.0976 50.3682 41.1245 50.3544 41.1513L46.2466 48.4983C46.2287 48.5336 46.2108 48.5703 46.1901 48.6042L49.262 54.0897L54.9582 43.9025C55.3356 43.2232 56.1773 42.9888 56.8344 43.3786C57.4929 43.7684 57.7201 44.637 57.3413 45.3163L50.8503 56.9243C50.5969 57.3805 50.134 57.6361 49.6588 57.6375V57.6432H36.6754V57.6375H23.6935L20.605 63.1527H36.6864V63.1471H53.549L60.394 50.9063C59.9642 50.3117 59.7079 49.5759 59.7079 48.7808C59.7079 46.8204 61.2618 45.216 63.1614 45.216C65.0597 45.216 66.6136 46.8204 66.6136 48.7808C66.6136 50.7425 65.0597 52.3455 63.1614 52.3455C63.032 52.3455 62.9038 52.337 62.7785 52.3215L62.5526 52.7254L62.5553 52.7311Z" fill="#FCFCFC"/>
</svg>
