<svg width="200" height="50" viewBox="0 0 200 50" fill="none" xmlns="http://www.w3.org/2000/svg">
<path d="M186.429 32.2418C186.753 32.5627 187.103 32.8326 187.481 33.0513C187.859 33.2716 188.222 33.4495 188.57 33.5865C188.917 33.7236 189.224 33.8213 189.488 33.8811C189.751 33.9394 189.933 33.9701 190.028 33.9701C190.255 33.9701 190.547 33.9613 190.901 33.9423C191.254 33.9248 191.595 33.8709 191.917 33.7819C192.242 33.693 192.522 33.5471 192.754 33.3459C192.989 33.1446 193.105 32.8587 193.105 32.4912C193.105 32.1587 193.04 31.8948 192.908 31.6979C192.777 31.5025 192.584 31.3363 192.332 31.1992C192.08 31.0636 191.772 30.9411 191.405 30.8346C191.039 30.7267 190.628 30.6027 190.171 30.4597C188.732 30.0806 187.544 29.6226 186.608 29.0888C185.673 28.5536 184.932 27.9572 184.385 27.2981C183.84 26.6389 183.458 25.9286 183.241 25.1688C183.026 24.409 182.919 23.607 182.919 22.764C182.919 21.7782 183.116 20.8812 183.513 20.0747C183.907 19.2668 184.472 18.5756 185.204 17.9996C185.936 17.4221 186.812 16.9771 187.831 16.6621C188.853 16.3486 189.986 16.1911 191.234 16.1911C191.99 16.1911 192.698 16.2524 193.359 16.3778C194.019 16.5018 194.648 16.6986 195.248 16.9655C195.847 17.2323 196.432 17.5766 197.003 17.9996C197.573 18.421 198.14 18.9226 198.704 19.5045C198.908 19.7422 199.012 19.9639 199.018 20.1724C199.024 20.3795 198.89 20.6027 198.615 20.8404C198.146 21.2196 197.7 21.5944 197.272 21.9619C196.846 22.3309 196.406 22.7407 195.95 23.1913C195.806 23.3109 195.662 23.3853 195.517 23.4145C195.374 23.4436 195.236 23.4406 195.103 23.4056C194.972 23.3692 194.845 23.3109 194.726 23.2277C194.607 23.1446 194.498 23.044 194.402 22.9244C193.982 22.4621 193.501 22.15 192.962 21.9896C192.421 21.8291 191.917 21.749 191.45 21.749C190.862 21.749 190.394 21.8495 190.046 22.0508C189.698 22.2535 189.536 22.5627 189.56 22.9784C189.583 23.2861 189.701 23.5266 189.911 23.6987C190.121 23.8723 190.379 24.0108 190.686 24.1173C190.991 24.2252 191.315 24.3113 191.657 24.3769C191.999 24.4411 192.314 24.5155 192.601 24.5987C193.681 24.9428 194.671 25.3175 195.572 25.7215C196.472 26.1255 197.252 26.6213 197.912 27.209C198.572 27.7968 199.085 28.5011 199.45 29.3193C199.817 30.1389 200 31.1364 200 32.3133C200 33.4888 199.762 34.5403 199.289 35.4663C198.815 36.3924 198.164 37.1697 197.336 37.7997C196.507 38.4297 195.528 38.9095 194.393 39.242C193.258 39.5745 192.038 39.7407 190.73 39.7407C189.986 39.7407 189.23 39.6766 188.462 39.5453C187.694 39.4155 186.95 39.2041 186.23 38.9124C185.511 38.6222 184.825 38.2475 184.179 37.791C183.53 37.3331 182.954 36.7788 182.45 36.1254C182.318 35.9592 182.219 35.7843 182.154 35.5991C182.088 35.4153 182.057 35.2345 182.063 35.0566C182.069 34.8787 182.105 34.7153 182.172 34.5665C182.238 34.4178 182.343 34.2895 182.486 34.183L184.808 31.8846C185.097 31.6484 185.351 31.5653 185.573 31.6353C185.795 31.7067 186.081 31.9093 186.429 32.2418ZM126.525 36.6954C125.469 37.6579 124.28 38.4088 122.962 38.9484C121.641 39.4895 120.243 39.7593 118.766 39.7593C117.124 39.7593 115.569 39.4632 114.106 38.8682C112.641 38.2747 111.358 37.4521 110.254 36.4021C109.149 35.3506 108.274 34.1125 107.625 32.6877C106.977 31.2614 106.653 29.7127 106.653 28.037C106.653 26.9928 106.782 25.9792 107.04 25.0007C107.298 24.0206 107.665 23.1034 108.138 22.2473C108.613 21.3927 109.189 20.6067 109.866 19.8877C110.544 19.1687 111.303 18.5547 112.143 18.0442C112.983 17.5324 113.895 17.1343 114.879 16.8499C115.864 16.5655 116.901 16.4225 117.993 16.4225C118.989 16.4225 119.956 16.5524 120.891 16.8149C121.827 17.0759 122.707 17.4435 123.527 17.9189C124.35 18.3943 125.103 18.9645 125.786 19.6295C126.471 20.2945 127.059 21.0208 127.552 21.8112C128.042 22.6016 128.424 23.4447 128.694 24.3416C128.963 25.2384 129.099 26.1615 129.099 27.1109C129.099 27.7292 129.09 28.2339 129.072 28.6262C129.053 29.0171 128.96 29.3292 128.792 29.561C128.624 29.7929 128.346 29.9533 127.955 30.0423C127.566 30.1312 126.993 30.175 126.237 30.175H113.278C113.397 30.9348 113.64 31.5706 114.006 32.081C114.372 32.5914 114.795 32.9983 115.276 33.3017C115.755 33.605 116.264 33.8208 116.805 33.9521C117.345 34.0833 117.854 34.1475 118.335 34.1475C118.766 34.1475 119.211 34.1039 119.667 34.0149C120.124 33.9259 120.564 33.8063 120.99 33.6576C121.416 33.5103 121.806 33.3382 122.16 33.1413C122.514 32.9459 122.799 32.7403 123.015 32.5273C123.208 32.3728 123.373 32.256 123.51 32.1787C123.648 32.1029 123.796 32.0635 123.95 32.0635C124.106 32.0635 124.266 32.1175 124.428 32.224C124.59 32.3304 124.772 32.485 124.977 32.6877L126.886 34.8257C127.017 34.9788 127.101 35.1189 127.137 35.2428C127.173 35.3682 127.191 35.4966 127.191 35.6264C127.191 35.8641 127.124 36.0682 126.993 36.2418C126.86 36.4138 126.704 36.5656 126.525 36.6954ZM57.7764 13.357C57.7764 13.1207 57.8574 12.9296 58.0195 12.7867C58.1816 12.6453 58.382 12.5738 58.6222 12.5738H78.0077C78.2228 12.5738 78.4158 12.6394 78.5838 12.7692C78.7518 12.9004 78.8476 13.0959 78.8712 13.357V17.7933C78.8712 18.0077 78.796 18.2118 78.6472 18.4087C78.4969 18.6041 78.2832 18.7018 78.0077 18.7018H71.7983V38.4414C71.7983 38.6544 71.7202 38.8483 71.564 39.0204C71.4078 39.1925 71.203 39.2784 70.9511 39.2784H65.6597C65.4563 39.2784 65.2633 39.1983 65.0835 39.0379C64.9038 38.8775 64.8139 38.6792 64.8139 38.4414V18.7018H58.6222C58.382 18.7018 58.1816 18.6245 58.0195 18.4699C57.8574 18.3153 57.7764 18.0908 57.7764 17.7933V13.357ZM171.444 20.1273C171.444 19.7467 171.552 19.4199 171.769 19.1472C171.984 18.873 172.32 18.7374 172.777 18.7374H176.898C177.042 18.7374 177.197 18.7695 177.367 18.8351C177.535 18.9008 177.689 18.9956 177.834 19.1195C177.978 19.245 178.1 19.3908 178.203 19.5571C178.305 19.7233 178.355 19.9129 178.355 20.1273V37.9062C178.355 38.3583 178.23 38.6995 177.978 38.9314C177.726 39.1618 177.367 39.2784 176.898 39.2784H172.777C171.888 39.2784 171.444 38.8206 171.444 37.9062V20.1273ZM88.8734 20.3983C89.1017 20.0658 89.4171 19.7361 89.8193 19.4095C90.2201 19.0828 90.6828 18.7927 91.2045 18.536C91.7261 18.2808 92.3052 18.0736 92.9417 17.9132C93.5783 17.7528 94.2502 17.6725 94.9575 17.6725C96.3264 17.6725 97.5111 17.9336 98.5131 18.4557C99.515 18.9792 100.343 19.6909 100.996 20.5937C101.65 21.4964 102.136 22.5507 102.455 23.7554C102.773 24.9614 102.932 26.2477 102.932 27.6128V37.9062C102.932 38.3583 102.832 38.6995 102.634 38.9314C102.437 39.1618 102.122 39.2784 101.69 39.2784H97.5317C97.016 39.2784 96.6623 39.1925 96.4693 39.0204C96.2778 38.8483 96.182 38.5128 96.182 38.014V27.6128C96.182 27.1023 96.0833 26.627 95.8843 26.188C95.6869 25.749 95.4201 25.3655 95.0842 25.0388C94.7482 24.7122 94.3548 24.4569 93.9039 24.2732C93.4545 24.0894 92.9771 23.996 92.4731 23.996C92.0414 23.996 91.6185 24.0822 91.2045 24.2542C90.7904 24.4278 90.4191 24.6713 90.089 24.9849C89.7589 25.2999 89.4834 25.6775 89.2609 26.1165C89.0384 26.5555 88.9102 27.0426 88.8734 27.5779V37.9601C88.8734 38.1613 88.835 38.3641 88.7569 38.5653C88.6788 38.7681 88.5625 38.9211 88.4063 39.0291C88.2501 39.1239 88.1027 39.1895 87.9642 39.2245C87.8272 39.2609 87.668 39.2784 87.4883 39.2784H83.4199C82.9042 39.2784 82.5313 39.1531 82.3044 38.9037C82.076 38.6544 81.9626 38.3219 81.9626 37.9062V11.2736C81.9626 10.8696 82.076 10.5428 82.3044 10.2934C82.5313 10.0441 82.9042 9.92017 83.4199 9.92017H87.4883C87.7638 9.92017 88.8734 9.94937 88.8734 9.94937V20.3983ZM133.241 17.9568C133.397 17.8255 133.562 17.7424 133.736 17.7074C133.91 17.6709 134.075 17.6534 134.231 17.6534H138.73V20.611C138.911 20.2435 139.169 19.8628 139.505 19.4705C139.841 19.0782 140.266 18.7224 140.782 18.4016C141.298 18.0807 141.912 17.8168 142.627 17.6097C143.34 17.4012 144.179 17.2975 145.138 17.2975C145.894 17.2975 146.58 17.3719 147.199 17.5207C147.817 17.668 148.381 17.8883 148.891 18.1799C149.401 18.4702 149.866 18.8259 150.286 19.2474C150.706 19.6703 151.101 20.1545 151.474 20.6999C151.702 20.3324 152.041 19.946 152.491 19.542C152.94 19.1381 153.478 18.7705 154.101 18.438C154.726 18.1055 155.422 17.8313 156.189 17.6184C156.958 17.404 157.773 17.2975 158.638 17.2975C160.006 17.2975 161.199 17.5586 162.219 18.0807C163.24 18.6042 164.089 19.3159 164.767 20.2187C165.444 21.1214 165.951 22.1757 166.287 23.3804C166.623 24.5864 166.791 25.8727 166.791 27.2378V37.9062C166.791 38.3583 166.692 38.6995 166.495 38.9314C166.296 39.1618 165.982 39.2784 165.549 39.2784H161.392C160.875 39.2784 160.521 39.1925 160.33 39.0204C160.138 38.8483 160.041 38.5128 160.041 38.014V27.2378C160.041 26.7273 159.96 26.252 159.799 25.813C159.637 25.374 159.412 24.9905 159.123 24.6638C158.836 24.3372 158.485 24.0819 158.071 23.8982C157.657 23.7144 157.197 23.621 156.693 23.621C156.238 23.621 155.806 23.71 155.398 23.8894C154.99 24.0673 154.63 24.3138 154.318 24.6288C154.005 24.9423 153.756 25.3229 153.571 25.7677C153.385 26.214 153.292 26.704 153.292 27.2378V37.9062C153.292 38.3583 153.194 38.6995 152.995 38.9314C152.797 39.1618 152.482 39.2784 152.05 39.2784H147.892C147.376 39.2784 147.023 39.1925 146.83 39.0204C146.638 38.8483 146.542 38.5128 146.542 38.014V27.2378C146.542 26.7273 146.467 26.252 146.317 25.813C146.166 25.374 145.951 24.9905 145.668 24.6638C145.387 24.3372 145.045 24.0819 144.643 23.8982C144.241 23.7144 143.788 23.621 143.284 23.621C142.852 23.621 142.43 23.7072 142.016 23.8792C141.601 24.0528 141.229 24.2963 140.899 24.6099C140.569 24.9249 140.293 25.3025 140.07 25.7415C139.849 26.1805 139.72 26.6676 139.684 27.2029V37.9601C139.684 38.1613 139.645 38.3641 139.567 38.5653C139.488 38.7681 139.372 38.9211 139.216 39.0291C139.06 39.1239 138.914 39.1895 138.775 39.2245C138.637 39.2609 138.478 39.2784 138.298 39.2784H134.231C133.714 39.2784 133.342 39.1531 133.114 38.9037C132.886 38.6544 132.772 38.3219 132.772 37.9062V18.9718C132.772 18.7457 132.824 18.5386 132.925 18.349C133.027 18.158 133.169 18.0093 133.348 17.9028L133.241 17.9568ZM117.868 21.8565C117.399 21.8565 116.947 21.9483 116.508 22.1321C116.07 22.3158 115.659 22.5623 115.276 22.8715C114.891 23.1807 114.546 23.5307 114.24 23.923C113.935 24.3138 113.686 24.7119 113.493 25.1159H122.69C122.438 24.6521 122.166 24.2248 121.873 23.834C121.578 23.4417 121.242 23.0975 120.865 22.8C120.486 22.504 120.054 22.2721 119.568 22.1059C119.082 21.9396 118.515 21.8565 117.868 21.8565ZM171.444 11.1131C171.444 10.6143 171.552 10.26 171.769 10.0529C171.984 9.84436 172.32 9.74072 172.777 9.74072H178.355V14.5869C178.355 14.7284 178.323 14.883 178.257 15.0492C178.19 15.2155 178.097 15.3759 177.978 15.5305C177.857 15.685 177.711 15.8119 177.537 15.914C177.362 16.0146 177.168 16.0657 176.951 16.0657H172.777C171.888 16.0657 171.444 15.5728 171.444 14.5869V11.1131Z" fill="#FCFCFC"/>
<path fill-rule="evenodd" clip-rule="evenodd" d="M0 19.4073L27.5136 35.1286V28.3302L12.2698 19.6197L42.0137 2.62372C42.0137 2.62372 40.4724 1.74209 38.913 0.860423C36.9199 -0.286808 34.4653 -0.286808 32.4733 0.860423C23.6959 5.87424 0 19.4073 0 19.4073Z" fill="#FCFCFC"/>
<path fill-rule="evenodd" clip-rule="evenodd" d="M44.6162 4.11084V41.2259C44.6162 43.4991 43.3883 45.6024 41.3963 46.7496C39.8358 47.6313 38.2956 48.5129 38.2956 48.5129V14.5209L23.0518 23.2313L17.1025 19.8321L44.6162 4.11084Z" fill="#FCFCFC"/>
<path fill-rule="evenodd" clip-rule="evenodd" d="M35.6931 50.0002V18.5576L29.7439 21.9568V39.3777L0 22.3817C0 22.3817 0 24.1451 0 25.9297C0 28.2029 1.22784 30.3061 3.21985 31.4534C11.9982 36.4672 35.6931 50.0002 35.6931 50.0002Z" fill="#FCFCFC"/>
</svg>
