<svg width="67" height="66" viewBox="0 0 67 66" fill="none" xmlns="http://www.w3.org/2000/svg">
<path d="M13.0182 14.1623C12.1558 12.658 11.7241 10.9785 11.7634 9.28034C11.7133 7.56407 12.1609 5.86626 13.0607 4.35945C13.9041 3.00922 15.1608 1.91398 16.6761 1.20853C18.3502 0.437873 20.204 0.0507351 22.0779 0.0804175C23.4892 0.0670691 24.8923 0.277657 26.225 0.702822C27.4452 1.08251 28.557 1.70722 29.4788 2.53114C30.4342 3.34055 31.1635 4.3477 31.6055 5.46811V5.60426L28.9046 6.26556V6.14886C28.4209 4.99614 27.5302 4.02412 26.3738 3.38694C25.0806 2.71534 23.6061 2.3917 22.1204 2.45334C20.7528 2.39433 19.3895 2.63437 18.1435 3.15354C17.0238 3.69558 16.1113 4.5369 15.5277 5.56536C14.8705 6.70209 14.548 7.97566 14.5919 9.26089C14.5664 10.515 14.8729 11.7562 15.4851 12.8786C16.0796 13.8948 16.9898 14.7273 18.101 15.271C19.3711 15.8595 20.7824 16.1471 22.2055 16.1073C23.6456 16.1472 25.0708 15.8314 26.3313 15.1932C27.5023 14.5147 28.387 13.493 28.8408 12.2951V12.1784L31.5417 12.8397V12.9759C31.1331 14.1162 30.4416 15.1547 29.5213 16.0101C28.5973 16.8359 27.4866 17.4666 26.2675 17.8579C24.9002 18.2903 23.4607 18.5009 22.0141 18.4803C20.1232 18.5175 18.252 18.1231 16.5698 17.3327C15.0722 16.6165 13.8373 15.5142 13.0182 14.1623ZM52.596 6.81017C52.8031 6.62874 52.9623 6.40666 53.0618 6.16069C53.1613 5.91472 53.1984 5.65129 53.1702 5.39031C53.1841 5.07903 53.1249 4.76864 52.9965 4.48008C52.8681 4.19153 52.6735 3.93152 52.4259 3.71759C51.8234 3.21947 51.0911 2.87121 50.2992 2.70619C49.3544 2.48585 48.3818 2.3812 47.4069 2.39498C45.9315 2.35841 44.4653 2.61731 43.1109 3.15354C41.8767 3.70444 40.8698 4.60485 40.2399 5.72096V5.83766L37.6453 4.98185V4.8457C38.4489 3.26145 39.8227 1.9775 41.5372 1.20853C43.403 0.376274 45.459 -0.0371245 47.5345 0.00261696C48.9782 -0.00366311 50.4139 0.199858 51.7879 0.605571C52.9899 0.963999 54.0484 1.64098 54.829 2.55059C55.6109 3.44179 56.0183 4.55948 55.9775 5.70151V18.3441H53.1702V15.0959C52.682 15.789 52.0453 16.3844 51.2987 16.8464C50.3611 17.4365 49.3173 17.8711 48.215 18.1302C47.0336 18.4058 45.8188 18.543 44.5996 18.5386C43.2921 18.5566 41.9907 18.3725 40.7503 17.994C39.7642 17.6539 38.9072 17.0593 38.2833 16.2824C37.6182 15.4418 37.2812 14.4211 37.3263 13.3843C37.2823 12.8096 37.3692 12.2329 37.5815 11.6905C37.7939 11.1481 38.127 10.6519 38.5598 10.2334C39.3358 9.51981 40.3162 9.02093 41.3883 8.79408C42.6672 8.50806 43.9684 8.31298 45.2802 8.21058L48.3639 7.95773C49.2658 7.88437 50.1611 7.7544 51.0435 7.56872C51.6214 7.4367 52.1547 7.17613 52.596 6.81017ZM40.8566 11.556C40.5873 11.7855 40.3771 12.0668 40.241 12.3796C40.105 12.6924 40.0465 13.0289 40.0698 13.3649C40.0335 13.7961 40.1347 14.2278 40.3612 14.6075C40.5877 14.9873 40.9297 15.2988 41.3458 15.5044C42.4645 15.9962 43.7002 16.2236 44.9399 16.1657C46.3851 16.191 47.8242 15.987 49.1933 15.5627C50.35 15.2226 51.3856 14.6046 52.1919 13.7733C52.8709 12.9604 53.217 11.9556 53.1702 10.9336V8.98858C52.4905 9.29525 51.7778 9.53643 51.0435 9.70824C50.1114 9.89616 49.1664 10.0261 48.215 10.0972L45.6842 10.3306C44.7033 10.4003 43.7294 10.5368 42.7707 10.7391C42.0712 10.8697 41.4153 11.1496 40.8566 11.556ZM13.3372 42.0538C12.002 42.7607 10.4769 43.1111 8.93491 43.0652C7.219 43.1102 5.52389 42.7125 4.04351 41.9177C2.69388 41.0952 1.64258 39.9238 1.0236 38.5528C0.312916 37.0294 -0.035066 35.3851 0.00278812 33.7292C-0.0293327 32.0819 0.31096 30.4463 1.00234 28.925C1.61781 27.5836 2.66331 26.4444 4.00098 25.6574C5.4667 24.8682 7.15052 24.4832 8.84985 24.5487C10.3975 24.5114 11.927 24.8611 13.2734 25.5601C14.3583 26.162 15.2356 27.0317 15.8041 28.0692V21.1449H18.6114V42.7151H15.8254V39.4086C15.296 40.4935 14.431 41.413 13.3372 42.0538ZM15.0385 30.2087C14.5803 29.1782 13.7857 28.302 12.763 27.6996C11.7203 27.1014 10.5053 26.8032 9.27519 26.8438C8.04167 26.8063 6.82275 27.0969 5.76614 27.6802C4.82419 28.286 4.08729 29.1217 3.63944 30.092C3.10471 31.2409 2.84371 32.4808 2.87383 33.7292C2.84935 34.9689 3.10267 36.2001 3.61817 37.3469C4.05026 38.3257 4.79045 39.1651 5.74487 39.7587C6.80532 40.3525 8.03237 40.65 9.27519 40.6145C10.5036 40.6424 11.7147 40.3452 12.763 39.7587C13.7533 39.1761 14.5309 38.3363 14.996 37.3469C16.0314 35.028 16.0314 32.4303 14.996 30.1114L15.0385 30.2087ZM39.5381 42.0149C37.8797 42.7395 36.0589 43.0992 34.2213 43.0652C32.3489 43.1033 30.4946 42.7227 28.8195 41.9566C27.3035 41.2389 26.0586 40.1207 25.2467 38.7473C24.4111 37.2494 23.9946 35.5854 24.0345 33.9042C23.9943 32.1975 24.4337 30.5099 25.3105 29.0028C26.1503 27.6023 27.4225 26.459 28.9684 25.7157C30.6427 24.9225 32.5061 24.5215 34.3915 24.5487C36.0866 24.5245 37.7658 24.8502 39.3041 25.5018C40.6415 26.0844 41.7647 27.0102 42.5367 28.1664C43.356 29.4247 43.7826 30.8643 43.7702 32.3288V34.5266H26.863C26.8996 35.6373 27.2435 36.7214 27.8625 37.6776C28.4929 38.5976 29.3914 39.3386 30.4571 39.8171C31.7136 40.3234 33.0716 40.5849 34.4446 40.5849C35.8177 40.5849 37.1757 40.3234 38.4322 39.8171C39.5926 39.2626 40.5583 38.4199 41.2182 37.3858V37.2691L43.3449 38.5917V38.7084C42.3949 40.0568 41.0847 41.1613 39.5381 41.9177V42.0149ZM40.9417 32.3288V31.9787C40.967 31.0036 40.6786 30.0432 40.1123 29.2167C39.5574 28.4254 38.758 27.8026 37.8155 27.4273C36.7056 27.0016 35.5096 26.7961 34.3064 26.8244C33.0335 26.8027 31.7707 27.035 30.606 27.5051C29.5784 27.9386 28.6916 28.6088 28.0327 29.4501C27.3975 30.309 27.0031 31.2976 26.8842 32.3288H40.9417ZM66.1005 27.4662C65.4986 26.4961 64.5957 25.7109 63.506 25.21C62.2604 24.7148 60.9069 24.4885 59.5503 24.5487C57.9696 24.5177 56.4077 24.8664 55.0204 25.5601C53.8875 26.1822 52.9555 27.0682 52.3195 28.1275V25.035H49.491V42.7151H52.2983V32.9901C52.2864 31.9033 52.5793 30.8319 53.1489 29.878C53.6979 28.9744 54.5166 28.2323 55.5096 27.7385C56.5784 27.2062 57.7806 26.938 58.9974 26.9605C59.7064 26.9171 60.4175 27.0106 61.0844 27.2352C61.7513 27.4597 62.359 27.8101 62.868 28.2637C63.8052 29.3126 64.2759 30.646 64.1865 31.9981V42.7735H66.9937V31.1034C67.0487 29.8467 66.7406 28.5989 66.1005 27.4857V27.4662ZM18.0372 50.5535C19.2929 50.0179 20.6727 49.7708 22.0566 49.8339C23.5421 49.7744 25.0159 50.0979 26.31 50.7675C27.457 51.4146 28.3447 52.3834 28.8408 53.5294V53.6461L31.5417 52.9848V52.8487C31.0997 51.7283 30.3704 50.7211 29.415 49.9117C28.4831 49.1043 27.3739 48.4876 26.1612 48.1028C24.7945 47.668 23.3546 47.4573 21.9078 47.4804C20.0355 47.4439 18.1816 47.8244 16.506 48.5891C15.0077 49.3201 13.7683 50.4266 12.9331 51.7789C12.0491 53.2905 11.6094 54.9861 11.6571 56.6998C11.6348 58.3714 12.0659 60.022 12.9118 61.504C13.7364 62.8802 14.9867 64.0033 16.506 64.7327C18.1974 65.5172 20.0756 65.9049 21.9716 65.8608C23.4172 65.8918 24.8574 65.6877 26.225 65.2579C27.4111 64.8702 28.4919 64.2533 29.3937 63.449C30.314 62.5936 31.0055 61.5551 31.4141 60.4148V60.2786L28.777 59.559V59.6757C28.3431 60.8727 27.4621 61.8918 26.2888 62.5543C25.0332 63.2057 23.6058 63.5287 22.163 63.4879C20.7409 63.5172 19.3324 63.2302 18.0584 62.6515C16.9473 62.1078 16.0371 61.2754 15.4426 60.2592C14.8129 59.1209 14.4988 57.8585 14.5281 56.5831C14.49 55.2984 14.8121 54.0261 15.4639 52.8876C16.0569 51.8984 16.9508 51.0877 18.0372 50.5535ZM54.9779 51.0981C55.7863 52.3793 56.1911 53.8402 56.1476 55.3188V57.6139H39.134C39.1878 58.7247 39.5383 59.8066 40.1548 60.7649C40.7765 61.6868 41.678 62.4234 42.7494 62.8849C43.9783 63.4147 45.3256 63.6744 46.6838 63.6435C48.0825 63.6679 49.4674 63.3879 50.7245 62.8266C51.8882 62.2854 52.8558 61.4478 53.5105 60.4148V60.2981L55.6372 61.6207V61.7374C54.6878 63.0954 53.3588 64.1966 51.7879 64.9272C50.1347 65.6676 48.3114 66.0345 46.4711 65.997C44.589 66.0386 42.7253 65.6509 41.048 64.8689C39.5622 64.0882 38.3688 62.9154 37.6241 61.504C36.7922 59.996 36.3588 58.3305 36.3588 56.6414C36.3588 54.9524 36.7922 53.2869 37.6241 51.7789C38.4621 50.3839 39.7256 49.2419 41.2607 48.4918C42.9766 47.7152 44.8768 47.3409 46.7901 47.4026C48.4796 47.3668 50.1548 47.6932 51.6815 48.3557C53.0519 48.9526 54.1987 49.9068 54.9779 51.0981ZM53.3191 55.2799V54.9298C53.3469 53.9545 53.0583 52.9934 52.4897 52.1679C51.9291 51.3811 51.1313 50.7596 50.1928 50.3785C49.1113 49.986 47.9531 49.8007 46.7901 49.8339C45.5148 49.8106 44.2502 50.0499 43.0897 50.5341C42.0621 50.9675 41.1753 51.6378 40.5164 52.4791C39.8845 53.3323 39.4902 54.3139 39.368 55.3383L53.3191 55.2799Z" fill="#FCFCFC"/>
</svg>
