<svg width="35" height="35" viewBox="0 0 35 35" fill="none" xmlns="http://www.w3.org/2000/svg">
<circle cx="17.5" cy="17.5" r="17.5" fill="#121112"/>
<path fill-rule="evenodd" clip-rule="evenodd" d="M26 24V14.1416H9V24H26ZM21 11H9V13.7529H26V13V11H21ZM14.1329 15.4629H11.1812V15.4551C11.17 15.4546 11.1591 15.4565 11.1489 15.4604C11.1418 15.4634 11.1351 15.4668 11.129 15.4717C11.1145 15.4829 11.1049 15.4995 11.1022 15.5171V18.3164C11.104 18.3354 11.1129 18.3535 11.1273 18.3672C11.1418 18.3809 11.1609 18.3892 11.1812 18.3911H14.1329C14.152 18.3892 14.1694 18.3804 14.1816 18.3662C14.1938 18.3525 14.1998 18.3345 14.1982 18.3164V15.5249C14.1987 15.5166 14.1973 15.5083 14.1941 15.5005C14.1909 15.4932 14.1862 15.4858 14.1801 15.4805L14.1659 15.4702L14.1584 15.4668C14.1503 15.4639 14.1416 15.4624 14.1329 15.4629ZM18.9745 15.3755H16.0255V15.3677C15.9966 15.3721 15.9688 15.3804 15.9432 15.3931C15.9301 15.3999 15.9175 15.4077 15.9056 15.4165C15.8896 15.4331 15.8779 15.4526 15.8712 15.4736C15.8668 15.4878 15.8646 15.5024 15.8649 15.5171V18.3164C15.863 18.3364 15.8657 18.3569 15.8728 18.376C15.8799 18.395 15.891 18.4126 15.9056 18.4272C15.9397 18.4546 15.9812 18.4727 16.0255 18.4785H18.9745C19.0188 18.4727 19.0603 18.4546 19.0944 18.4272C19.1218 18.3965 19.1355 18.3564 19.1324 18.3164V15.5249C19.1328 15.4883 19.1193 15.4526 19.0944 15.4243C19.0596 15.3984 19.0183 15.3818 18.9745 15.3755ZM16.0391 15.5503H18.9609V18.2959H16.0391V15.5503ZM23.8162 15.3755H20.8671V15.3677C20.8408 15.3701 20.8158 15.3784 20.7937 15.3916C20.7817 15.3984 20.7708 15.4067 20.7609 15.4165C20.731 15.4429 20.7125 15.4785 20.7091 15.5171V18.3164C20.7091 18.3374 20.7136 18.3579 20.7225 18.377C20.7277 18.3877 20.7341 18.3979 20.7417 18.4072C20.7474 18.4146 20.7538 18.4214 20.7609 18.4272C20.788 18.4565 20.8259 18.4751 20.8671 18.4785H23.8162C23.8387 18.478 23.8611 18.4736 23.8816 18.4644C23.8981 18.4575 23.9132 18.4478 23.9264 18.436L23.9359 18.4272C23.9526 18.4131 23.9661 18.396 23.9755 18.377C23.9849 18.3579 23.9899 18.3374 23.9904 18.3164V15.5249C23.9879 15.5044 23.9814 15.4849 23.9713 15.4673C23.9623 15.4512 23.9503 15.4365 23.9359 15.4243C23.9042 15.394 23.8612 15.3765 23.8162 15.3755ZM20.8943 15.5503H23.8025V18.2959H20.8943V15.5503ZM14.1329 19.2949H11.1812C11.1589 19.2954 11.1371 19.3003 11.1171 19.3091C11.0969 19.3184 11.0789 19.3311 11.0641 19.3467C11.0505 19.3599 11.0399 19.3755 11.033 19.3926C11.0277 19.4058 11.0245 19.4194 11.0236 19.4336L11.0232 19.4468V22.249C11.0226 22.2671 11.026 22.2856 11.033 22.3027C11.0399 22.3203 11.0505 22.3359 11.0641 22.3491C11.0791 22.3643 11.0972 22.3765 11.1173 22.3853C11.1375 22.3936 11.1592 22.3979 11.1812 22.3979H14.1329C14.1737 22.3955 14.2118 22.3779 14.2391 22.3491C14.2565 22.3384 14.2703 22.3232 14.2794 22.3057C14.2885 22.2881 14.2925 22.2686 14.2909 22.249V19.4468C14.292 19.4341 14.2905 19.4214 14.2869 19.4087L14.2794 19.3901C14.2703 19.3726 14.2565 19.3574 14.2391 19.3467C14.212 19.3169 14.1741 19.2988 14.1329 19.2949ZM11.1948 19.4727H14.1057V22.2231H11.1948V19.4727ZM18.9745 19.2949H16.0255C15.9812 19.3013 15.9397 19.3188 15.9056 19.3467C15.8921 19.3599 15.8816 19.3755 15.8745 19.3926C15.8676 19.4102 15.8643 19.4282 15.8649 19.4468V22.249C15.8643 22.2671 15.8676 22.2856 15.8745 22.3027C15.8781 22.3115 15.8824 22.3198 15.8876 22.3271C15.8928 22.335 15.8988 22.3423 15.9056 22.3491C15.9398 22.376 15.9814 22.3931 16.0255 22.3979H18.9745C19.0186 22.3931 19.0602 22.376 19.0944 22.3491C19.1094 22.3325 19.1202 22.3135 19.1265 22.293C19.1307 22.2788 19.1328 22.2642 19.1324 22.249V19.4468C19.1331 19.4185 19.1251 19.3906 19.1097 19.3667L19.0944 19.3467C19.0603 19.3188 19.0188 19.3013 18.9745 19.2949ZM16.0391 19.4727H18.9609V22.2231H16.0391V19.4727ZM23.8162 19.2949H20.8671C20.8259 19.2988 20.788 19.3169 20.7609 19.3467C20.7305 19.3726 20.7119 19.4082 20.7091 19.4468V22.249C20.7142 22.2866 20.7325 22.3218 20.7611 22.3491C20.7897 22.376 20.8269 22.3936 20.8671 22.3979H23.8162C23.8386 22.3984 23.8608 22.394 23.8815 22.3857C23.8934 22.3804 23.9048 22.374 23.9152 22.3667C23.9226 22.3613 23.9296 22.3555 23.9359 22.3491C23.955 22.3335 23.9697 22.314 23.9791 22.2925C23.9851 22.2788 23.9889 22.2642 23.9904 22.249V19.4468C23.9866 19.4082 23.967 19.3721 23.9359 19.3467C23.9208 19.3306 23.9022 19.3179 23.8816 19.3091C23.8611 19.3003 23.8387 19.2954 23.8162 19.2949ZM20.8943 19.4727H23.8025V22.2231H20.8943V19.4727Z" fill="white"/>
</svg>
