<svg width="35" height="35" viewBox="0 0 35 35" fill="none" xmlns="http://www.w3.org/2000/svg">
<circle cx="17.5" cy="17.5" r="17.5" fill="#121112"/>
<path fill-rule="evenodd" clip-rule="evenodd" d="M9 10L21.038 10L21.038 20.9933L9 20.9933L9 10ZM24.4454 21.7985L24.4454 20.9209L25.4141 20.9209L25.4141 21.7985L24.4454 21.7985ZM24.4454 20.4677L24.4454 19.5902L25.4141 19.5902L25.4141 20.4629L24.4454 20.4677ZM21.038 14.2695L21.0539 14.2695L21.0539 15.1591L21.038 15.1591L21.038 14.2695ZM24.4454 19.1369L24.4454 18.2594L25.4141 18.2594L25.4141 19.1369L24.4454 19.1369ZM21.5422 14.2695L22.5108 14.2695L22.5108 15.1591L21.5316 15.1591L21.5422 14.2695ZM24.4454 17.8062L24.4454 16.9286L25.4141 16.9286L25.4141 17.811L24.4454 17.8062ZM23.8542 13.7271L26 13.7271L26 15.6871L25.4141 15.6871L25.4141 16.4754L24.4375 16.4754L24.4375 15.6871L23.8463 15.6871L23.8463 15.1591L22.9806 15.1591L22.9806 14.2816L23.8463 14.2816L23.8542 13.7271ZM15.8042 23.5824L16.6831 23.5824L16.6831 24.4576L15.8042 24.4576L15.8042 25L13.6743 25L13.6743 23.04L14.2523 23.04L14.2523 22.2517L15.2262 22.2517L15.2262 23.04L15.8042 23.04L15.8042 23.5824ZM17.1635 23.5824L18.14 23.5824L18.14 24.4576L17.1635 24.4576L17.1635 23.5824ZM18.6204 23.5824L19.6075 23.5824L19.6075 24.4576L18.631 24.4576L18.6204 23.5824ZM20.0773 23.5824L21.0539 23.5824L21.0539 24.4576L20.0773 24.4576L20.0773 23.5824ZM21.5316 23.5824L22.5108 23.5824L22.5108 24.4576L21.5316 24.4576L21.5316 23.5824ZM22.9885 23.5824L23.8542 23.5824L23.8542 23.04L24.4454 23.04L24.4454 22.2517L25.4141 22.2517L25.4141 23.04L25.9921 23.04L25.9921 25L23.8463 25L23.8463 24.4576L22.9806 24.4576L22.9885 23.5824ZM15.7725 15.6413L17.6914 16.3139L19.6128 16.9865L17.6438 17.4397L17.2321 19.1659L16.4957 17.3963L15.7725 15.6413Z" fill="white"/>
</svg>
