<svg width="35" height="35" viewBox="0 0 35 35" fill="none" xmlns="http://www.w3.org/2000/svg">
<circle cx="17.5" cy="17.5" r="17.5" fill="#121112"/>
<path d="M22 20.0918C22 20.6659 21.845 21.2055 21.5351 21.7107C21.2376 22.2158 20.7913 22.6406 20.1963 22.9851C19.6136 23.3295 18.9194 23.5362 18.1136 23.6051V25H16.905V23.6051C15.7397 23.5017 14.7975 23.163 14.0785 22.589C13.3595 22.0149 13 21.2572 13 20.3157H15.2686C15.3058 20.7635 15.4607 21.1366 15.7335 21.4351C16.0062 21.7222 16.3967 21.9059 16.905 21.9862V18.1975C16.0744 18.0023 15.3988 17.8071 14.8781 17.6119C14.3574 17.4053 13.9112 17.0838 13.5393 16.6475C13.1798 16.2113 13 15.6142 13 14.8565C13 13.9036 13.3595 13.1171 14.0785 12.4971C14.7975 11.8657 15.7397 11.4983 16.905 11.3949V10H18.1136V11.3949C19.2045 11.4868 20.0785 11.8083 20.7355 12.3594C21.405 12.899 21.7831 13.6452 21.8698 14.5982H19.6012C19.564 14.2423 19.4153 13.9265 19.155 13.651C18.8946 13.364 18.5475 13.1688 18.1136 13.0654V16.7853C18.9442 16.969 19.6198 17.1642 20.1405 17.3708C20.6612 17.566 21.1012 17.8817 21.4607 18.318C21.8202 18.7428 22 19.3341 22 20.0918ZM15.157 14.7532C15.157 15.2239 15.3058 15.5913 15.6033 15.8553C15.9132 16.1194 16.3471 16.3318 16.905 16.4925V13.0138C16.3719 13.0712 15.9442 13.2491 15.6219 13.5476C15.312 13.8462 15.157 14.248 15.157 14.7532ZM18.1136 21.9862C18.6591 21.9059 19.0868 21.7049 19.3967 21.3835C19.7066 21.0505 19.8616 20.6544 19.8616 20.1952C19.8616 19.7359 19.7066 19.38 19.3967 19.1274C19.0992 18.8634 18.6715 18.651 18.1136 18.4902V21.9862Z" fill="white"/>
</svg>
