<svg width="143" height="27" viewBox="0 0 143 27" fill="none" xmlns="http://www.w3.org/2000/svg">
<path d="M9.937 7.764H3.268V12.096C3.55933 11.6907 3.99 11.3613 4.56 11.108C5.13 10.842 5.74433 10.709 6.403 10.709C7.45433 10.709 8.30933 10.9307 8.968 11.374C9.62667 11.8047 10.0953 12.3683 10.374 13.065C10.6653 13.749 10.811 14.4773 10.811 15.25C10.811 16.162 10.64 16.979 10.298 17.701C9.956 18.423 9.43033 18.993 8.721 19.411C8.02433 19.829 7.15667 20.038 6.118 20.038C4.788 20.038 3.71133 19.696 2.888 19.012C2.06467 18.328 1.56433 17.416 1.387 16.276H3.078C3.24267 16.998 3.591 17.5617 4.123 17.967C4.655 18.3723 5.32633 18.575 6.137 18.575C7.13767 18.575 7.89133 18.2773 8.398 17.682C8.90467 17.074 9.158 16.276 9.158 15.288C9.158 14.3 8.90467 13.54 8.398 13.008C7.89133 12.4633 7.144 12.191 6.156 12.191C5.48467 12.191 4.89567 12.3557 4.389 12.685C3.895 13.0017 3.534 13.4387 3.306 13.996H1.672V6.244H9.937V7.764ZM13.9447 20.114C13.6153 20.114 13.3367 20 13.1087 19.772C12.8807 19.544 12.7667 19.2653 12.7667 18.936C12.7667 18.6067 12.8807 18.328 13.1087 18.1C13.3367 17.872 13.6153 17.758 13.9447 17.758C14.2613 17.758 14.5273 17.872 14.7427 18.1C14.9707 18.328 15.0847 18.6067 15.0847 18.936C15.0847 19.2653 14.9707 19.544 14.7427 19.772C14.5273 20 14.2613 20.114 13.9447 20.114ZM17.0979 12.989C17.0979 10.8103 17.4526 9.113 18.1619 7.897C18.8713 6.66833 20.1126 6.054 21.8859 6.054C23.6466 6.054 24.8816 6.66833 25.5909 7.897C26.3003 9.113 26.6549 10.8103 26.6549 12.989C26.6549 15.2057 26.3003 16.9283 25.5909 18.157C24.8816 19.3857 23.6466 20 21.8859 20C20.1126 20 18.8713 19.3857 18.1619 18.157C17.4526 16.9283 17.0979 15.2057 17.0979 12.989ZM24.9449 12.989C24.9449 11.887 24.8689 10.956 24.7169 10.196C24.5776 9.42333 24.2799 8.80267 23.8239 8.334C23.3806 7.86533 22.7346 7.631 21.8859 7.631C21.0246 7.631 20.3659 7.86533 19.9099 8.334C19.4666 8.80267 19.1689 9.42333 19.0169 10.196C18.8776 10.956 18.8079 11.887 18.8079 12.989C18.8079 14.129 18.8776 15.0853 19.0169 15.858C19.1689 16.6307 19.4666 17.2513 19.9099 17.72C20.3659 18.1887 21.0246 18.423 21.8859 18.423C22.7346 18.423 23.3806 18.1887 23.8239 17.72C24.2799 17.2513 24.5776 16.6307 24.7169 15.858C24.8689 15.0853 24.9449 14.129 24.9449 12.989Z" fill="#121112"/>
<path d="M47.8225 3.54638C47.8783 3.37441 48.1217 3.3744 48.1775 3.54638L50.3155 10.1263C50.3405 10.2032 50.4121 10.2553 50.493 10.2553H57.4116C57.5924 10.2553 57.6676 10.4867 57.5213 10.593L51.9241 14.6596C51.8586 14.7072 51.8313 14.7914 51.8563 14.8683L53.9942 21.4483C54.0501 21.6203 53.8533 21.7633 53.707 21.657L48.1097 17.5904C48.0443 17.5428 47.9557 17.5428 47.8903 17.5904L42.293 21.657C42.1467 21.7633 41.9499 21.6203 42.0058 21.4483L44.1437 14.8683C44.1687 14.7914 44.1414 14.7072 44.0759 14.6596L38.4787 10.593C38.3324 10.4867 38.4076 10.2553 38.5884 10.2553H45.507C45.5879 10.2553 45.6595 10.2032 45.6845 10.1263L47.8225 3.54638Z" fill="#E0CF34"/>
<path d="M68.8225 3.54638C68.8783 3.37441 69.1217 3.3744 69.1775 3.54638L71.3155 10.1263C71.3405 10.2032 71.4121 10.2553 71.493 10.2553H78.4116C78.5924 10.2553 78.6676 10.4867 78.5213 10.593L72.9241 14.6596C72.8586 14.7072 72.8313 14.7914 72.8563 14.8683L74.9942 21.4483C75.0501 21.6203 74.8533 21.7633 74.707 21.657L69.1097 17.5904C69.0443 17.5428 68.9557 17.5428 68.8903 17.5904L63.293 21.657C63.1467 21.7633 62.9499 21.6203 63.0058 21.4483L65.1437 14.8683C65.1687 14.7914 65.1414 14.7072 65.0759 14.6596L59.4787 10.593C59.3324 10.4867 59.4076 10.2553 59.5884 10.2553H66.507C66.5879 10.2553 66.6595 10.2032 66.6845 10.1263L68.8225 3.54638Z" fill="#E0CF34"/>
<path d="M89.8225 3.54638C89.8783 3.37441 90.1217 3.3744 90.1775 3.54638L92.3155 10.1263C92.3405 10.2032 92.4121 10.2553 92.493 10.2553H99.4116C99.5924 10.2553 99.6676 10.4867 99.5213 10.593L93.9241 14.6596C93.8586 14.7072 93.8313 14.7914 93.8563 14.8683L95.9942 21.4483C96.0501 21.6203 95.8533 21.7633 95.707 21.657L90.1097 17.5904C90.0443 17.5428 89.9557 17.5428 89.8903 17.5904L84.293 21.657C84.1467 21.7633 83.9499 21.6203 84.0058 21.4483L86.1437 14.8683C86.1687 14.7914 86.1414 14.7072 86.0759 14.6596L80.4787 10.593C80.3324 10.4867 80.4076 10.2553 80.5884 10.2553H87.507C87.5879 10.2553 87.6595 10.2032 87.6845 10.1263L89.8225 3.54638Z" fill="#E0CF34"/>
<path d="M109.261 10.3135L111 4.96031L112.739 10.3135C112.845 10.64 113.15 10.8611 113.493 10.8611H119.122L114.568 14.1696C114.29 14.3714 114.174 14.729 114.28 15.0555L116.02 20.4088L111.466 17.1003C111.188 16.8985 110.812 16.8985 110.534 17.1003L105.98 20.4088L107.72 15.0555C107.826 14.729 107.71 14.3714 107.432 14.1696L102.878 10.8611H108.507C108.85 10.8611 109.155 10.64 109.261 10.3135Z" fill="#E0CF34" stroke="#E0CF34" stroke-width="1.21154"/>
<path d="M130.261 10.3135L132 4.96031L133.739 10.3135C133.845 10.64 134.15 10.8611 134.493 10.8611H140.122L135.568 14.1696C135.29 14.3714 135.174 14.729 135.28 15.0555L137.02 20.4088L132.466 17.1003C132.188 16.8985 131.812 16.8985 131.534 17.1003L126.98 20.4088L128.72 15.0555C128.826 14.729 128.71 14.3714 128.432 14.1696L123.878 10.8611H129.507C129.85 10.8611 130.155 10.64 130.261 10.3135Z" fill="#E0CF34" stroke="#E0CF34" stroke-width="1.21154"/>
</svg>
