<svg width="31" height="41" viewBox="0 0 31 41" fill="none" xmlns="http://www.w3.org/2000/svg">
<path d="M30.5965 32.0831V28.1261L2.65832 12.5263L2.48082 12.4268V12.2223V10.5635V10.3627L2.65275 10.2623L15.1261 2.992L15.298 2.89161L15.4699 2.992L27.8034 10.1901L30.2838 8.74474L15.298 -2.64247e-06L0 8.9169V13.9036L27.9377 29.5039L28.1157 29.6029V29.8079V30.4365V30.6368L27.9437 30.7372L15.4699 38.0075L15.298 38.1079L15.1261 38.0075L2.65275 30.7372L2.48082 30.6368V30.4365V22.379L0 21.1012V32.0831L15.298 41L30.5965 32.0831Z" fill="#52659F"/>
<path d="M24.3857 12.1836L15.2984 6.87978L6.14502 12.215L8.63932 13.6528L15.1264 9.87178L15.2984 9.77139L15.4703 9.87225L21.9058 13.6289L24.3857 12.1836Z" fill="#A86AA6"/>
<path d="M23.189 29.5078L20.6432 28.0995L15.4701 31.1286L15.2982 31.229L15.1253 31.1286L7.72745 26.8165L7.55506 26.7161V26.5158V20.6172L5.07471 19.2483V28.1619L15.2972 34.1206L23.189 29.5078Z" fill="#A667A4"/>
</svg>
