<svg width="78" height="80" viewBox="0 0 78 80" fill="none" xmlns="http://www.w3.org/2000/svg">
<path fill-rule="evenodd" clip-rule="evenodd" d="M16.9929 0.0239676H59.6979C60.1185 0.0270626 60.5343 0.10535 60.9214 0.254424C61.3085 0.403497 61.6593 0.620411 61.9537 0.892648C62.248 1.16489 62.4802 1.48709 62.6367 1.84083C62.7933 2.19456 62.8713 2.57284 62.8661 2.95394V11.5779H57.708V17.0583H62.8661V77.0463C62.8664 77.8155 62.5356 78.5544 61.9439 79.106C61.3523 79.6577 60.5465 79.9784 59.6979 80H16.9929C16.1408 79.9877 15.3275 79.6747 14.7261 79.1275C14.1247 78.5803 13.7825 77.8422 13.7724 77.07V50.9728H18.9305V45.5042H13.7724V2.95394C13.7671 2.56472 13.8478 2.17847 14.0098 1.81795C14.1718 1.45743 14.4117 1.12995 14.7154 0.85471C15.0192 0.579474 15.3806 0.362074 15.7785 0.215326C16.1764 0.0685789 16.6027 -0.00455645 17.0322 0.000219717L16.9929 0.0239676ZM57.708 5.77718V67.3547H18.8912V5.77718H57.708ZM35.0856 70.5694H41.5136C41.5662 70.5659 41.619 70.5726 41.6684 70.5892C41.7178 70.6059 41.7627 70.632 41.8 70.6658C41.8373 70.6996 41.8661 70.7402 41.8844 70.785C41.9028 70.8298 41.9103 70.8776 41.9063 70.9253V76.0379C41.9103 76.0856 41.9028 76.1335 41.8844 76.1783C41.8661 76.223 41.8373 76.2636 41.8 76.2974C41.7627 76.3312 41.7178 76.3573 41.6684 76.374C41.619 76.3906 41.5662 76.3973 41.5136 76.3938H35.0856C35.033 76.3973 34.9802 76.3906 34.9308 76.374C34.8814 76.3573 34.8365 76.3312 34.7992 76.2974C34.7619 76.2636 34.7331 76.223 34.7148 76.1783C34.6964 76.1335 34.6889 76.0856 34.6929 76.0379V70.9253C34.6889 70.8776 34.6964 70.8298 34.7148 70.785C34.7331 70.7402 34.7619 70.6996 34.7992 70.6658C34.8365 70.632 34.8814 70.6059 34.9308 70.5892C34.9802 70.5726 35.033 70.5659 35.0856 70.5694ZM0.157093 43.4757H10.5519C10.6304 43.4757 10.709 43.4758 10.709 43.6182V53.108C10.7059 53.1449 10.6884 53.1795 10.6596 53.2056C10.6308 53.2318 10.5925 53.2477 10.5519 53.2504H0.157093C0.116431 53.2477 0.0782036 53.2318 0.0493713 53.2056C0.020539 53.1795 0.00302423 53.1449 0 53.108V43.6182C0 43.4758 0.0785435 43.4757 0.157093 43.4757ZM21.5096 52.6098H22.0594V53.191H21.5096V52.6098ZM22.5438 53.191V52.6098H23.0937V53.191H22.5438ZM23.4995 53.191V52.6098H24.1279V53.191H23.4995ZM24.5206 53.191V52.6098H25.1621V53.191H24.5206ZM25.5549 53.191V52.6098H26.1178L26.1964 52.6809V53.191H25.5549ZM26.5891 53.191V52.6098H27.1521V53.191H26.5891ZM27.6234 53.191V52.6098H28.1732V53.191H27.6103H27.6234ZM28.579 53.191V52.6098H29.2075V53.191H28.579ZM29.6133 53.191V52.6098H30.2417V53.191H29.6133ZM30.6344 53.191V52.6098H31.1974L31.2759 52.6809V53.191H30.6344ZM22.5438 43.974V43.4757H23.0937V43.974H22.5438ZM31.708 44.3417H32.3494V44.923H31.708V44.3417ZM23.5388 43.974V43.4757H24.1672V43.974H23.5388ZM31.708 45.2788H32.3494V45.777C32.3494 45.7959 32.3412 45.8141 32.3264 45.8274C32.3117 45.8408 32.2917 45.8482 32.2709 45.8482H31.708V45.2788ZM24.5599 43.974V43.4757H25.2014V43.974H24.5599ZM31.708 46.2041H32.3494V46.7142H31.708V46.2041ZM25.5549 43.974V43.4757H26.1964V43.974H25.5549ZM31.6687 47.1412H32.3102V47.6513H31.6687V47.1412ZM26.5891 43.974V43.4757H27.1521V43.974H26.5891ZM31.6687 48.0072H32.3102V48.5884H31.6687V48.0309V48.0072ZM27.6234 43.974V43.4757H28.1732V43.974H27.6103H27.6234ZM31.6687 48.9443H32.3102V49.5137H31.6687V48.9443ZM28.579 43.974V43.4757H29.2075V43.974H28.579ZM31.6687 49.9052H32.3102V50.4034L32.2316 50.4746H31.6687V49.9052ZM29.6133 43.974V43.4757H30.2417V43.974H29.6133ZM31.6687 50.8186H32.3102V51.3168H31.6687V50.8186ZM30.6344 43.974V43.4757H31.2759V43.974H30.6344ZM31.6687 51.7438H32.3102V52.2539H31.6687V51.7438ZM31.6687 43.974V43.4757H32.2316V43.974H31.6687ZM31.6687 52.6098H32.3102V53.191H31.6687V52.6098ZM21.5096 43.4046H22.0594V43.974H21.5096V43.4046ZM21.5096 44.3417H22.0594V44.923H21.5096V44.3417ZM21.5096 45.2788H22.0594V45.8482H21.5096V45.2788ZM21.5096 46.2041H22.0594V46.7142H21.5096V46.2041ZM21.5096 47.1412H22.0594V47.6513H21.5096V47.1412ZM21.5096 48.0072H22.0594V48.5884H21.5096V48.0309V48.0072ZM21.5096 48.9443H22.0594V49.5137H21.5096V48.9443ZM21.5096 49.8814H22.0594V50.4034H21.5096V49.834V49.8814ZM21.5096 50.8186H22.0594V51.3168H21.5096V50.8186ZM21.5096 51.7438H22.0594V52.2539H21.5096V51.7438ZM67.1601 18.6597H67.71V19.1579H67.1601V18.6597ZM68.1944 19.1579V18.6597H68.7573V19.2291H68.2075V19.1579H68.1944ZM69.137 19.1579V18.6597H69.7785V19.2291H69.137V19.1579ZM70.1712 19.1579V18.6597H70.8127V19.2291H70.1712V19.1579ZM71.2054 19.1579V18.6597H71.8469V19.1579L71.7684 19.2291H71.2054V19.1579ZM72.2397 19.1579V18.6597H72.8026V19.2291H72.2397V19.1579ZM73.2739 19.1579V18.6597H73.8238V19.2291H73.2739V19.1579ZM74.2296 19.1579V18.6597H74.858V19.2291H74.2296V19.1579ZM75.2508 19.1579V18.6597H75.8922V19.2291H75.3031V19.1579H75.2508ZM76.285 19.1579V18.6597H76.9265V19.1579L76.8479 19.2291H76.285V19.1579ZM68.1944 9.95276V9.45449H68.7573V10.0714H68.2075V10.0002L68.1944 9.95276ZM77.3585 10.3917H77.9215V10.8899H77.28V10.3917H77.3585ZM69.1762 9.95276V9.45449H69.8177V10.0714H69.1762V10.0002V9.95276ZM77.3585 11.2457H77.9215L78 11.3169V11.827H77.3585V11.2576V11.2457ZM70.2105 9.95276V9.45449H70.852V10.0714H70.2105V10.0002V9.95276ZM77.3585 12.1829H77.9215V12.7641H77.28V12.1829H77.3585ZM71.2447 9.95276V9.45449H71.8862V9.95276C71.8862 9.97164 71.8779 9.98973 71.8632 10.0031C71.8485 10.0164 71.8285 10.0239 71.8077 10.0239H71.2447V9.95276ZM77.3585 13.12H77.9215V13.7012H77.28V13.12H77.3585ZM72.279 9.95276V9.45449H72.8419V10.0714H72.279V10.0002V9.95276ZM77.3585 14.0571H77.9215V14.5554H77.28V14.0571H77.3585ZM73.3132 9.95276V9.45449H73.863V10.0714H73.3132V10.0002V9.95276ZM77.3585 14.9943H77.9215V15.4925H77.28V14.9943H77.3585ZM74.2689 9.95276V9.45449H74.8973V10.0714H74.2689V10.0002V9.95276ZM77.3585 15.8839H77.9215L78 15.9551V16.4533H77.3585V15.8839ZM75.29 9.95276V9.45449H75.9315V10.0714H75.3031V10.0002L75.29 9.95276ZM77.3585 16.7854H77.9215V17.3667H77.28V16.7854H77.3585ZM76.3243 9.95276V9.45449H76.9658V9.95276C76.9658 9.97164 76.9575 9.98973 76.9428 10.0031C76.928 10.0164 76.9081 10.0239 76.8872 10.0239H76.3243V9.95276ZM77.3585 17.7226H77.9215V18.3038H77.28V17.7226H77.3585ZM77.3585 9.95276V9.45449H77.9215V10.0714H77.3585V10.0002V9.95276ZM77.3585 18.6597H77.9215V19.1579H77.28V18.6597H77.3585ZM67.1994 9.45449H67.7493V9.95276H67.1994V9.45449ZM67.1994 10.3917H67.7493V10.8899H67.1994V10.3917ZM67.1994 11.2457H67.7493V11.827H67.1994V11.2576V11.2457ZM67.1994 12.1829H67.7493V12.7641H67.1994V12.1829ZM67.1994 13.12H67.7493V13.7012H67.1994V13.12ZM67.1994 14.0571H67.7493V14.5554H67.1994V14.0571ZM67.1994 14.9943H67.7493V15.4925H67.1994V14.9943ZM67.1994 15.8602H67.7493V16.4296H67.1994V15.8602ZM67.1994 16.7854H67.7493V17.3667H67.1994V16.7854ZM67.1994 17.7226H67.7493V18.3038H67.1994V17.7226ZM57.5116 13.7724H65.7724V14.8163H57.5116V13.7369V13.7724ZM12.2276 47.7937H20.3968V48.8732H12.2276V47.7937ZM44.5378 9.45449H54.9325C54.9732 9.45723 55.0114 9.47311 55.0403 9.49923C55.0691 9.52536 55.0866 9.55999 55.0896 9.59683V19.0156C55.0896 19.1579 55.0111 19.2291 54.9325 19.2291H44.5378C44.4592 19.2291 44.3807 19.1579 44.3807 19.0156V9.59683C44.3837 9.55999 44.4012 9.52536 44.43 9.49923C44.4589 9.47311 44.4971 9.45723 44.5378 9.45449ZM33.0957 9.45449H43.5035C43.5442 9.45723 43.5824 9.47311 43.6112 9.49923C43.6401 9.52536 43.6576 9.55999 43.6606 9.59683V19.0156C43.6606 19.1579 43.5821 19.2291 43.5035 19.2291H33.0957C33.0171 19.2291 32.9386 19.1579 32.9386 19.0156V9.59683C32.9416 9.55999 32.9591 9.52536 32.9879 9.49923C33.0168 9.47311 33.055 9.45723 33.0957 9.45449ZM21.6667 9.45449H32.14C32.1806 9.45723 32.2189 9.47311 32.2477 9.49923C32.2765 9.52536 32.2941 9.55999 32.2971 9.59683V19.0156C32.2971 19.1579 32.2185 19.2291 32.14 19.2291H21.6274C21.5488 19.2291 21.4703 19.1579 21.4703 19.0156V9.59683C21.4733 9.55999 21.4908 9.52536 21.5197 9.49923C21.5485 9.47311 21.5867 9.45723 21.6274 9.45449H21.6667ZM44.5378 19.9527H54.9325C55.0111 19.9527 55.0896 20.0239 55.0896 20.1662V29.6561C55.0866 29.693 55.0691 29.7276 55.0403 29.7537C55.0114 29.7799 54.9732 29.7957 54.9325 29.7985H44.5378C44.4971 29.7957 44.4589 29.7799 44.43 29.7537C44.4012 29.7276 44.3837 29.693 44.3807 29.6561V20.1662C44.3807 20.0239 44.4592 19.9527 44.5378 19.9527ZM33.0957 19.9527H43.5035C43.5821 19.9527 43.6606 20.0239 43.6606 20.1662V29.6561C43.6576 29.693 43.6401 29.7276 43.6112 29.7537C43.5824 29.7799 43.5442 29.7957 43.5035 29.7985H33.0957C33.055 29.7957 33.0168 29.7799 32.9879 29.7537C32.9591 29.7276 32.9416 29.693 32.9386 29.6561V20.1662C32.9386 20.0239 33.0171 19.9527 33.0957 19.9527ZM21.6667 19.9527H32.14C32.2185 19.9527 32.2971 20.0239 32.2971 20.1662V29.6561C32.2941 29.693 32.2765 29.7276 32.2477 29.7537C32.2189 29.7799 32.1806 29.7957 32.14 29.7985H21.6274C21.5867 29.7957 21.5485 29.7799 21.5197 29.7537C21.4908 29.7276 21.4733 29.693 21.4703 29.6561V20.1662C21.4703 20.0239 21.5488 19.9527 21.6274 19.9527H21.6667ZM44.5378 43.4757H54.9325C55.0111 43.4757 55.0896 43.4758 55.0896 43.6182V53.108C55.0866 53.1449 55.0691 53.1795 55.0403 53.2056C55.0114 53.2318 54.9732 53.2477 54.9325 53.2504H44.5378C44.4971 53.2477 44.4589 53.2318 44.43 53.2056C44.4012 53.1795 44.3837 53.1449 44.3807 53.108V43.6182C44.3807 43.4758 44.4592 43.4757 44.5378 43.4757ZM33.0957 43.4757H43.5035C43.5821 43.4757 43.6606 43.4758 43.6606 43.6182V53.108C43.6576 53.1449 43.6401 53.1795 43.6112 53.2056C43.5824 53.2318 43.5442 53.2477 43.5035 53.2504H33.0957C33.055 53.2477 33.0168 53.2318 32.9879 53.2056C32.9591 53.1795 32.9416 53.1449 32.9386 53.108V43.6182C32.9386 43.4758 33.0171 43.4757 33.0957 43.4757ZM44.5378 53.9621H54.9325C54.9732 53.9648 55.0114 53.9807 55.0403 54.0068C55.0691 54.033 55.0866 54.0676 55.0896 54.1044V63.5943C55.0896 63.7367 55.0111 63.7367 54.9325 63.7367H44.5378C44.4592 63.7367 44.3807 63.7367 44.3807 63.5943V54.1044C44.3837 54.0676 44.4012 54.033 44.43 54.0068C44.4589 53.9807 44.4971 53.9648 44.5378 53.9621ZM33.0957 53.9621H43.5035C43.5442 53.9648 43.5824 53.9807 43.6112 54.0068C43.6401 54.033 43.6576 54.0676 43.6606 54.1044V63.5943C43.6606 63.7367 43.5821 63.7367 43.5035 63.7367H33.0957C33.0171 63.7367 32.9386 63.7367 32.9386 63.5943V54.1044C32.9416 54.0676 32.9591 54.033 32.9879 54.0068C33.0168 53.9807 33.055 53.9648 33.0957 53.9621ZM21.6274 53.9621H32.1007C32.1414 53.9648 32.1796 53.9807 32.2084 54.0068C32.2373 54.033 32.2548 54.0676 32.2578 54.1044V63.5943C32.2578 63.7367 32.1793 63.7367 32.1007 63.7367H21.6274C21.5488 63.7367 21.4703 63.7367 21.4703 63.5943V54.1044C21.4733 54.0676 21.4908 54.033 21.5197 54.0068C21.5485 53.9807 21.5867 53.9648 21.6274 53.9621Z" fill="#1C3F98"/>
</svg>
