<svg width="107" height="27" viewBox="0 0 107 27" fill="none" xmlns="http://www.w3.org/2000/svg">
<g opacity="0.85">
<path d="M27.8201 0H32.7421V26.9998H27.8201V0Z" fill="#1C3F98"/>
<path d="M49.8619 18.4437C49.8619 22.6268 46.0099 23.007 44.7259 23.007C41.7299 23.007 41.3019 20.5352 41.3019 19.2043V8.74658H36.3799V19.0141C36.3799 21.4859 37.2359 23.7676 38.9479 25.0986C40.4459 26.4296 42.3719 27 44.7259 27C46.4379 27 48.5779 26.6197 49.8619 25.4789V27H54.7839V8.74658H49.8619V18.4437Z" fill="#1C3F98"/>
<path d="M64.4135 2.09131H59.4915V8.74619H55.8535V12.9293H59.4915V26.9996H64.4135V12.9293H68.0515V8.74619H64.4135V2.09131Z" fill="#1C3F98"/>
<path d="M83.4597 21.4853C82.3897 22.2459 80.8917 22.8163 79.3937 22.8163C75.9697 22.8163 73.6157 20.5346 73.6157 17.4924C73.6157 14.4502 75.9697 12.3586 79.3937 12.3586C80.8917 12.3586 82.3897 12.7389 83.4597 13.6896L84.1017 14.26L87.5257 11.408L86.6697 10.8375C84.7437 9.31642 82.1757 8.36572 79.3937 8.36572C73.4017 8.36572 68.9077 12.3587 68.9077 17.6826C68.9077 23.0065 73.4017 26.9994 79.3937 26.9994C82.1757 26.9994 84.7437 26.0487 86.6697 24.5276L87.5257 23.9572L84.1017 20.9149L83.4597 21.4853Z" fill="#1C3F98"/>
<path d="M104.86 10.2675C103.362 8.93656 101.864 8.36614 99.5101 8.36614C97.7981 8.36614 96.0861 8.74642 94.8021 9.88725V0H89.8801V26.9998H94.8021V16.9224C94.8021 12.7394 98.0121 12.3591 99.2961 12.3591C102.292 12.3591 102.078 14.8309 102.078 16.1619V26.8097H107V16.352C107 13.8802 106.358 11.5985 104.86 10.2675Z" fill="#1C3F98"/>
<path d="M79.1799 20.7246C81.0709 20.7246 82.6039 19.3625 82.6039 17.6824C82.6039 16.0022 81.0709 14.6401 79.1799 14.6401C77.2888 14.6401 75.7559 16.0022 75.7559 17.6824C75.7559 19.3625 77.2888 20.7246 79.1799 20.7246Z" fill="#1C3F98"/>
<path d="M20.972 20.3447C19.26 21.8658 16.692 22.8165 13.91 22.8165C8.56 22.8165 4.708 19.0137 4.708 13.8799C4.708 8.74614 8.56 4.94335 14.124 4.94335C16.692 4.94335 19.26 5.89405 21.186 7.6053L21.828 8.17572L25.038 5.32363L24.396 4.75321C21.614 2.2814 17.976 0.950419 14.124 0.950419C5.992 0.760279 0 6.46447 0 13.8799C0 21.2953 5.992 26.9995 13.91 26.9995C17.762 26.9995 21.614 25.6686 24.182 23.1967L24.824 22.6263L21.614 19.7742L20.972 20.3447Z" fill="#1C3F98"/>
</g>
</svg>
