<svg width="87" height="80" viewBox="0 0 87 80" fill="none" xmlns="http://www.w3.org/2000/svg">
<path fill-rule="evenodd" clip-rule="evenodd" d="M8.15107 0.237305H17.5203V67.6152H8.15107C7.0886 67.6289 6.03424 67.4091 5.04905 66.9685C4.06388 66.528 3.16747 65.8754 2.4118 65.0486C1.65612 64.2218 1.05618 63.2372 0.646755 62.152C0.237325 61.0667 0.0265391 59.9024 0.0266113 58.7263V9.1262C0.0512741 6.75922 0.918126 4.4985 2.4391 2.83442C3.96006 1.17034 6.01247 0.237148 8.15107 0.237305ZM66.1733 71.5707V79.467C66.1733 79.6448 66.0127 79.7337 65.8521 79.7337H0.267535C0.204684 79.7301 0.145269 79.7008 0.100768 79.6516C0.0562674 79.6023 0.0298408 79.5366 0.0266113 79.467V71.5707H66.1733ZM86.2503 75.6892L76.2653 77.7633L66.2001 79.7337V71.5707L76.2921 73.63L86.2503 75.6892ZM86.3306 75.6892L84.5504 76.0596L82.7569 76.4151V74.9337L84.5504 75.2892L86.3306 75.6892ZM17.5872 67.6152V0.237305H86.3306V67.6152H17.5872ZM21.3215 63.9263V3.91144H82.5963V63.9263H21.3215ZM4.57738 11.5558C5.2128 11.5558 5.8222 11.8353 6.27151 12.3326C6.72082 12.8299 6.97323 13.5044 6.97323 14.2078C6.97323 14.911 6.72082 15.5855 6.27151 16.0829C5.8222 16.5802 5.2128 16.8596 4.57738 16.8596C3.94196 16.8596 3.33257 16.5802 2.88326 16.0829C2.43396 15.5855 2.18153 14.911 2.18153 14.2078C2.18153 13.5044 2.43396 12.8299 2.88326 12.3326C3.33257 11.8353 3.94196 11.5558 4.57738 11.5558ZM12.3672 53.6003C13.0122 53.6042 13.6298 53.8895 14.0859 54.3943C14.5419 54.8991 14.7997 55.5827 14.8032 56.2966C14.7863 57.0058 14.5243 57.6808 14.0711 58.1824C13.6177 58.684 13.008 58.9743 12.3672 58.9929C11.7222 58.9891 11.1047 58.7037 10.6486 58.1988C10.1925 57.6941 9.93475 57.0106 9.93123 56.2966C9.92579 55.9409 9.9851 55.5876 10.1056 55.2578C10.2261 54.9279 10.4053 54.6282 10.6326 54.3766C10.8599 54.1251 11.1306 53.9267 11.4286 53.7932C11.7266 53.6599 12.0458 53.5943 12.3672 53.6003ZM4.57738 53.6003C5.22237 53.6042 5.83994 53.8895 6.29602 54.3943C6.75209 54.8991 7.00986 55.5827 7.01338 56.2966C6.99646 57.0058 6.73439 57.6808 6.28116 58.1824C5.82795 58.684 5.21812 58.9743 4.57738 58.9929C3.9324 58.9891 3.31484 58.7037 2.85876 58.1988C2.40269 57.6941 2.1449 57.0106 2.14138 56.2966C2.13595 55.9409 2.19525 55.5876 2.31574 55.2578C2.43624 54.9279 2.61548 54.6282 2.84277 54.3766C3.07006 54.1251 3.34078 53.9267 3.63878 53.7932C3.93678 53.6599 4.25599 53.5943 4.57738 53.6003ZM12.3672 45.1559C13.008 45.1746 13.6177 45.4646 14.0711 45.9663C14.5243 46.4679 14.7863 47.143 14.8032 47.8522C14.7997 48.5646 14.5415 49.2467 14.085 49.7491C13.6286 50.2516 13.011 50.5337 12.3672 50.5337C12.0465 50.5417 11.7276 50.478 11.4296 50.3461C11.1317 50.2144 10.8608 50.0175 10.6333 49.7671C10.4058 49.5166 10.2264 49.218 10.1057 48.8889C9.9851 48.5599 9.92574 48.2071 9.93123 47.8522C9.93475 47.1383 10.1925 46.4547 10.6486 45.95C11.1047 45.4451 11.7222 45.1597 12.3672 45.1559ZM4.57738 45.1559C5.21812 45.1746 5.82795 45.4646 6.28116 45.9663C6.73439 46.4679 6.99646 47.143 7.01338 47.8522C7.00985 48.5646 6.75164 49.2467 6.29519 49.7491C5.83873 50.2516 5.22114 50.5337 4.57738 50.5337C4.25663 50.5417 3.93772 50.478 3.63978 50.3461C3.34182 50.2144 3.07098 50.0175 2.8435 49.7671C2.616 49.5166 2.43655 49.218 2.3159 48.8889C2.19525 48.5599 2.13589 48.2071 2.14138 47.8522C2.1449 47.1383 2.40269 46.4547 2.85876 45.95C3.31484 45.4451 3.9324 45.1597 4.57738 45.1559ZM12.3672 19.9707C13.008 19.9894 13.6177 20.2794 14.0711 20.7811C14.5243 21.2827 14.7863 21.9578 14.8032 22.667C14.7997 23.3809 14.5419 24.0645 14.0859 24.5692C13.6298 25.0741 13.0122 25.3594 12.3672 25.3633C12.0458 25.3692 11.7266 25.3037 11.4286 25.1703C11.1306 25.0369 10.8599 24.8384 10.6326 24.5868C10.4053 24.3353 10.2261 24.0357 10.1056 23.706C9.9851 23.376 9.92579 23.0227 9.93123 22.667C9.93475 21.9531 10.1925 21.2695 10.6486 20.7648C11.1047 20.2599 11.7222 19.9746 12.3672 19.9707ZM4.57738 19.9707C5.21812 19.9894 5.82795 20.2794 6.28116 20.7811C6.73439 21.2827 6.99646 21.9578 7.01338 22.667C7.00986 23.3809 6.75209 24.0645 6.29602 24.5692C5.83994 25.0741 5.22237 25.3594 4.57738 25.3633C4.25599 25.3692 3.93678 25.3037 3.63878 25.1703C3.34078 25.0369 3.07006 24.8384 2.84277 24.5868C2.61548 24.3353 2.43624 24.0357 2.31574 23.706C2.19525 23.376 2.13595 23.0227 2.14138 22.667C2.1449 21.9531 2.40269 21.2695 2.85876 20.7648C3.31484 20.2599 3.9324 19.9746 4.57738 19.9707ZM12.3672 11.6152C13.0026 11.6152 13.6121 11.8945 14.0613 12.3918C14.5106 12.8891 14.763 13.5637 14.763 14.267C14.763 14.9703 14.5106 15.6448 14.0613 16.1421C13.6121 16.6394 13.0026 16.9189 12.3672 16.9189C11.7318 16.9189 11.1224 16.6394 10.6731 16.1421C10.2238 15.6448 9.97138 14.9703 9.97138 14.267C9.97138 13.5637 10.2238 12.8891 10.6731 12.3918C11.1224 11.8945 11.7318 11.6152 12.3672 11.6152ZM26.769 14.341H36.0312V24.5781H26.769V14.341ZM37.2492 21.1707H46.498V31.3188H37.209L37.2492 21.1707ZM47.7963 27.8966H56.9647V38.0596H47.7963V27.8966ZM58.263 34.6374H67.4315V44.8892H58.2229L58.263 34.6374ZM1.606 27.63H15.285V42.8151H1.56584L1.606 27.63ZM4.01523 30.3263H12.9428V40.2077H4.01523V30.3263ZM5.56786 32.03H11.4035V38.5188H5.55446L5.56786 32.03ZM75.2883 56.3855H80.5618V62.2225H75.2883V56.3855ZM68.596 56.3855H73.8695V62.2225H68.529L68.596 56.3855ZM61.9037 56.3855H67.0969V62.2225H61.9037V56.3855Z" fill="#1C3F98"/>
</svg>
