<svg width="90" height="80" viewBox="0 0 90 80" fill="none" xmlns="http://www.w3.org/2000/svg">
<path fill-rule="evenodd" clip-rule="evenodd" d="M15.6379 51.4954V68.4618C15.6367 68.5327 15.6553 68.6026 15.6919 68.6634C15.7284 68.7242 15.7813 68.7735 15.8445 68.8057L42.5754 79.1231V52.3552L29.8355 55.9777C29.2135 56.127 28.5626 56.1032 27.9532 55.9089L15.6379 51.4954ZM45.7776 22.9276H49.5307C49.5663 22.9303 49.5998 22.9456 49.6251 22.9709C49.6504 22.9961 49.6658 23.0296 49.6684 23.0652V26.8253C49.6658 26.8609 49.6504 26.8943 49.6251 26.9196C49.5998 26.9448 49.5663 26.9602 49.5307 26.9628H45.7776C45.6399 26.9628 45.6399 26.8941 45.6399 26.8253V23.0652C45.6399 22.9964 45.6399 22.9276 45.7776 22.9276ZM53.433 1.20433e-05H55.3842C55.3928 -0.000162043 55.4013 0.0015517 55.4091 0.00511982C55.417 0.00868793 55.4239 0.0139775 55.4294 0.0205831C55.4349 0.0271887 55.4389 0.0349847 55.441 0.0433232C55.4431 0.0516616 55.4433 0.0603676 55.4415 0.0687921V1.94887C55.4433 1.9573 55.4431 1.96593 55.441 1.97427C55.4389 1.98261 55.4349 1.99041 55.4294 1.99701C55.4239 2.00362 55.417 2.00891 55.4091 2.01247C55.4013 2.01604 55.3928 2.01783 55.3842 2.01765H53.433V1.20433e-05ZM38.5124 1.67368H40.3947C40.413 1.67368 40.4305 1.68093 40.4434 1.69383C40.4563 1.70673 40.4636 1.72422 40.4636 1.74246V3.69132H38.4435V1.74246C38.4435 1.72422 38.4508 1.70673 38.4637 1.69383C38.4766 1.68093 38.4941 1.67368 38.5124 1.67368ZM58.2191 3.66844H61.9837C62.0195 3.67549 62.0521 3.69371 62.0769 3.7205C62.1016 3.74729 62.1172 3.78119 62.1214 3.81741V7.56609C62.1167 7.60092 62.1007 7.63325 62.0758 7.6581C62.0509 7.68295 62.0185 7.69895 61.9837 7.70365H58.2191C58.1834 7.701 58.1499 7.68566 58.1247 7.66041C58.0994 7.63516 58.084 7.6017 58.0814 7.56609V3.81741C58.0836 3.78053 58.0986 3.74562 58.1237 3.71847C58.1488 3.69132 58.1825 3.67365 58.2191 3.66844ZM56.6123 20.4285H60.3768C60.4125 20.4312 60.446 20.4465 60.4713 20.4718C60.4966 20.497 60.5119 20.5305 60.5146 20.5661V24.3949C60.5146 24.4637 60.4457 24.4637 60.3768 24.4637H56.6123C56.5434 24.4637 56.4745 24.4637 56.4745 24.3949V20.5661C56.4772 20.5305 56.4926 20.497 56.5178 20.4718C56.5431 20.4465 56.5766 20.4312 56.6123 20.4285ZM46.7302 29.2556H48.6125C48.6814 29.2556 48.6814 29.2556 48.6814 29.3244V31.2044C48.6814 31.2732 48.6814 31.2732 48.6125 31.2732H46.7302C46.7119 31.2732 46.6944 31.266 46.6815 31.2531C46.6686 31.2402 46.6613 31.2227 46.6613 31.2044V29.3244C46.6613 29.3061 46.6686 29.2886 46.6815 29.2757C46.6944 29.2628 46.7119 29.2556 46.7302 29.2556ZM42.4262 40.5131C42.5995 40.5145 42.7709 40.5502 42.9304 40.6178C43.09 40.6854 43.2347 40.7838 43.3562 40.9073C43.4777 41.0308 43.5736 41.177 43.6385 41.3375C43.7035 41.498 43.7361 41.6698 43.7346 41.8429C43.738 42.1981 43.6037 42.5408 43.3598 42.7994C43.116 43.0579 42.7814 43.2122 42.4262 43.23C42.0568 43.23 41.7024 43.0842 41.4401 42.8244C41.1779 42.5646 41.029 42.2118 41.0259 41.8429C41.0273 41.6628 41.065 41.4848 41.1367 41.3195C41.2085 41.1543 41.3128 41.0052 41.4435 40.8811C41.5741 40.757 41.7285 40.6604 41.8973 40.5972C42.0662 40.534 42.246 40.5053 42.4262 40.5131ZM41.2784 25.4267C41.4586 25.419 41.6385 25.4476 41.8073 25.5108C41.9761 25.574 42.1305 25.6707 42.2612 25.7948C42.3919 25.9189 42.4962 26.0679 42.5679 26.2332C42.6396 26.3984 42.6773 26.5764 42.6787 26.7565C42.6757 27.1254 42.5268 27.4782 42.2645 27.738C42.0023 27.9978 41.6478 28.1436 41.2784 28.1436C40.9222 28.126 40.5864 27.9721 40.3407 27.7138C40.095 27.4556 39.9581 27.1128 39.9585 26.7565C39.9585 26.4058 40.0972 26.0693 40.3444 25.8202C40.5916 25.5712 40.9273 25.4297 41.2784 25.4267ZM28.8944 11.9453H32.7278C32.7967 11.9453 32.8655 11.9453 32.8655 12.0828V15.843C32.8629 15.8786 32.8475 15.9121 32.8222 15.9373C32.797 15.9626 32.7635 15.9779 32.7278 15.9806H28.8944C28.8587 15.9779 28.8252 15.9626 28.7999 15.9373C28.7746 15.9121 28.7593 15.8786 28.7566 15.843V12.0828C28.7566 11.9453 28.8255 11.9453 28.8944 11.9453ZM30.4897 2.6252H34.1166C34.1532 2.63041 34.1869 2.64807 34.212 2.67523C34.2371 2.70238 34.252 2.73735 34.2543 2.77423V6.49997C34.2543 6.63753 34.1854 6.63753 34.1166 6.63753H30.352C30.2831 6.63753 30.2143 6.63753 30.2143 6.49997V2.75128C30.2165 2.7144 30.2315 2.67943 30.2566 2.65228C30.2817 2.62512 30.3154 2.60746 30.352 2.60225L30.4897 2.6252ZM53.8806 14.238L57.3239 10.7989C57.3617 10.7651 57.4108 10.7463 57.4616 10.7463C57.5124 10.7463 57.5614 10.7651 57.5993 10.7989L61.0425 14.238C61.0621 14.2552 61.0777 14.2764 61.0884 14.3002C61.0992 14.3239 61.1047 14.3496 61.1047 14.3756C61.1047 14.4016 61.0992 14.4274 61.0884 14.4511C61.0777 14.4748 61.0621 14.4959 61.0425 14.5132L57.5993 17.9523C57.5821 17.9718 57.5609 17.9875 57.5371 17.9982C57.5134 18.0089 57.4876 18.0144 57.4616 18.0144C57.4355 18.0144 57.4098 18.0089 57.386 17.9982C57.3623 17.9875 57.3411 17.9718 57.3239 17.9523L53.8806 14.5132C53.8468 14.4753 53.828 14.4264 53.828 14.3756C53.828 14.3248 53.8468 14.2759 53.8806 14.238ZM48.1419 14.3756C48.331 14.3582 48.5217 14.3804 48.7017 14.4408C48.8818 14.5012 49.0472 14.5984 49.1875 14.7262C49.3278 14.854 49.4399 15.0097 49.5165 15.1833C49.5932 15.3568 49.6328 15.5444 49.6328 15.7341C49.6328 15.9237 49.5932 16.1113 49.5165 16.2849C49.4399 16.4584 49.3278 16.6141 49.1875 16.7419C49.0472 16.8697 48.8818 16.9669 48.7017 17.0273C48.5217 17.0877 48.331 17.1099 48.1419 17.0925C47.8028 17.0614 47.4875 16.9048 47.258 16.6535C47.0284 16.4021 46.9012 16.0742 46.9012 15.7341C46.9012 15.3939 47.0284 15.066 47.258 14.8147C47.4875 14.5633 47.8028 14.4067 48.1419 14.3756ZM39.993 10.0652C40.1769 10.0652 40.359 10.1014 40.5288 10.1717C40.6987 10.242 40.8531 10.345 40.9831 10.4749C41.1131 10.6047 41.2163 10.7589 41.2866 10.9285C41.357 11.0982 41.3932 11.2801 41.3932 11.4638C41.3755 11.8216 41.2198 12.1587 40.9588 12.4044C40.6978 12.6502 40.3517 12.7855 39.993 12.7821C39.6466 12.7707 39.3175 12.6281 39.0724 12.3833C38.8273 12.1385 38.6845 11.8098 38.6731 11.4638C38.6697 11.1056 38.8052 10.7598 39.0512 10.4991C39.2973 10.2384 39.6347 10.0829 39.993 10.0652ZM31.2243 24.8421L34.6675 21.4029C34.7082 21.3704 34.7588 21.3526 34.811 21.3526C34.8631 21.3526 34.9137 21.3704 34.9544 21.4029L38.3976 24.8421C38.4315 24.8799 38.4503 24.9289 38.4503 24.9796C38.4503 25.0304 38.4315 25.0793 38.3976 25.1172L34.9544 28.5563C34.9137 28.5889 34.8631 28.6066 34.811 28.6066C34.7588 28.6066 34.7082 28.5889 34.6675 28.5563L31.2243 25.1172C31.1904 25.0793 31.1717 25.0304 31.1717 24.9796C31.1717 24.9289 31.1904 24.8799 31.2243 24.8421ZM51.4819 34.2997L54.9251 30.8605C54.9367 30.844 54.9522 30.8305 54.9702 30.8212C54.9881 30.8118 55.0081 30.807 55.0284 30.807C55.0486 30.807 55.0686 30.8118 55.0866 30.8212C55.1046 30.8305 55.12 30.844 55.1317 30.8605L58.5749 34.2997C58.603 34.3401 58.6181 34.3881 58.6181 34.4372C58.6181 34.4864 58.603 34.5344 58.5749 34.5748L55.1317 38.014C55.12 38.0305 55.1046 38.044 55.0866 38.0533C55.0686 38.0627 55.0486 38.0675 55.0284 38.0675C55.0081 38.0675 54.9881 38.0627 54.9702 38.0533C54.9522 38.044 54.9367 38.0305 54.9251 38.014L51.4819 34.5748C51.448 34.537 51.4293 34.488 51.4293 34.4372C51.4293 34.3865 51.448 34.3375 51.4819 34.2997ZM47.1664 41.797H49.0372C49.0372 41.797 49.0945 41.797 49.0945 41.8772V43.7458L49.0372 43.8146H47.1549C47.1449 43.8163 47.1347 43.8158 47.125 43.8131C47.1153 43.8104 47.1062 43.8056 47.0986 43.799C47.0909 43.7925 47.0848 43.7843 47.0806 43.7751C47.0765 43.7659 47.0744 43.7559 47.0746 43.7458V41.8772C47.0746 41.797 47.0745 41.797 47.1549 41.797H47.1664ZM37.4221 32.0069H41.1752C41.2121 32.0092 41.2471 32.0241 41.2743 32.0492C41.3015 32.0743 41.3191 32.1079 41.3244 32.1445V35.8932C41.3191 35.9298 41.3015 35.9634 41.2743 35.9885C41.2471 36.0135 41.2121 36.0285 41.1752 36.0307H37.4221C37.3864 36.0281 37.3529 36.0127 37.3276 35.9875C37.3023 35.9622 37.287 35.9288 37.2843 35.8932V32.1445C37.287 32.1089 37.3023 32.0754 37.3276 32.0502C37.3529 32.0249 37.3864 32.0096 37.4221 32.0069ZM46.3974 34.4372C46.5711 34.4357 46.7435 34.4688 46.9043 34.5345C47.0651 34.6002 47.2112 34.6973 47.3341 34.82C47.457 34.9427 47.5541 35.0887 47.6199 35.2493C47.6857 35.41 47.7188 35.5821 47.7173 35.7556C47.7173 36.0164 47.6399 36.2713 47.4948 36.4881C47.3498 36.7049 47.1436 36.8738 46.9025 36.9736C46.6613 37.0734 46.3959 37.0994 46.1399 37.0486C45.8838 36.9977 45.6487 36.8722 45.4641 36.6878C45.2795 36.5034 45.1537 36.2685 45.1028 36.0128C45.0519 35.757 45.078 35.492 45.1779 35.2511C45.2778 35.0102 45.447 34.8043 45.6641 34.6594C45.8811 34.5145 46.1363 34.4372 46.3974 34.4372ZM38.5354 18.6516H40.4865L40.5554 18.7204V20.6692L40.4865 20.738H38.5354L38.4665 20.6692V18.7204L38.5354 18.6516ZM56.8992 25.4611C57.2503 25.4641 57.586 25.6056 57.8332 25.8547C58.0804 26.1037 58.2191 26.4402 58.2191 26.7909C58.2191 27.1497 58.0764 27.4937 57.8224 27.7474C57.5684 28.0011 57.224 28.1436 56.8648 28.1436C56.5056 28.1436 56.1611 28.0011 55.9071 27.7474C55.6531 27.4937 55.5104 27.1497 55.5104 26.7909C55.5119 26.6118 55.5492 26.4348 55.6202 26.2703C55.6912 26.1059 55.7945 25.9573 55.9239 25.8334C56.0534 25.7094 56.2064 25.6126 56.3739 25.5487C56.5414 25.4847 56.72 25.4549 56.8992 25.4611ZM44.1019 6.79804L47.5451 3.3589C47.5568 3.34234 47.5722 3.32883 47.5902 3.3195C47.6082 3.31018 47.6282 3.3053 47.6484 3.3053C47.6687 3.3053 47.6886 3.31018 47.7066 3.3195C47.7246 3.32883 47.7401 3.34234 47.7517 3.3589L51.1949 6.79804C51.2288 6.83587 51.2475 6.88484 51.2475 6.9356C51.2475 6.98636 51.2288 7.03533 51.1949 7.07316L47.7517 10.5123C47.7401 10.5289 47.7246 10.5424 47.7066 10.5517C47.6886 10.561 47.6687 10.5659 47.6484 10.5659C47.6282 10.5659 47.6082 10.561 47.5902 10.5517C47.5722 10.5424 47.5568 10.5289 47.5451 10.5123L44.1019 7.07316C44.068 7.03533 44.0493 6.98636 44.0493 6.9356C44.0493 6.88484 44.068 6.83587 44.1019 6.79804ZM15.6379 37.7503L34.7822 30.6542C35.1878 30.6384 35.5827 30.5201 35.93 30.3103C35.6717 30.5223 35.4629 30.788 35.3182 31.089C35.1735 31.39 35.0963 31.7189 35.0921 32.0528V35.8014C35.1101 36.3975 35.3598 36.9632 35.7883 37.3784C36.2169 37.7936 36.7906 38.0257 37.3876 38.0254H41.1407C41.5408 38.0363 41.936 37.9345 42.281 37.7318C42.626 37.5291 42.907 37.2336 43.0919 36.879C43.3489 37.536 43.7988 38.1 44.3826 38.4969C44.9664 38.8939 45.6568 39.1051 46.363 39.103C47.2585 39.1034 48.119 38.7553 48.7619 38.1325C49.4047 37.5097 49.7793 36.6612 49.8062 35.7671C49.8865 35.8359 49.8865 35.9046 49.9439 35.9046L53.3871 39.3438C53.6007 39.5604 53.8553 39.7325 54.1361 39.8499C54.4169 39.9673 54.7182 40.0277 55.0226 40.0277C55.327 40.0277 55.6284 39.9673 55.9092 39.8499C56.19 39.7325 56.4446 39.5604 56.6582 39.3438L60.1014 35.9046C60.3163 35.6972 60.4871 35.4488 60.6038 35.174C60.7205 34.8993 60.7806 34.6039 60.7806 34.3054C60.7806 34.007 60.7205 33.7116 60.6038 33.4368C60.4871 33.1621 60.3163 32.9136 60.1014 32.7062L59.7456 32.2935L74.2874 37.8076C74.4252 37.8764 74.4252 37.9452 74.3563 38.014L44.9168 49.558C44.8389 49.5918 44.7549 49.6092 44.67 49.6092C44.5851 49.6092 44.5012 49.5918 44.4233 49.558L15.615 38.014C15.4773 37.9452 15.4773 37.8764 15.615 37.8076L15.6379 37.7503ZM36.2973 30.0352H36.412C36.3749 30.0725 36.3265 30.0967 36.2743 30.104L36.2973 30.0352ZM36.8482 29.8288L38.7305 29.1295C38.9641 29.3942 39.2491 29.6087 39.5683 29.76H37.4106C37.204 29.76 36.9974 29.8288 36.8482 29.8288ZM50.7703 28.9919L52.928 29.8288L50.4259 32.2591C50.659 31.9228 50.7795 31.5216 50.7703 31.1127V28.9576V28.9919ZM43.4018 34.0131C43.7758 33.3889 44.3384 32.8993 45.0086 32.6145C44.6751 32.2308 44.4988 31.7354 44.5151 31.2274V29.3473C44.4994 29.1611 44.5229 28.9737 44.5839 28.7971C44.4413 28.7411 44.3205 28.6406 44.2396 28.5105C43.7767 29.2665 43.0613 29.8349 42.2196 30.1154C42.5792 30.3126 42.8769 30.6056 43.0796 30.9619C43.2822 31.3181 43.3818 31.7235 43.3673 32.133L43.4018 34.0131ZM49.393 34.0131C49.4573 33.6564 49.6026 33.3191 49.8176 33.0272C49.5461 33.2204 49.2304 33.3425 48.8994 33.3826C49.088 33.5729 49.2536 33.7845 49.393 34.0131ZM45.4907 40.3984C45.6964 40.1562 45.9535 39.9626 46.2433 39.8318C46.5331 39.7009 46.8484 39.636 47.1664 39.6418H49.0372C49.3255 39.6448 49.6104 39.7049 49.8754 39.8185C50.1403 39.9322 50.38 40.0972 50.5807 40.3041C50.7814 40.5109 50.939 40.7554 51.0444 41.0235C51.1498 41.2916 51.201 41.5778 51.1949 41.8658V43.7344C51.1949 44.306 50.9676 44.8542 50.5629 45.2584C50.1583 45.6626 49.6094 45.8896 49.0372 45.8896H47.1549C46.6367 45.9064 46.1305 45.7323 45.7326 45.4004C45.3347 45.0685 45.0729 44.602 44.9971 44.0898C44.5171 44.6572 43.866 45.0541 43.1413 45.2212C42.4166 45.3882 41.6573 45.3163 40.9768 45.0164C40.2964 44.7164 39.7315 44.2045 39.3667 43.5571C39.0018 42.9098 38.8566 42.1619 38.9528 41.4252C39.049 40.6886 39.3814 40.0029 39.9003 39.4707C40.4192 38.9385 41.0967 38.5884 41.8314 38.4728C42.5661 38.3572 43.3185 38.4823 43.976 38.8294C44.6336 39.1766 45.1609 39.727 45.4792 40.3984H45.4907ZM51.7573 24.8421L54.3282 24.0052V24.4982C53.741 25.116 53.4196 25.9391 53.433 26.7909C53.4217 27.0678 53.4448 27.345 53.5019 27.6163L51.7573 26.9973V24.8421ZM62.6149 22.343L89.8967 32.1445C90.0344 32.2133 90.0344 32.282 89.8967 32.3508L76.5829 37.1083C76.4693 36.7677 76.2771 36.4585 76.0219 36.2056C75.7668 35.9527 75.4557 35.7632 75.1138 35.6524L58.8389 29.5996C59.3067 29.2865 59.6904 28.8635 59.9566 28.3679C60.2227 27.8722 60.3631 27.3189 60.3654 26.7565C60.3654 26.6877 60.3654 26.6877 60.2965 26.6189C60.8935 26.6192 61.4672 26.3871 61.8958 25.9719C62.3244 25.5567 62.5741 24.991 62.592 24.3949L62.6149 22.343ZM76.4681 39.1603L86.2125 44.3076C86.3502 44.3763 86.3502 44.4451 86.2813 44.5139L58.2191 55.6682C58.1502 55.7485 57.9436 55.6682 57.8059 55.5995L47.8894 50.8764L75.1712 40.1692C75.7019 39.986 76.147 39.6148 76.4222 39.126L76.4681 39.1603ZM40.6931 50.5668L29.2157 53.834H28.8025L0.109035 43.5166C-0.0363451 43.4478 -0.0363451 43.379 0.109035 43.3102L13.3425 38.5986C13.4649 38.9406 13.6579 39.253 13.909 39.5157C14.1601 39.7784 14.4637 39.9854 14.8001 40.1233L40.6931 50.5668ZM32.2687 29.1525L29.6978 26.6534C29.2937 26.205 29.0701 25.6231 29.0701 25.0198C29.0701 24.4165 29.2937 23.8345 29.6978 23.3861L31.7178 21.3685L31.0865 21.0934C30.9347 21.0281 30.7693 21.0005 30.6045 21.0131L1.37156 31.3305C1.23383 31.3993 1.30269 31.4682 1.44042 31.5369L13.4573 36.9708C13.5716 36.6513 13.7555 36.3612 13.9956 36.1213C14.2358 35.8815 14.5262 35.6978 14.846 35.5836L32.2687 29.1525ZM74.0349 51.8852V68.4962C74.0349 68.6338 73.8857 68.7713 73.8169 68.8401L44.9397 79.9715C44.802 80.0403 44.6643 79.9715 44.6643 79.9027V51.9195H44.7332L56.7041 57.6514C57.0685 57.8324 57.4659 57.9378 57.8722 57.9615C58.2785 57.9851 58.6854 57.9265 59.0684 57.789L74.0349 51.8852Z" fill="#1C3F98"/>
</svg>
