<svg width="86" height="80" viewBox="0 0 86 80" fill="none" xmlns="http://www.w3.org/2000/svg">
<path fill-rule="evenodd" clip-rule="evenodd" d="M12.2024 8.33515L27.2366 8.33515L12.2024 17.6038L12.2024 8.33515ZM60.9511 33.1546C61.3332 34.2019 61.5309 35.3145 61.5345 36.4373C61.5345 38.6303 60.7128 40.7338 59.2499 42.2857C57.7869 43.8377 55.8023 44.7113 53.7318 44.7147C52.204 44.7272 50.7072 44.2577 49.4323 43.3659C48.1574 42.474 47.1621 41.2003 46.5732 39.7071L45.7589 39.6298C43.7024 39.5246 41.7682 38.5641 40.3765 36.9569C38.9848 35.3497 38.2482 33.2258 38.3267 31.0466C38.4051 28.8674 39.2923 26.809 40.7955 25.3188C42.2987 23.8285 44.2963 23.0268 46.3544 23.0878C46.7246 23.0754 47.095 23.1013 47.4605 23.165L48.2747 23.2423C48.9938 22.1989 49.9358 21.3506 51.0237 20.7667C52.1115 20.1827 53.3143 19.8797 54.5339 19.8824C56.6143 19.8789 58.6114 20.7474 60.0893 22.2983C61.5671 23.8491 62.4057 25.9564 62.4217 28.1598C62.4303 29.468 62.1249 30.7569 61.5345 31.9059L60.9511 33.1546ZM52.1031 8.33515L86 8.33515L86 73.4347L81.734 73.4347L81.6611 41.9727L82.2445 41.9727C80.4822 36.36 78.7077 30.7344 76.8725 25.1089C75.0981 30.7344 73.4087 36.4372 71.6342 42.0499L72.3635 42.0499L72.4486 73.4347L23.0314 73.4347C34.1642 61.5656 32.8394 65.6336 38.0777 54.4726L41.2377 47.5983L34.9785 50.9582L34.9785 50.8809L40.946 38.2266C36.6679 40.4923 32.4384 42.6807 28.2696 44.9464L30.4087 40.3378L23.9916 43.7749L23.554 44.0067C15.3016 48.3836 19.361 45.8862 12.2024 53.5328L12.2024 35.4203L12.2753 35.343L51.4104 11.296C51.8065 10.9432 52.0902 10.4696 52.2229 9.9397C52.3555 9.40984 52.3307 8.84951 52.1518 8.33515L52.1031 8.33515ZM45.1756 0.289434L49.9641 9.12044C50.0371 9.27491 50.0371 9.42938 49.8912 9.42938L49.0769 9.97007L47.3146 6.77751L46.5003 7.24097L48.2747 10.4335L46.1357 11.7208L45.2485 10.1503L44.4341 10.6266L45.3214 12.2615L43.1823 13.5488L41.5051 10.3562L40.6908 10.9098L42.4531 14.1152L40.3262 15.4025L39.4389 13.7548L38.6247 14.3083L39.5119 15.866L37.2999 17.1533L35.6105 13.9608L34.7962 14.5014L36.4856 17.7068L34.3465 18.9941L33.4715 17.4236L32.6571 17.8999L33.5444 19.5348L31.4053 20.8221L29.6308 17.6296L28.8166 18.093L30.591 21.2855L28.452 22.5729L27.5769 21.0024L26.7626 21.4787L27.6498 23.1135L25.5108 24.4009L23.7363 21.1955L22.922 21.749L24.6964 24.9415L22.4844 26.2289L21.5972 24.5811L20.7951 25.1346L21.6823 26.6923L19.5432 27.9796L17.7688 24.7742L16.9545 25.3277L18.729 28.5203L16.5899 29.8076L15.7027 28.2499L14.8883 28.7263L15.7756 30.3611L13.6365 31.6484L11.8742 28.443L11.0599 28.9193L12.8343 32.1119L11.2058 33.1289C11.1328 33.2061 10.987 33.1289 10.9141 33.0516L6.05259 24.1563C6.04508 24.0952 6.05494 24.0332 6.08092 23.9782C6.10691 23.9231 6.14783 23.8776 6.19843 23.8473L44.9689 0.0319941C45.0418 -0.0452448 45.1877 0.0319909 45.2606 0.10923L45.1756 0.289434ZM76.9333 32.6139L78.0515 36.1154L79.1574 39.5525L76.9333 39.6298L74.7335 39.6298L75.8395 36.1154L76.9333 32.6139ZM74.5876 40.3378L79.3762 40.2606L79.5221 76.7174L74.7335 76.7946L74.5876 40.3378ZM35.8901 43.5432L34.6747 46.1951L33.4593 48.9242L32.2439 47.6369L30.907 46.3496L33.4957 44.9464L35.8901 43.5432ZM30.3601 46.5813L33.1555 49.4778L13.3083 70.6283L10.5859 67.8091L30.3601 46.5813ZM36.2547 52.902L35.8261 53.8418L35.0393 55.5667L33.8239 58.2958L32.4992 57.0085L31.2838 55.7212L33.7875 54.3181L36.2547 52.902ZM30.7247 55.953L33.4593 58.8365L13.6729 80L10.8776 77.1035L30.7247 55.953ZM25.4257 45.6416L24.2103 48.3835L22.9949 51.0354L21.6701 49.7481L20.4548 48.4608L23 47L25.4257 45.6416ZM19.8227 48.6925L22.6182 51.5761L2.79535 72.7395L-9.70523e-10 69.8431L19.8227 48.6925ZM46.3666 25.4307C46.6401 25.4181 46.9139 25.4441 47.1809 25.508C46.8855 26.3572 46.7332 27.2548 46.7312 28.1598C46.7319 28.8699 46.8052 29.5777 46.95 30.271L47.3267 31.6742C46.4037 33.0689 45.9151 34.7341 45.9291 36.4373L45.9291 37.2997C44.4975 37.1598 43.171 36.4435 42.2232 35.2986C41.2753 34.1536 40.7782 32.6671 40.8343 31.1455C40.8904 29.6238 41.4954 28.183 42.5247 27.1197C43.554 26.0565 44.929 25.452 46.3666 25.4307ZM54.5461 22.3025C56.0214 22.2957 57.4393 22.9081 58.4894 24.0058C59.5394 25.1036 60.1362 26.5972 60.149 28.1598C60.1582 29.0821 59.9537 29.9926 59.5534 30.8117C58.8144 29.958 57.917 29.275 56.9174 28.8054C55.9178 28.3358 54.8374 28.0898 53.7439 28.0826C52.0893 28.0844 50.4804 28.6585 49.1619 29.7175C49.018 29.2123 48.9443 28.6876 48.9432 28.1598C48.9592 26.5983 49.557 25.1066 50.6063 24.0096C51.6557 22.9126 53.0717 22.299 54.5461 22.3025ZM53.7804 30.477C55.2567 30.477 56.6726 31.0982 57.7165 32.2039C58.7604 33.3096 59.3468 34.8092 59.3468 36.3729C59.3468 37.9366 58.7604 39.4362 57.7165 40.5419C56.6726 41.6476 55.2567 42.2688 53.7804 42.2688C52.3041 42.2688 50.8882 41.6476 49.8443 40.5419C48.8004 39.4362 48.214 37.9366 48.214 36.3729C48.214 34.8092 48.8004 33.3096 49.8443 32.2039C50.8882 31.0982 52.3041 30.477 53.7804 30.477Z" fill="#1C3F98"/>
</svg>
