<svg width="20" height="27" viewBox="0 0 20 27" fill="none" xmlns="http://www.w3.org/2000/svg">
<path fill-rule="evenodd" clip-rule="evenodd" d="M8.87645 2.10117H5.56183C3.73121 2.10117 2.2472 3.48873 2.2472 5.20039C2.2472 6.91204 3.73121 8.2996 5.56183 8.2996H8.87645V2.10117ZM8.87645 0H11.1237H14.4383C17.5101 0 20 2.32828 20 5.20039C20 6.89527 19.133 8.4008 17.7908 9.35019C19.133 10.2996 20 11.8051 20 13.5C20 16.3721 17.5101 18.7004 14.4383 18.7004C13.1963 18.7004 12.0493 18.3197 11.1237 17.6764V18.7004V21.7996C11.1237 24.6717 8.63353 27 5.56183 27C2.4901 27 0 24.6717 0 21.7996C0 20.1046 0.867151 18.5992 2.20927 17.6498C0.867151 16.7004 0 15.1949 0 13.5C0 11.8051 0.867173 10.2996 2.20932 9.35021C0.867173 8.4008 0 6.89527 0 5.20039C0 2.32828 2.4901 0 5.56183 0H8.87645ZM11.1237 2.10117V8.2996H14.4383C16.269 8.2996 17.7528 6.91204 17.7528 5.20039C17.7528 3.48873 16.269 2.10117 14.4383 2.10117H11.1237ZM5.56183 16.5992H8.87645V13.508V13.5V13.492V10.4008H5.56183C3.73121 10.4008 2.2472 11.7884 2.2472 13.5C2.2472 15.2076 3.72411 16.5926 5.54868 16.5992L5.56183 16.5992ZM2.2472 21.7996C2.2472 20.092 3.72411 18.707 5.54868 18.7004L5.56183 18.7004H8.87645V21.7996C8.87645 23.5112 7.39245 24.8988 5.56183 24.8988C3.73121 24.8988 2.2472 23.5112 2.2472 21.7996ZM11.1237 13.4938C11.1272 11.785 12.6099 10.4008 14.4383 10.4008C16.269 10.4008 17.7528 11.7884 17.7528 13.5C17.7528 15.2117 16.269 16.5992 14.4383 16.5992C12.6099 16.5992 11.1272 15.215 11.1237 13.5062V13.4938Z" fill="#565556"/>
</svg>
