<svg width="25" height="27" viewBox="0 0 25 27" fill="none" xmlns="http://www.w3.org/2000/svg">
<path d="M11.372 0.288052C12.0551 -0.0951514 12.9449 -0.0968823 13.6274 0.288052C17.0611 2.18955 20.4958 4.08806 23.9289 5.99071C24.5746 6.34718 25.0065 7.05147 24.9999 7.78066V19.2208C25.0047 19.9802 24.5301 20.7013 23.8489 21.0497C20.4265 22.9407 17.0059 24.834 13.5841 26.725C12.8869 27.1157 11.9793 27.0856 11.3038 26.6629C10.2778 26.08 9.25002 25.4999 8.2239 24.9176C8.01422 24.7951 7.77785 24.6976 7.62979 24.4983C7.76068 24.3254 7.99469 24.3039 8.18485 24.2284C8.61313 24.0949 9.00649 23.8807 9.39995 23.6728C9.49944 23.606 9.62091 23.6316 9.71628 23.6913C10.5937 24.1844 11.4633 24.6917 12.3436 25.18C12.5314 25.2863 12.7216 25.1452 12.8821 25.0575C16.2405 23.1973 19.603 21.344 22.9608 19.4832C23.0852 19.4246 23.154 19.2951 23.1439 19.1616C23.1463 15.3877 23.1445 11.6132 23.1451 7.83932C23.1593 7.68777 23.0698 7.54843 22.93 7.48641C19.5195 5.60405 16.1108 3.7188 12.7009 1.83596C12.6418 1.79616 12.5718 1.7748 12.5001 1.7747C12.4284 1.77459 12.3584 1.79575 12.2992 1.83539C8.88924 3.7188 5.48109 5.60578 2.07117 7.48804C1.93184 7.55016 1.83834 7.68719 1.85492 7.83932C1.85551 11.6132 1.85492 15.3877 1.85492 19.1621C1.84901 19.2273 1.86361 19.2927 1.89677 19.3495C1.92992 19.4063 1.98004 19.4517 2.04036 19.4798C2.95032 19.9855 3.86145 20.4876 4.77199 20.9916C5.28495 21.2622 5.91477 21.423 6.47994 21.2157C6.97867 21.0404 7.32827 20.5416 7.31875 20.0226C7.32346 16.2708 7.3164 12.5183 7.32229 8.76709C7.30982 8.60054 7.47103 8.46293 7.63626 8.4786C8.07348 8.47572 8.51129 8.47283 8.9485 8.47976C9.131 8.47572 9.2566 8.65506 9.23403 8.82286C9.23226 12.5984 9.23874 16.3741 9.23108 20.1497C9.23226 21.156 8.81045 22.2508 7.86076 22.7432C6.69079 23.3372 5.24472 23.2112 4.08888 22.6416C3.08827 22.1522 2.13338 21.5745 1.15053 21.0502C0.467522 20.7037 -0.00472336 19.9797 8.44507e-05 19.2209V7.78066C-0.00707821 7.03637 0.442011 6.3193 1.10784 5.96802C4.52963 4.07547 7.95083 2.18147 11.372 0.288052Z" fill="#565556"/>
<path d="M14.3573 8.21307C15.8497 8.11893 17.4473 8.1573 18.7903 8.87784C19.8301 9.42999 20.4065 10.5888 20.4249 11.7209C20.3958 11.8736 20.2329 11.9579 20.0842 11.9474C19.6512 11.9468 19.2181 11.9532 18.7851 11.9445C18.6014 11.9514 18.4947 11.7855 18.4716 11.6263C18.3472 11.0846 18.0458 10.5482 17.5255 10.2869C16.727 9.89503 15.801 9.91474 14.9302 9.92292C14.2945 9.956 13.6109 10.0099 13.0723 10.3763C12.6589 10.6538 12.5333 11.2141 12.6808 11.6653C12.82 11.9892 13.2016 12.0938 13.5138 12.1901C15.3123 12.6511 17.2181 12.6052 18.9823 13.2119C19.7127 13.4593 20.4272 13.9401 20.6772 14.6895C21.0042 15.694 20.8609 16.8947 20.1317 17.7011C19.5403 18.3647 18.679 18.7259 17.82 18.9221C16.6772 19.1718 15.4913 19.1782 14.3307 19.0673C13.2394 18.9454 12.1038 18.6644 11.2614 17.9357C10.541 17.3226 10.1891 16.3675 10.224 15.4456C10.2324 15.2899 10.3906 15.1813 10.5427 15.1941C10.9788 15.1906 11.4148 15.1895 11.8509 15.1947C12.025 15.1825 12.1541 15.33 12.1631 15.4909C12.2435 16.007 12.4414 16.5486 12.9006 16.8546C13.7868 17.415 14.8988 17.3766 15.9136 17.3923C16.7542 17.3557 17.6979 17.3447 18.384 16.8001C18.7459 16.4895 18.8532 15.9698 18.7554 15.5228C18.6494 15.1453 18.2465 14.9695 17.9006 14.8545C16.1251 14.304 14.1979 14.5038 12.4397 13.8813C11.7259 13.6341 11.0356 13.1666 10.7613 12.4479C10.3787 11.4307 10.554 10.1726 11.3597 9.39336C12.1452 8.6183 13.2792 8.31981 14.3573 8.21297V8.21307Z" fill="#565556"/>
</svg>
