<svg width="90" height="72" viewBox="0 0 90 72" fill="none" xmlns="http://www.w3.org/2000/svg">
<path fill-rule="evenodd" clip-rule="evenodd" d="M63.8016 27.9777L85.1756 27.9777C85.8084 27.9757 86.4354 28.0966 87.0207 28.3335C87.6059 28.5704 88.1379 28.9186 88.5861 29.3581C89.0342 29.7976 89.3898 30.3199 89.6325 30.8949C89.8751 31.4699 90 32.0863 90 32.7089L90 35.2021C89.9881 36.4572 89.4759 37.6577 88.5738 38.5452C87.6716 39.4328 86.4514 39.9365 85.1756 39.9483L84.1374 39.9483C84.6252 40.3951 85.0129 40.9372 85.2758 41.5398C85.5387 42.1423 85.6709 42.7921 85.6641 43.4478L85.6641 45.851C85.6661 46.4736 85.5433 47.0904 85.3025 47.6661C85.0617 48.2419 84.7077 48.7652 84.261 49.2061C83.8142 49.647 83.2834 49.9969 82.6989 50.2356C82.1144 50.4743 81.4878 50.5972 80.855 50.5971L80.1832 50.5971C80.6861 51.0382 81.0908 51.5767 81.3719 52.179C81.653 52.7812 81.8045 53.4341 81.8168 54.0967L81.8168 56.5149C81.8049 57.77 81.2927 58.9704 80.3906 59.8579C79.4884 60.7455 78.2682 61.2492 76.9924 61.261L76.4733 61.261C76.9761 61.702 77.3808 62.2405 77.6619 62.8428C77.9431 63.445 78.0946 64.098 78.1069 64.7606L78.1069 67.2388C78.0834 68.4904 77.5676 69.6842 76.6679 70.5693C75.7682 71.4544 74.5546 71.9619 73.2825 71.985L37.1756 71.985C35.7516 71.9731 34.3903 71.4072 33.389 70.411C32.3878 69.4147 31.8281 68.0691 31.8321 66.6681L31.8321 33.2496C31.8281 31.8486 32.3878 30.503 33.389 29.5067C34.3903 28.5105 35.7516 27.9445 37.1756 27.9326L41.481 27.9326C65.5115 18.8007 53.1909 1.36305 61.939 0.0563484C62.782 -0.0187828 63.6303 -0.0187828 64.4733 0.0563484C67.1451 0.0563484 68.7787 2.24925 69.2978 4.80258C70.8245 12.4625 68.9924 20.1976 63.8016 27.9326L63.8016 27.9777ZM25.7558 27.9777L3.84744 27.9777C3.34107 27.9737 2.83895 28.0689 2.37033 28.2577C1.90172 28.4465 1.47597 28.7252 1.1179 29.0774C0.759834 29.4297 0.476599 29.8485 0.284693 30.3095C0.0927877 30.7705 -0.00394429 31.2645 0.000123142 31.7627L0.000123141 68.2601C0.0199775 69.2537 0.433112 70.2004 1.15164 70.8988C1.87016 71.5973 2.83735 71.9924 3.84744 72L25.7558 72C26.7643 71.9804 27.725 71.5735 28.4325 70.8662C29.1401 70.1589 29.5383 69.2074 29.5421 68.215L29.5421 31.7176C29.5421 30.7283 29.1437 29.7794 28.434 29.0784C27.7244 28.3775 26.7614 27.9817 25.7558 27.9777ZM22.7024 61.4713C23.5223 61.4832 24.3203 61.7336 24.9957 62.191C25.6712 62.6484 26.1939 63.2923 26.4979 64.0415C26.8019 64.7907 26.8737 65.6117 26.7041 66.4009C26.5346 67.1902 26.1313 67.9124 25.5451 68.4765C24.959 69.0406 24.2162 69.4214 23.4104 69.5708C22.6046 69.7202 21.7718 69.6316 21.0171 69.3161C20.2625 69.0006 19.6196 68.4724 19.1696 67.798C18.7197 67.1236 18.4827 66.3333 18.4886 65.5266C18.4886 64.4431 18.9262 63.404 19.7049 62.6378C20.4837 61.8717 21.54 61.4413 22.6413 61.4413L22.7024 61.4713Z" fill="#1C3F98"/>
</svg>
