<svg width="28" height="27" viewBox="0 0 28 27" fill="none" xmlns="http://www.w3.org/2000/svg">
<path d="M1.87207 26.9994C4.63951 12.7106 12.0465 2.2789 28 1.75293V3.06785C18.1511 5.96067 13.3488 13.4119 15.0581 26.9994H1.87207Z" fill="#565556"/>
<path d="M16.1977 23.2302L15.8721 25.5971L18.314 26.7367L18.3953 24.3698L16.1977 23.2302ZM1.05814 16.568L0 19.7238L2.76744 20.6004L3.82558 17.5323L1.05814 16.568ZM6.75581 7.10057L4.72093 9.46742L7.24419 11.4836L9.27907 8.85379L6.75581 7.10057ZM14.2442 1.31492L12.0465 2.98048L13.7558 5.08436L16.0349 3.50645L14.2442 1.31492ZM20.3488 0.438307L20.8372 2.01621L23.1163 1.40258L22.6279 0L20.3488 0.438307ZM23.1163 6.5746L24.1744 8.32782L25.4767 7.0129L24.907 5.61032L23.1163 6.5746ZM19.9419 8.94145L18.5581 10.5194L20.4302 12.8862L21.407 11.2206L19.9419 8.94145ZM16.9302 15.779L16.2791 17.9706L18.8023 19.5485L18.8837 17.1816L16.9302 15.779Z" fill="#565556"/>
</svg>
