<svg width="33" height="27" viewBox="0 0 33 27" fill="none" xmlns="http://www.w3.org/2000/svg">
<path d="M27.205 8.75121C26.873 8.64285 26.529 8.54032 26.1748 8.44336C26.2331 8.21806 26.2865 7.99567 26.334 7.77707C27.1138 4.18748 26.6039 1.29569 24.8629 0.343593C23.1936 -0.569345 20.4634 0.38254 17.7061 2.65816C17.441 2.87698 17.1751 3.10866 16.9093 3.35147C16.7323 3.19082 16.5555 3.03558 16.3791 2.88708C13.4894 0.453842 10.5929 -0.57156 8.85361 0.383296C7.18583 1.29888 6.69193 4.01744 7.39385 7.41931C7.46163 7.7479 7.54086 8.08345 7.63046 8.42462C7.22052 8.53498 6.82476 8.65262 6.4461 8.77778C3.0582 9.89793 0.894531 11.6535 0.894531 13.4744C0.894531 15.3551 3.21723 17.2415 6.74599 18.3853C7.02446 18.4756 7.31342 18.5609 7.6112 18.642C7.51454 19.0109 7.43047 19.3725 7.3599 19.7252C6.69062 23.068 7.21328 25.7224 8.87662 26.6322C10.5947 27.5718 13.4781 26.606 16.2858 24.2785C16.5077 24.0945 16.7304 23.8994 16.9535 23.6949C17.2427 23.959 17.5315 24.2089 17.8186 24.4434C20.5382 26.6628 23.2243 27.5589 24.8861 26.6466C26.6024 25.7043 27.1602 22.8529 26.4361 19.3838C26.3807 19.1188 26.3164 18.8481 26.2441 18.5727C26.4466 18.5159 26.6454 18.4573 26.8392 18.3963C30.5077 17.2437 32.8945 15.3803 32.8945 13.4744C32.8945 11.6469 30.6611 9.87951 27.205 8.75121ZM26.4093 17.1658C26.2343 17.2207 26.0548 17.2738 25.8718 17.3253C25.4668 16.1094 24.9202 14.8165 24.2514 13.4808C24.8897 12.1768 25.4151 10.9004 25.8088 9.69245C26.1361 9.78228 26.4538 9.87702 26.76 9.97701C29.7212 10.9437 31.5275 12.3731 31.5275 13.4744C31.5275 14.6476 29.5768 16.1705 26.4093 17.1658ZM25.095 19.6355C25.4152 21.1696 25.461 22.5565 25.2488 23.6407C25.0583 24.615 24.675 25.2645 24.2011 25.5247C23.1926 26.0782 21.036 25.3587 18.7102 23.4606C18.4435 23.2431 18.175 23.0107 17.9056 22.7648C18.8072 21.8297 19.7084 20.7425 20.5879 19.535C22.1349 19.4048 23.5964 19.192 24.9218 18.9015C24.9871 19.1512 25.045 19.3961 25.095 19.6355ZM11.8041 25.429C10.8188 25.759 10.034 25.7685 9.55968 25.5091C8.5503 24.957 8.13067 22.8258 8.70306 19.967C8.76862 19.6396 8.84666 19.3033 8.9366 18.9595C10.2475 19.2344 11.6983 19.4322 13.2489 19.5514C14.1344 20.733 15.0616 21.819 15.9959 22.7699C15.7918 22.9568 15.5884 23.1347 15.3862 23.3024C14.1447 24.3315 12.9005 25.0617 11.8041 25.429ZM7.18811 17.1586C5.62776 16.6528 4.33916 15.9955 3.45589 15.2782C2.66221 14.6336 2.2615 13.9937 2.2615 13.4744C2.2615 12.3694 3.99871 10.96 6.89608 10.002C7.24763 9.88572 7.61565 9.77617 7.99756 9.67327C8.39799 10.9085 8.92327 12.2 9.55717 13.506C8.91507 14.8313 8.38232 16.1434 7.97797 17.3931C7.7057 17.3189 7.44192 17.2408 7.18811 17.1586ZM8.73541 7.17035C8.13404 4.25571 8.53344 2.05701 9.53849 1.50528C10.609 0.917522 12.9763 1.75554 15.4714 3.85652C15.6309 3.99081 15.791 4.13136 15.9516 4.27677C15.0218 5.22353 14.1031 6.30138 13.2255 7.47592C11.7206 7.60821 10.2799 7.82071 8.95539 8.10527C8.87212 7.7876 8.79835 7.47549 8.73541 7.17035ZM22.5388 10.4027C22.2221 9.88399 21.8971 9.37758 21.5657 8.885C22.5867 9.00741 23.5649 9.16989 24.4835 9.36872C24.2077 10.207 23.864 11.0834 23.4593 11.9818C23.1691 11.4592 22.8621 10.9323 22.5388 10.4027ZM16.9098 5.20327C17.5403 5.8511 18.1718 6.57438 18.7929 7.35914C18.167 7.3311 17.5334 7.31652 16.8945 7.31652C16.2617 7.31652 15.6328 7.33078 15.0108 7.35833C15.6325 6.58086 16.2694 5.85855 16.9098 5.20327ZM11.2448 10.4116C10.9285 10.9318 10.6272 11.4558 10.3414 11.9809C9.94336 11.0855 9.60279 10.2051 9.3246 9.35501C10.2376 9.16125 11.2112 9.00282 12.2257 8.88274C11.8897 9.37985 11.5619 9.88999 11.2448 10.4115V10.4116ZM12.2549 18.1586C11.2068 18.0477 10.2185 17.8974 9.30575 17.709C9.58838 16.8437 9.93646 15.9445 10.343 15.0299C10.6294 15.5546 10.9319 16.0789 11.2502 16.6001H11.2502C11.5744 17.1312 11.9102 17.6513 12.2549 18.1586ZM16.9476 21.837C16.2997 21.174 15.6534 20.4407 15.0223 19.6519C15.635 19.6747 16.2597 19.6864 16.8945 19.6864C17.5468 19.6864 18.1916 19.6724 18.8262 19.6456C18.2031 20.4487 17.5739 21.1831 16.9476 21.837ZM23.4724 14.9833C23.9001 15.9078 24.2607 16.8023 24.5469 17.6529C23.6191 17.8536 22.6174 18.0153 21.5619 18.1354C21.8941 17.6362 22.222 17.1211 22.5442 16.5912C22.8702 16.0551 23.1797 15.5183 23.4724 14.9833ZM21.3601 15.9435C20.8599 16.7661 20.3463 17.5512 19.825 18.2924C18.8754 18.3568 17.8944 18.39 16.8945 18.39C15.8987 18.39 14.9301 18.3606 13.9973 18.3032C13.4549 17.5523 12.9302 16.7648 12.4332 15.9506H12.4333C11.9376 15.1386 11.4813 14.3198 11.0679 13.5056C11.4812 12.6894 11.9363 11.8697 12.4291 11.0591L12.429 11.0593C12.9232 10.2466 13.4433 9.46293 13.9807 8.71674C14.9323 8.64852 15.9082 8.61292 16.8945 8.61292H16.8945C17.8852 8.61292 18.8624 8.64879 19.8138 8.71761C20.3429 9.45834 20.8595 10.2395 21.3556 11.0523C21.8574 11.8742 22.3183 12.6885 22.7351 13.4871C22.3195 14.2995 21.8596 15.122 21.3601 15.9435ZM24.1801 1.46671C25.2517 2.05274 25.6684 4.41619 24.9951 7.51541C24.9522 7.71316 24.9038 7.91459 24.8513 8.11872C23.5237 7.82822 22.0821 7.61204 20.5727 7.47776C19.6934 6.29031 18.7822 5.21078 17.8676 4.27618C18.1135 4.05185 18.3591 3.83794 18.6036 3.63608C20.9661 1.68634 23.1741 0.91655 24.1801 1.46671ZM16.8945 10.7646C18.4727 10.7646 19.752 11.9778 19.752 13.4744C19.752 14.971 18.4727 16.1843 16.8945 16.1843C15.3164 16.1843 14.037 14.971 14.037 13.4744C14.037 11.9778 15.3164 10.7646 16.8945 10.7646Z" fill="#565556"/>
</svg>
