<svg width="80" height="80" viewBox="0 0 80 80" fill="none" xmlns="http://www.w3.org/2000/svg">
<path fill-rule="evenodd" clip-rule="evenodd" d="M22.3395 75.8948C16.9324 73.2604 12.2008 69.4176 8.50902 64.6626L17.861 57.2976C20.4627 60.6446 23.7917 63.353 27.595 65.2169L22.3395 75.8948ZM40.0029 20.1033C43.9107 20.1033 47.7306 21.2645 50.9798 23.4399C54.2289 25.6154 56.7613 28.7074 58.2567 32.3251C59.7522 35.9428 60.1434 39.9235 59.3811 43.764C58.6187 47.6045 56.737 51.1322 53.9738 53.9011C51.2106 56.6699 47.6901 58.5555 43.8575 59.3194C40.0249 60.0833 36.0522 59.6913 32.442 58.1928C28.8317 56.6943 25.746 54.1567 23.5749 50.9009C21.4039 47.6451 20.2451 43.8173 20.2451 39.9016C20.2451 34.6508 22.3268 29.615 26.0321 25.9021C29.7374 22.1892 34.7628 20.1033 40.0029 20.1033ZM30.5851 37.2618C31.0008 37.2618 31.3995 37.4273 31.6934 37.7218C31.9874 38.0164 32.1525 38.4159 32.1525 38.8325C32.1525 39.249 31.9874 39.6486 31.6934 39.9431C31.3995 40.2377 31.0008 40.4031 30.5851 40.4031C30.1693 40.4031 29.7707 40.2377 29.4767 39.9431C29.1827 39.6486 29.0176 39.249 29.0176 38.8325C29.0176 38.4159 29.1827 38.0164 29.4767 37.7218C29.7707 37.4273 30.1693 37.2618 30.5851 37.2618ZM32.7716 30.3324C33.4437 30.3324 34.1007 30.5321 34.6596 30.9063C35.2185 31.2805 35.654 31.8123 35.9112 32.4346C36.1684 33.0568 36.2358 33.7415 36.1046 34.402C35.9735 35.0626 35.6498 35.6694 35.1746 36.1456C34.6993 36.6219 34.0938 36.9462 33.4346 37.0776C32.7754 37.209 32.0921 37.1415 31.4711 36.8838C30.8501 36.626 30.3194 36.1896 29.946 35.6296C29.5725 35.0696 29.3732 34.4112 29.3732 33.7377C29.3801 32.8367 29.7404 31.9746 30.3762 31.3374C31.012 30.7003 31.8724 30.3393 32.7716 30.3324ZM40.0029 37.5786C40.305 37.5786 40.6041 37.6384 40.8831 37.7546C41.162 37.8709 41.4152 38.0412 41.6282 38.2559C41.8412 38.4705 42.0098 38.7253 42.1242 39.0054C42.2386 39.2856 42.2966 39.5857 42.2948 39.8884C42.3188 40.2055 42.2772 40.5241 42.1725 40.8244C42.0679 41.1246 41.9025 41.4 41.6867 41.6332C41.471 41.8665 41.2094 42.0525 40.9186 42.1797C40.6277 42.3069 40.3137 42.3727 39.9963 42.3727C39.679 42.3727 39.365 42.3069 39.0741 42.1797C38.7833 42.0525 38.5218 41.8665 38.306 41.6332C38.0902 41.4 37.9248 41.1246 37.8202 40.8244C37.7155 40.5241 37.6739 40.2055 37.6979 39.8884C37.6961 39.5845 37.7545 39.2834 37.8698 39.0024C37.985 38.7213 38.1547 38.466 38.3691 38.2512C38.5835 38.0364 38.8383 37.8663 39.1188 37.7508C39.3992 37.6354 39.6997 37.5768 40.0029 37.5786ZM40.0029 30.5304C41.7538 30.5345 43.4685 31.0296 44.953 31.9597C46.4376 32.8898 47.6326 34.2177 48.403 35.7932C49.1733 37.3687 49.4881 39.1288 49.3118 40.8743C49.1355 42.6197 48.4751 44.2809 47.4054 45.6698C46.3356 47.0586 44.8993 48.1197 43.2588 48.7329C41.6184 49.3461 39.8395 49.4868 38.1233 49.1393C36.4072 48.7917 34.8224 47.9698 33.5484 46.7664C32.2743 45.563 31.3619 44.0263 30.9144 42.3302C31.7701 42.2503 32.5674 41.8603 33.1567 41.2334C33.746 40.6064 34.0867 39.7856 34.1151 38.9248C34.9421 38.6914 35.707 38.2766 36.3543 37.7106C35.9435 38.3632 35.7202 39.1168 35.7089 39.8884C35.6958 40.7421 35.9365 41.5804 36.4003 42.2966C36.8642 43.0128 37.5302 43.5746 38.3135 43.9104C39.0969 44.2462 39.9623 44.3409 40.7996 44.1824C41.6368 44.0239 42.4081 43.6194 43.0152 43.0204C43.6223 42.4213 44.0379 41.6548 44.209 40.8184C44.3801 39.982 44.299 39.1134 43.976 38.3233C43.653 37.5333 43.1028 36.8573 42.3953 36.3815C41.6878 35.9058 40.855 35.6517 40.0029 35.6516C38.9859 35.6423 38.0012 36.0088 37.2368 36.6811C37.7887 35.799 38.0809 34.7788 38.0798 33.7377C38.0919 32.7416 37.8225 31.7624 37.3027 30.9132C38.157 30.6552 39.0449 30.5262 39.9371 30.5304L40.0029 30.5304ZM40.0029 28.5374C42.1707 28.5372 44.2933 29.1581 46.1205 30.327C47.9477 31.4958 49.4032 33.1638 50.3155 35.1343C51.2278 37.1048 51.5588 39.2956 51.2695 41.4483C50.9801 43.6011 50.0825 45.6261 48.6825 47.2845C47.2825 48.9429 45.4384 50.1656 43.3677 50.8084C41.2971 51.4512 39.0861 51.4873 36.9957 50.9125C34.9052 50.3376 33.0223 49.1758 31.5691 47.564C30.1159 45.9522 29.1529 43.9576 28.7937 41.8154C28.2765 41.5208 27.8459 41.0949 27.5453 40.5805C27.2447 40.0661 27.0847 39.4813 27.0813 38.8852C27.0861 37.9638 27.4283 37.0761 28.0429 36.3907C27.5739 35.5906 27.3282 34.6788 27.3316 33.7509C27.3559 32.3377 27.935 30.991 28.9434 30.0027C29.9518 29.0144 31.3084 28.4642 32.7189 28.4714C33.7989 28.4502 34.8552 28.7891 35.7221 29.4349C37.0689 28.9012 38.502 28.6194 39.9502 28.6034L40.0029 28.5374ZM-5.34838e-10 38.4893C0.21539 33.1141 1.50794 27.8373 3.80072 22.9731C6.09349 18.1089 9.3396 13.7566 13.3458 10.1756C17.3519 6.5945 22.0362 3.85784 27.1198 2.12847C32.2033 0.399102 37.5822 -0.2876 42.9361 0.109272C48.2899 0.506143 53.5094 1.97846 58.2837 4.43857C63.0579 6.89867 67.2894 10.2963 70.7261 14.429C74.1627 18.5618 76.7344 23.3453 78.2879 28.4947C79.8415 33.644 80.3451 39.054 79.7688 44.4024C79.4521 46.625 79.0124 48.8282 78.4516 51.0018L78.5701 50.685L78.5701 50.619L78.7019 50.1703C78.8336 49.6687 78.9521 49.154 79.0838 48.5732L79.2156 48.1244L79.2156 48.0585C79.3473 47.3589 79.4658 46.6462 79.5975 45.9466L79.5317 46.4614L79.4658 46.4614C79.2293 48.061 78.8905 49.6437 78.4516 51.1998C78.0864 52.4655 77.6466 53.7084 77.1344 54.9219C75.1173 59.9154 72.1178 64.4509 68.3144 68.2582C64.5111 72.0655 59.9818 75.0667 54.9965 77.0829C50.0112 79.0991 44.6718 80.089 39.2966 79.9937C33.9214 79.8985 28.6204 78.7199 23.7093 76.5284L28.9781 65.8241C32.4547 67.3256 36.204 68.0896 39.9898 68.0679C45.3904 68.0662 50.6762 66.5056 55.2149 63.5727C59.7537 60.6398 63.3531 56.4587 65.5827 51.5298L76.4627 56.4001C76.6471 55.9514 76.8446 55.5026 77.0422 54.9878L66.1622 50.1175C67.4507 46.8721 68.0993 43.4074 68.0722 39.9147C68.1695 32.4842 65.331 25.3164 60.1758 19.9744C55.0205 14.6324 47.9665 11.5496 40.552 11.398C33.1375 11.2465 25.964 14.0385 20.5955 19.1654C15.2271 24.2923 12.0993 31.3381 11.8942 38.7665L1.52793 38.8852L-5.40341e-10 38.8852L-5.34838e-10 38.4893ZM7.54747 63.4351C2.66597 56.805 0.0220341 48.7875 -5.6345e-10 40.5483L11.8547 40.3503C11.8547 44.5872 12.5528 48.824 16.8995 56.1229L7.54747 63.4351Z" fill="#1C3F98"/>
</svg>
