<svg width="24" height="27" viewBox="0 0 24 27" fill="none" xmlns="http://www.w3.org/2000/svg">
<path d="M16.9246 3.24999C16.9403 3.26084 16.955 3.27311 16.9685 3.28663L18.5871 4.87566L20.7819 5.0385C20.882 5.04664 21.0014 5.12127 21.0206 5.25697L24 25.1952L15.5665 27L0 24.115C0 24.115 1.99726 8.83264 2.0727 8.2912C2.17284 7.58014 2.19753 7.55707 2.96159 7.3196L5.42524 6.56375C5.95199 4.35322 7.63375 0 11.1523 0C11.6118 0 12.144 0.244258 12.5748 0.806051L12.7023 0.80198C14.2126 0.80198 15.0713 2.07619 15.5583 3.46168L16.3745 3.21199C16.4842 3.17942 16.7558 3.136 16.9232 3.24999H16.9246ZM12.7037 9.64819C12.7037 9.64819 12 9.24516 10.5775 9.24516C6.88477 9.24516 5.05487 11.685 5.05487 14.2063C5.05487 17.2025 8.07682 17.284 8.07682 19.1064C8.07682 19.5474 7.76132 20.1513 6.98628 20.1513C5.8011 20.1513 4.39643 18.9571 4.39643 18.9571L3.68176 21.2966C3.68176 21.2966 5.04801 22.9412 7.72016 22.9412C9.9465 22.9412 11.5981 21.283 11.5981 18.7074C11.5981 15.433 7.91495 14.8984 7.91495 13.5007C7.91495 13.2429 7.99726 12.2278 9.63512 12.2278C10.7517 12.2278 11.6626 12.7082 11.6626 12.7082L12.7037 9.64819ZM14.6996 3.72358C14.3663 2.71533 13.8477 1.83872 13.0686 1.74237C13.262 2.29195 13.3841 2.98537 13.3841 3.84571L13.3827 4.12796L14.6996 3.72358ZM12.1029 1.91335C11.2442 2.27703 10.262 3.2432 9.73937 5.2434L12.4595 4.41021V4.25959C12.4595 3.22013 12.3196 2.44936 12.1029 1.912V1.91335ZM11.0576 0.933608C8.52812 0.933608 7.10837 4.21752 6.51029 6.23265L8.65981 5.57315C9.17147 2.93245 10.38 1.61075 11.5089 1.08559C11.377 0.991191 11.219 0.939091 11.0562 0.936322L11.0576 0.933608Z" fill="#565556"/>
</svg>
