<svg width="30" height="27" viewBox="0 0 30 27" fill="none" xmlns="http://www.w3.org/2000/svg">
<path fill-rule="evenodd" clip-rule="evenodd" d="M15 0L15.0105 5.27545e-05H15.0125C15.0467 0.000461047 15.0807 0.00262095 15.1145 0.00645363L22.9881 0.828636C23.0237 0.832087 23.059 0.837421 23.0938 0.844573C23.1414 0.854319 23.1881 0.867437 23.2333 0.883756C23.4128 0.948332 23.5737 1.0636 23.693 1.2217L29.7943 9.31113C29.8317 9.35924 29.8646 9.41112 29.8929 9.46636C29.8983 9.47706 29.9035 9.4879 29.9087 9.49886C29.9801 9.65229 30.009 9.81753 29.9976 9.97941C29.9917 10.064 29.9748 10.1476 29.9472 10.2281C29.9201 10.3073 29.8826 10.3835 29.8351 10.4547C29.8206 10.4764 29.805 10.4977 29.7886 10.5185C29.7774 10.5329 29.7657 10.5469 29.7537 10.5604L15.7694 26.6436C15.7356 26.6836 15.6984 26.7214 15.6579 26.7563C15.5739 26.8289 15.4796 26.8858 15.3794 26.9262C15.2562 26.9763 15.1263 27.0004 14.9972 27C14.87 26.9997 14.742 26.9755 14.6207 26.9262C14.5202 26.8857 14.4257 26.8286 14.3415 26.7558C14.3013 26.721 14.2642 26.6835 14.2306 26.6436L0.247568 10.5619C0.21455 10.5246 0.184198 10.4847 0.156874 10.4424C0.0534065 10.2821 3.20195e-05 10.0975 1.40129e-08 9.9112C-1.59887e-05 9.81675 0.0136743 9.7219 0.0414925 9.62959C0.0648618 9.55195 0.0980356 9.47671 0.140851 9.40574C0.160017 9.37395 0.180866 9.34342 0.203251 9.31426L6.30375 1.22619C6.31239 1.21459 6.3213 1.20317 6.33049 1.19191C6.42889 1.07133 6.55358 0.976504 6.69355 0.913337C6.75124 0.887299 6.81152 0.866647 6.87362 0.851777C6.91927 0.840846 6.96576 0.833062 7.01275 0.828557L14.8855 0.00645363C14.9194 0.00260778 14.9535 0.000461047 14.9879 5.27545e-05H14.9894L15 0ZM27.0076 8.92341L23.609 4.41746L23.1109 8.92341H27.0076ZM17.2259 2.21355L21.2701 7.37209L21.7876 2.68991L17.2259 2.21355ZM8.21239 2.68991L12.7741 2.21355L8.72984 7.37214L8.21239 2.68991ZM14.9999 2.6013L19.9561 8.9233H10.0437L14.9999 2.6013ZM3.17744 10.899H7.34516L11.5078 20.4797L3.17744 10.899ZM6.39103 4.4175L2.99242 8.92341H6.88893L6.39103 4.4175ZM26.8226 10.899L18.4921 20.4798L22.6548 10.899H26.8226ZM9.52187 10.899H20.4781L15 23.5072L9.52187 10.899Z" fill="#565556"/>
</svg>
