<svg width="184" height="24" viewBox="0 0 184 24" fill="none" xmlns="http://www.w3.org/2000/svg">
<path opacity="0.85" d="M12.5887 6.402V23.52H6.31769V6.402H0V0.924H18.9165V6.402H12.5887ZM33.5398 16.7418H23.5374C23.5291 17.1148 23.5989 17.4853 23.7423 17.8296C23.8857 18.1739 24.0995 18.4842 24.37 18.7406C24.6405 18.9971 24.9616 19.1939 25.3126 19.3183C25.6637 19.4428 26.0369 19.4922 26.4082 19.4634C27.9513 19.4551 29.4654 19.042 30.7996 18.2652L33.0726 22.0482C31.0182 23.3154 28.6549 23.9908 26.2422 24C21.1153 24 18.3362 20.37 18.3362 15.1668C18.3362 9.3126 21.634 6.2988 26.0769 6.2988C30.5199 6.2988 33.6237 9.3804 33.6237 15.6798C33.5554 16.0908 33.5554 16.4502 33.538 16.7418H33.5398ZM25.8493 10.5276C24.5167 10.5276 23.7818 11.4348 23.5937 13.1298H28.4296C28.1391 11.4006 27.5581 10.5276 25.8493 10.5276ZM44.3388 23.9316C39.3664 23.9316 36.41 20.7648 36.41 15.03C36.41 9.894 39.0417 6.231 44.4754 6.231C47.203 6.141 49.7383 7.6338 50.9859 10.071L46.9874 13.146C46.1848 11.6736 45.6373 10.9548 44.373 10.9548C43.1086 10.9548 42.1569 12.444 42.1569 15.1308C42.1569 17.8176 42.9594 19.2108 44.549 19.2108C45.6427 19.2108 46.4058 18.5946 47.4881 17.0028L51.162 19.8786C49.1855 22.8066 47.3515 23.9358 44.3436 23.9358L44.3388 23.9316ZM64.1616 23.5716V13.9344C64.1616 11.7264 63.4267 11.1444 62.2306 11.1444C61.0345 11.1444 60.254 11.7264 60.254 13.866V23.5722H54.4442V2.328L60.254 0V7.7202C61.4567 6.732 62.9709 6.2046 64.5263 6.231C68.2398 6.231 70.0115 8.73 70.0115 13.1808V23.5716H64.1616ZM83.9148 23.9316C77.1988 23.9316 73.662 18.9504 73.662 12.2568C73.662 4.9812 77.9343 0.582 83.9148 0.582C89.4683 0.582 91.6556 2.9616 93.2105 7.2408L87.5373 9.4608C86.7167 7.3608 85.9482 6.0372 83.8801 6.0372C81.2657 6.0372 80.1379 8.6562 80.1379 12.2514C80.1379 15.8466 81.2315 18.4482 83.9484 18.4482C85.9129 18.4482 86.7514 17.3862 87.9811 15.2472L93.2788 18.072C91.6736 21.7812 87.9463 24.111 83.9142 23.9262L83.9148 23.9316ZM107.6 12.9936C107.279 12.5753 106.871 12.2317 106.405 11.9864C105.939 11.7411 105.425 11.6 104.9 11.5728C103.481 11.5728 102.61 12.2568 102.61 14.3286V23.5728H96.8V6.642H102.61V7.8744C103.412 7.02619 104.479 6.47742 105.635 6.31871C106.791 6.15999 107.966 6.40081 108.966 7.0014L107.6 12.9936ZM121.423 23.5728V22.443C120.235 23.4338 118.731 23.9626 117.185 23.9322C113.472 23.9322 111.7 21.4332 111.7 16.965V6.642H117.528V16.2282C117.528 18.4194 118.279 19.0014 119.475 19.0014C120.672 19.0014 121.406 18.4194 121.406 16.2966V6.642H127.25V23.6232L121.423 23.5728ZM141.177 23.5728V13.9344C141.177 11.7264 140.425 11.1444 139.246 11.1444C138.066 11.1444 137.269 11.7264 137.269 13.866V23.5722H131.459V6.642H137.269V7.7718C138.472 6.7836 139.986 6.2562 141.541 6.2826C145.255 6.2826 147.026 8.7816 147.026 13.2324V23.6232L141.177 23.5728ZM158.35 23.9328C153.378 23.9328 150.404 20.766 150.404 15.0312C150.404 9.8952 153.052 6.2322 158.469 6.2322C159.807 6.19082 161.13 6.52877 162.285 7.20715C163.44 7.88553 164.38 8.87677 164.997 10.0668L160.999 13.0968C160.178 11.6244 159.632 10.9056 158.384 10.9056C157.137 10.9056 156.145 12.3948 156.145 15.0816C156.145 17.7684 156.948 19.1616 158.538 19.1616C159.631 19.1616 160.417 18.5454 161.477 16.9536L165.151 19.8294C163.186 22.8078 161.34 23.9376 158.35 23.9376L158.35 23.9328ZM178.155 23.5728V13.9344C178.155 11.7264 177.421 11.1444 176.224 11.1444C175.028 11.1444 174.26 11.7264 174.26 13.866V23.5722H168.45V2.328L174.26 0V7.7202C175.455 6.72981 176.964 6.20143 178.515 6.231C182.24 6.231 184 8.73 184 13.1808V23.5716L178.155 23.5728Z" fill="#1C3F98"/>
</svg>
