<svg width="117" height="80" viewBox="0 0 117 80" fill="none" xmlns="http://www.w3.org/2000/svg">
<path fill-rule="evenodd" clip-rule="evenodd" d="M39.4774 0.0893437H77.4151C77.5046 0.0893437 77.5762 0.178698 77.5762 0.357429V23.8069C77.5762 23.9857 77.5763 24.0572 77.4151 24.0572H59.0819V35.6211H62.6626C62.8237 35.6211 62.9133 35.6211 62.9133 35.7819V39.3566H101.102V55.9428C101.102 56.0322 101.102 56.0322 101.102 56.0322H116.749C116.839 56.0322 117 56.1215 117 56.2109V79.7498C116.996 79.8148 116.968 79.876 116.922 79.9221C116.876 79.9681 116.814 79.9958 116.749 80H83.9321C83.753 80 83.6635 80 83.6635 79.7498V56.1037C83.6635 56.1037 83.6635 55.9249 83.9321 55.9249H99.6693V40.6434H62.8774V44.1287C62.8801 44.1623 62.8755 44.196 62.8639 44.2275C62.8522 44.2591 62.8338 44.2878 62.81 44.3116C62.7862 44.3354 62.7574 44.3538 62.7258 44.3654C62.6942 44.377 62.6604 44.3816 62.6268 44.3789H59.0819V55.9249H74.7296C74.9086 55.9249 74.9982 56.0143 74.9982 56.1037V79.6426C74.9982 79.8034 74.9086 79.8928 74.7296 79.8928H42.0914C42.0571 79.8992 42.0217 79.8971 41.9883 79.8868C41.955 79.8765 41.9247 79.8582 41.9 79.8336C41.8753 79.8089 41.857 79.7787 41.8466 79.7454C41.8363 79.7121 41.8343 79.6768 41.8407 79.6426V56.1037C41.8407 56.1037 41.8407 55.9249 42.0914 55.9249H57.757V44.3789H54.1763C54.1763 44.3789 54.0152 44.3789 54.0152 44.1287V40.6434H17.2232V55.9249H32.9605C33.1396 55.9249 33.2291 56.0143 33.2291 56.1037V79.6426C33.2291 79.8034 33.1396 79.8928 32.9605 79.8928H0.250677C0.185583 79.8886 0.124201 79.8609 0.0780769 79.8148C0.0319525 79.7688 0.00421249 79.7076 0 79.6426V56.1037C0 56.1037 0.161159 55.9249 0.250677 55.9249H15.8268V39.2493H54.0152V35.6747C54.0191 35.6334 54.0373 35.5948 54.0667 35.5654C54.0961 35.5361 54.1349 35.5178 54.1763 35.5139H57.757V23.95H39.4774C39.4123 23.9458 39.351 23.918 39.3049 23.872C39.2587 23.8259 39.231 23.7647 39.2268 23.6997V0.268086C39.2305 0.201158 39.2576 0.137636 39.3034 0.0886347C39.3492 0.0396333 39.4108 0.00827765 39.4774 0V0.0893437ZM56.0204 37.4441H60.8722C60.9125 37.451 60.9496 37.4701 60.9784 37.4989C61.0073 37.5278 61.0265 37.5648 61.0333 37.605V42.4665C61.0301 42.5099 61.0125 42.551 60.9834 42.5833C60.9542 42.6157 60.9151 42.6374 60.8722 42.6452H56.0024C55.9563 42.6412 55.9131 42.6211 55.8803 42.5884C55.8476 42.5557 55.8274 42.5125 55.8234 42.4665V37.605C55.8312 37.5622 55.853 37.5232 55.8854 37.494C55.9178 37.4649 55.959 37.4474 56.0024 37.4441H56.0204ZM88.0141 68.7042H112.793L112.882 68.7936V72.958H87.9424V68.7936C87.9424 68.7042 87.9424 68.7042 87.9424 68.7042H88.0141ZM88.0141 61.8409H96.9659L97.0554 61.9303V66.0947C97.0554 66.1841 97.0554 66.1841 96.9659 66.1841H88.0141C88.0141 66.1841 88.0141 66.1841 88.0141 66.0947V61.9303V61.8409ZM46.1912 68.7042H70.8803C70.9698 68.7042 70.9699 68.7042 70.9699 68.7936V72.958H46.1018V68.7936C46.1018 68.7042 46.1017 68.7042 46.1912 68.7042ZM46.1912 61.8409H55.143V66.1841H46.1912C46.1017 66.1841 46.1018 66.1841 46.1018 66.0947V61.9303L46.1912 61.8409ZM4.35056 68.7042H29.0576C29.0576 68.7042 29.0576 68.7042 29.0576 68.7936V72.958H4.26106V68.7936L4.35056 68.7042ZM4.35056 61.8409H13.3024V66.1841H4.35056L4.26106 66.0947V61.9303L4.35056 61.8409ZM44.2756 12.1716H72.9214V16.4254H44.2756V12.1716ZM44.2756 5.30832H54.6239V9.56207H44.1861V5.39766C44.1861 5.30829 44.1861 5.30832 44.2756 5.30832Z" fill="#1C3F98"/>
</svg>
