<svg width="114" height="34" viewBox="0 0 114 34" fill="none" xmlns="http://www.w3.org/2000/svg">
<g opacity="0.85">
<path d="M31.1701 21.5983C29.3165 21.5983 27.5795 20.8096 26.0014 19.5257L26.3857 17.7133L26.4024 17.6461C26.7446 15.7164 27.8302 12.4772 31.1701 12.4772C33.675 12.4772 35.7124 14.5247 35.7124 17.0419C35.7039 19.5508 33.6667 21.5983 31.1701 21.5983ZM31.1701 7.85389C26.9032 7.85389 23.5969 10.6397 22.2527 15.2212C20.1985 12.1248 18.6454 8.40774 17.7354 5.27783H13.143V17.2852C13.143 19.6515 11.2225 21.5813 8.86783 21.5813C6.51316 21.5813 4.59288 19.6515 4.59288 17.2852V5.27783H5.23735e-05V17.2852C-0.0166553 22.2025 3.96623 26.2384 8.85914 26.2384C13.7523 26.2384 17.7352 22.2025 17.7352 17.2852V15.2715C18.6285 17.1426 19.7223 19.0305 21.05 20.7089L18.2359 33.9999H22.937L24.9743 24.3588C26.7611 25.5084 28.8152 26.2301 31.1699 26.2301C36.2047 26.2301 40.3046 22.085 40.3046 17.0251C40.3046 11.9737 36.2047 7.85389 31.1699 7.85389H31.1701Z" fill="#1C3F98"/>
<path d="M54.3241 8.37425L57.2883 20.3817L60.5532 8.37425H64.4441L59.426 25.7267H55.5349L52.454 13.6437L49.3811 25.7182H45.4902L40.4717 8.36597H44.3628L47.6275 20.3734L50.5916 8.36597H54.3239V8.37447L54.3241 8.37425ZM73.7541 7.85398C68.7025 7.85398 64.6112 11.9738 64.6112 17.042C64.6112 22.1187 68.7108 26.2302 73.7541 26.2302C78.8058 26.2302 82.9054 22.1187 82.9054 17.042C82.9054 11.9655 78.8058 7.85398 73.7541 7.85398ZM73.7541 22.4542C70.7817 22.4542 68.3769 20.0376 68.3769 17.0505C68.3769 14.0632 70.7899 11.6468 73.7541 11.6468C76.7267 11.6468 79.1313 14.0632 79.1313 17.0505C79.1313 20.0293 76.7267 22.4542 73.7541 22.4542ZM94.0189 12.2593C91.4056 12.2593 89.2931 14.3905 89.2931 17.0084V25.7182H85.3768V8.37425H89.2931V11.0425C89.2931 11.0425 90.963 8.36574 94.3947 8.36574H95.597V12.2593H94.0189ZM107.162 16.3708C109.942 14.7932 111.829 11.7976 111.829 8.36574H107.913C107.913 11.2606 105.575 13.6101 102.694 13.6101H102.168V0H98.2524V25.718H102.168V17.5455H102.636C103.02 17.5455 103.521 17.7973 103.747 18.1076L109.307 25.7182H114L107.162 16.3708Z" fill="#1C3F98"/>
</g>
</svg>
