<svg width="30" height="29" viewBox="0 0 30 29" fill="none" xmlns="http://www.w3.org/2000/svg">
<path d="M20.995 10.5338V7.69231C20.995 7.49785 21.1583 7.37692 21.3117 7.37692H23.155C23.2177 7.37692 23.3094 7.38684 23.3827 7.45327C23.4622 7.52538 23.4717 7.6187 23.4717 7.66923V18.2615C23.4717 18.5737 23.4719 18.9534 23.5282 19.3652L23.53 19.3787V19.3923C23.53 19.4488 23.5206 19.5232 23.4675 19.5915C23.4221 19.6498 23.3606 19.6811 23.3253 19.6985L23.3219 19.7002L23.3219 19.7002C22.3142 20.1748 21.2584 20.3884 20.2505 20.3885M20.995 10.5338L20.25 20.3885C20.2502 20.3885 20.2503 20.3885 20.2505 20.3885M20.995 10.5338C20.866 10.5269 20.7517 10.5269 20.5902 10.5269H20.5883C19.102 10.5269 17.8785 11.072 17.0273 11.9759C16.1776 12.8783 15.71 14.1263 15.71 15.5154C15.71 17.1229 16.1738 18.3498 16.9884 19.1738C17.8028 19.9976 18.944 20.3943 20.2505 20.3885M20.995 10.5338L20.2505 20.3885M27.6217 22.6462L27.6217 22.6471C27.6242 23.1708 27.5221 23.6899 27.3212 24.1746C27.1203 24.6593 26.8246 25.1001 26.4509 25.4718C26.0772 25.8434 25.6328 26.1386 25.1432 26.3401C24.6537 26.5417 24.1286 26.6457 23.5982 26.6462H6.40167C4.1767 26.6462 2.36667 24.8528 2.36667 22.6577V6.34231C2.36667 4.14715 4.1767 2.35385 6.40167 2.35385H23.5867C24.6575 2.35385 25.6841 2.77459 26.4406 3.52282C27.1971 4.27097 27.6217 5.28522 27.6217 6.34231L27.6217 22.6462ZM12.8138 19.965L12.8137 19.965L12.8148 19.9672C12.8513 20.0393 12.9016 20.1149 12.9856 20.166C13.0693 20.2169 13.1591 20.2269 13.2383 20.2269H15.2683C15.3893 20.2269 15.5016 20.1604 15.5472 20.0401C15.5871 19.9349 15.562 19.8262 15.5123 19.7433L12.2975 13.6344L15.3374 7.82574C15.3813 7.75262 15.4185 7.64142 15.3673 7.52871C15.3097 7.40223 15.1847 7.36538 15.0933 7.36538H13.215C13.1183 7.36538 13.0319 7.39125 12.9588 7.45321C12.9043 7.49938 12.8658 7.56084 12.8418 7.59924C12.8397 7.60252 12.8378 7.60562 12.8359 7.60854L12.8297 7.61846L12.8246 7.62905C12.1607 9.01635 11.4765 10.4633 10.8446 11.8711C10.1946 10.4561 9.5095 9.01785 8.83456 7.6192C8.80469 7.55339 8.75958 7.47791 8.6755 7.42877C8.59489 7.38166 8.50809 7.37692 8.44333 7.37692H6.43667C6.34272 7.37692 6.23728 7.42192 6.17817 7.51934C6.11265 7.62735 6.13214 7.74852 6.1949 7.84194L9.23301 13.8287L6.09293 19.7452C6.04421 19.8122 6.0057 19.9132 6.04065 20.0218C6.08677 20.1652 6.22132 20.2154 6.33167 20.2154H8.25667C8.32936 20.2154 8.40547 20.2015 8.47794 20.1579C8.54789 20.1158 8.59727 20.0562 8.63574 19.9953L8.6415 19.9862L8.64625 19.9765C9.3351 18.5714 10.0438 17.0778 10.6994 15.6404C11.2195 16.7244 11.7296 17.7608 12.2327 18.783C12.4274 19.1785 12.621 19.5718 12.8138 19.965ZM24.0417 0.8H5.95833C3.1083 0.8 0.8 3.07977 0.8 5.90385V23.0962C0.8 25.9202 3.1083 28.2 5.95833 28.2H24.0417C26.8917 28.2 29.2 25.9202 29.2 23.0962V5.90385C29.2 3.07977 26.8917 0.8 24.0417 0.8ZM20.5183 12.6462C20.709 12.6462 20.8702 12.6693 20.995 12.7039V18.1303C20.8218 18.1783 20.605 18.2 20.39 18.2C19.7751 18.2 19.2423 18.0022 18.8607 17.5745C18.4765 17.144 18.2217 16.4538 18.2217 15.4231C18.2217 14.53 18.4683 13.8359 18.8704 13.3684C19.2702 12.9036 19.8375 12.6462 20.5183 12.6462Z" fill="#565556" stroke="#565556" stroke-width="0.4"/>
</svg>
